<svg xmlns="http://www.w3.org/2000/svg" height="512" viewBox="0 0 383.96901 383" width="512" class=""><g><path d="m358.640625 311.125c12.480469 12.480469 12.480469 32.71875 0 45.28125l-2.71875 2.71875c-12.5625 12.480469-32.800781 12.480469-45.28125 0l-117.199219-117.199219c20.238282-11.121093 36.878906-27.761719 48-48zm0 0" fill="#ff7043" data-original="#FF7043" class="active-path" style="fill:#07B184" data-old_color="#ff7043"></path><path d="m256 136.484375c0 66.273437-53.726562 120-120 120s-120-53.726563-120-120 53.726562-120 120-120 120 53.726563 120 120zm0 0" fill="#4dd0e1" data-original="#4DD0E1" class="" style="fill:#FECB1D" data-old_color="#4dd0e1"></path><g fill="#012e52"><path d="m56.929688 247.101562c7.167968 5.125 17.175781 3.488282 22.328124-3.695312 5.140626-7.1875 3.484376-17.179688-3.699218-22.328125-27.277344-19.523437-43.558594-51.144531-43.558594-84.59375 0-57.34375 46.65625-104 104-104s104 46.65625 104 104c0 17.417969-4.359375 34.640625-12.585938 49.734375-9.660156 17.601562-24.078124 32.019531-41.621093 41.65625-15.152344 8.25-32.378907 12.609375-49.792969 12.609375-8.832031 0-16 7.167969-16 16s7.167969 16 16 16c18.648438 0 37.113281-3.894531 54.128906-11.246094l109.199219 109.199219c9.335937 9.335938 21.617187 14 33.910156 14 12.289063 0 24.601563-4.664062 34-14l2.761719-2.753906c18.640625-18.765625 18.625-49.207032-.039062-67.871094l-109.199219-109.191406c7.335937-17 11.238281-35.472656 11.238281-54.136719 0-74.992187-61.007812-136-136-136s-136 61.007813-136 136c0 43.742187 21.28125 85.097656 56.929688 110.617187zm290.398437 75.335938c6.222656 6.222656 6.207031 16.40625 0 22.65625l-2.679687 2.679688c-6.28125 6.246093-16.464844 6.269531-22.6875.039062l-103.328126-103.328125c9.527344-7.3125 18.054688-15.832031 25.375-25.375zm0 0" data-original="#012E52" class="" style="fill:#A8A9AD" data-old_color="#012E52"></path><path d="m136 88.484375c26.472656 0 48 21.527344 48 48 0 8.832031 7.167969 16 16 16s16-7.167969 16-16c0-44.113281-35.886719-80-80-80-8.832031 0-16 7.167969-16 16s7.167969 16 16 16zm0 0" data-original="#012E52" class="" style="fill:#A8A9AD" data-old_color="#012E52"></path></g></g> </svg>