<svg id="Calque_1" data-name="Calque 1" xmlns="http://www.w3.org/2000/svg" viewBox="0 0 545.09 436.08"><defs><style>.cls-1,.cls-2{fill:#fff;}.cls-1{stroke:#fff;stroke-linejoin:round;}</style></defs><title>code_barre</title><rect class="cls-1" x="109.86" y="111.6" width="51" height="215" rx="8.5" ry="8.5"/><rect class="cls-1" x="302.62" y="111.6" width="51" height="215" rx="8.5" ry="8.5"/><rect class="cls-1" x="381.99" y="111.6" width="51" height="215" rx="8.5" ry="8.5"/><rect class="cls-1" x="190.86" y="111.6" width="24" height="215" rx="8.5" ry="8.5"/><rect class="cls-1" x="245.57" y="111.6" width="24" height="215" rx="8.5" ry="8.5"/><path class="cls-2" d="M819.73,136.4a8.53,8.53,0,0,1,8.5,8.5V482a8.53,8.53,0,0,1-8.5,8.5H373.64a8.53,8.53,0,0,1-8.5-8.5V144.91a8.53,8.53,0,0,1,8.5-8.5H819.73m0-41H373.64a49.56,49.56,0,0,0-49.5,49.5V482a49.56,49.56,0,0,0,49.5,49.5H819.73a49.56,49.56,0,0,0,49.5-49.5V144.91a49.56,49.56,0,0,0-49.5-49.5Z" transform="translate(-324.14 -95.4)"/></svg>