<svg width="104" height="149" viewBox="0 0 104 149" fill="none" xmlns="http://www.w3.org/2000/svg">
<path d="M8.24126 0.666742C8.09555 0.180814 7.6024 -0.113002 7.10925 0.0452067L0.698293 1.98892C0.205142 2.13583 -0.0638492 2.65565 0.0818544 3.15288L0.821581 5.60512L8.98098 3.11898L8.24126 0.666742Z" fill="#334B63"/>
<path d="M20.9061 31.1446L18.6197 23.5166C19.3482 21.2226 18.6309 18.7591 17.8239 16.0582C16.4454 11.4588 12.9485 8.22685 9.29468 7.63922L8.02818 3.41278L1.80775 5.31129L3.07426 9.53773C0.350719 12.0691 -0.792495 16.7136 0.586086 21.313C1.40427 24.0251 2.07675 26.5339 3.94848 28.0369L6.20128 35.5744C4.86753 38.5352 5.50639 42.0723 6.63839 45.8806C7.5014 48.7396 9.01448 51.1693 10.875 52.9209C11.3121 53.0113 11.8053 53.0113 12.3545 52.8644C15.078 52.1524 14.0469 49.5646 13.8563 49.1352C14.0805 49.6098 15.9634 53.5763 19.337 52.548C22.7218 51.5196 22.1054 47.135 22.0381 46.6377C22.1054 47.0898 22.6658 49.8471 25.3445 48.9205C25.8825 48.7283 26.3084 48.4571 26.6222 48.1181C27.205 45.6207 27.1378 42.7616 26.2748 39.9025C25.1427 36.1281 23.6409 32.8735 20.9061 31.1446Z" fill="#9AB3C1"/>
<path d="M16.2549 23.0646C16.1428 23.0646 16.0195 23.0194 15.9411 22.929C15.7618 22.7482 15.7618 22.4657 15.9411 22.2849C16.6696 21.5503 16.1652 18.5556 14.7194 15.0072C13.6883 12.4759 10.3931 11.1311 10.3595 11.1198C10.1241 11.0294 10.0121 10.7582 10.1017 10.5322C10.1914 10.2949 10.4604 10.1819 10.6845 10.2723C10.8303 10.3288 14.372 11.764 15.5488 14.6569C15.9299 15.6062 16.636 17.4595 16.9722 19.245C17.3309 21.0983 17.1964 22.2962 16.5687 22.929C16.4903 23.0307 16.3782 23.0646 16.2549 23.0646Z" fill="white"/>
<path d="M55.427 33.5322L42.8256 38.2242L50.0113 17.0428L62.6127 12.3509L55.427 33.5322Z" fill="#685918"/>
<path d="M62.5994 12.3953L55.4226 33.5402L84.7799 43.6841L91.9567 22.5393L62.5994 12.3953Z" fill="#635311"/>
<path d="M50.0092 17.05L42.8201 38.2314L72.2951 48.416L79.4843 27.2347L50.0092 17.05Z" fill="#897619"/>
<path d="M84.7729 43.6788L72.2959 48.4093L79.4912 27.228L91.9682 22.4878L84.7729 43.6788Z" fill="#776415"/>
<path d="M101.871 14.1562L72.468 4L62.5745 12.3895L91.9777 22.5554L101.871 14.1562Z" fill="#776415"/>
<path d="M45.8109 9.20362L58.3453 4.48271L62.5936 12.3412L50.0592 17.0525L45.8109 9.20362Z" fill="#897619"/>
<path d="M79.4624 27.2184L91.9968 22.4975L102.522 23.6946L89.9875 28.4058L79.4624 27.2184Z" fill="#897619"/>
<path d="M67.4064 27.9328L38.0032 17.7766L50.0592 17.0621L79.4624 27.228L67.4064 27.9328Z" fill="#776415"/>
<path d="M87.799 49.0128L66.1365 39.1559C65.084 38.9242 64.5099 39.1945 64.0315 39.9379L77.915 8.87065C78.3169 7.97281 79.2833 7.55767 80.087 7.92453L101.759 17.7718L87.799 49.0128Z" fill="#BCBBBB"/>
<path d="M88.4688 50.5478L66.3182 40.4688C65.2562 40.1985 64.6438 40.4688 64.1941 41.2315L78.0776 10.1643C78.4795 9.26646 79.4459 8.86098 80.3358 9.08303L102.486 19.162L88.4688 50.5478Z" fill="#CCCCCC"/>
<path d="M89.043 51.7546L66.8829 41.6756C65.8112 41.4343 65.926 40.0923 65.4476 40.8454L78.6231 11.3711C79.025 10.4733 80.0201 10.0678 80.843 10.4443L103.003 20.5136L89.043 51.7546Z" fill="#E0DFDE"/>
<path d="M102.793 21.759L78.9389 10.9077C77.9725 10.2222 77.7428 9.56574 77.9916 8.71617L64.1081 39.7834C63.7062 40.6812 64.0985 41.7432 64.9788 42.139L88.8324 52.9903L102.793 21.759Z" fill="#EFEFED"/>
<path d="M93.676 20.7402L81.844 47.213L87.4612 49.7689L99.2933 23.2961L93.676 20.7402Z" fill="#4385B5"/>
<path d="M96.5062 26.4123L96.2 27.0881C96.0086 27.5225 95.8555 27.8122 95.7407 27.9473C95.6354 28.0825 95.5111 28.1694 95.3867 28.208C95.2623 28.2466 95.1379 28.2466 95.0135 28.2176C94.8891 28.1887 94.669 28.1018 94.3437 27.9473L93.1381 27.397C92.8319 27.2522 92.631 27.146 92.5353 27.0688C92.4396 26.9916 92.3822 26.9047 92.3631 26.8081C92.3344 26.7116 92.3344 26.5958 92.3631 26.4799C92.3918 26.3641 92.4492 26.1903 92.5449 25.9779L93.052 24.8387L96.5062 26.4123ZM95.5111 27.0495L93.2434 26.0165C93.186 26.1517 93.1764 26.2385 93.2147 26.2965C93.2529 26.3544 93.3869 26.4316 93.6165 26.5378L94.9561 27.146C95.1092 27.2136 95.2144 27.2619 95.2623 27.2715C95.3101 27.2812 95.358 27.2715 95.3867 27.2426C95.4249 27.2136 95.4632 27.1557 95.5111 27.0495Z" fill="#0E3049"/>
<path d="M94.717 30.4188L91.0332 29.3665L91.4446 28.4397L92.0857 28.6714L92.2292 28.3432L91.636 28.0053L92.057 27.0688L95.3006 29.0962L94.717 30.4188ZM92.7172 28.9224C93.1286 29.0576 93.6358 29.2314 94.229 29.4438C93.6071 29.0479 93.1574 28.7776 92.8607 28.6135L92.7172 28.9224Z" fill="#0E3049"/>
<path d="M94.009 31.9925L90.5645 30.4188L90.9663 29.5113L94.4109 31.085L94.009 31.9925Z" fill="#0E3049"/>
<path d="M93.4444 33.2572L90.6888 32.0021L90.44 32.5524L89.7511 32.2338L90.4017 30.776L93.8463 32.3497L93.4444 33.2572Z" fill="#0E3049"/>
<path d="M92.3632 35.6707L90.4591 34.0102L89.2152 33.4406L89.5884 32.6007L90.8322 33.1703L93.32 33.5371L92.9468 34.3674C92.2196 34.1936 91.7317 34.0585 91.4925 33.9716C91.8369 34.1936 92.2579 34.4832 92.7363 34.8405L92.3632 35.6707Z" fill="#0E3049"/>
<path d="M91.0522 38.6249L87.6077 37.0513L87.9617 36.2596L89.7414 36.501L88.1722 35.7866L88.5071 35.0335L91.9517 36.6072L91.6168 37.3602L89.8371 37.1575L91.3871 37.8622L91.0522 38.6249Z" fill="#0E3049"/>
<path d="M90.8896 38.9821L90.2199 40.4882L89.5309 40.1696L89.7989 39.5614L89.1482 39.2621L88.8994 39.8317L88.2392 39.5324L88.488 38.9628L87.7321 38.6152L87.4355 39.2814L86.7466 38.9628L87.4451 37.3892L90.8896 38.9821Z" fill="#0E3049"/>
<path d="M88.5453 44.2243L85.2729 42.2549L85.7801 41.1253C86.3542 41.2605 86.9952 41.4439 87.7129 41.6756C87.4354 41.5115 86.8708 41.1447 86.0193 40.604L86.5168 39.4841L90.1432 40.6523L89.7509 41.5308L88.507 41.0771L87.3014 40.6426C87.8851 40.9516 88.641 41.3957 89.5595 41.9653L89.1385 42.9017C89.0333 42.8728 88.641 42.7279 87.9521 42.4866L86.5934 41.9942C87.4067 42.4287 88.1817 42.8824 88.928 43.3651L88.5453 44.2243Z" fill="#0E3049"/>
<path d="M86.5648 45.8463L86.9379 45.0063L87.1963 45.1222C87.3111 45.1801 87.3972 45.1994 87.4355 45.1898C87.4737 45.1801 87.512 45.1512 87.5312 45.1029C87.5599 45.045 87.5503 44.9967 87.5216 44.9484C87.4929 44.9001 87.4259 44.8519 87.3398 44.8133C87.225 44.765 87.1293 44.736 87.0623 44.7457C86.9953 44.7457 86.8805 44.8036 86.737 44.9098C86.316 45.2091 86.0098 45.3732 85.8089 45.4022C85.6079 45.4408 85.34 45.3829 85.0051 45.2284C84.7564 45.1125 84.5937 45.0063 84.498 44.8905C84.4119 44.7746 84.3641 44.6202 84.3545 44.4174C84.3545 44.2147 84.3928 44.0023 84.498 43.7803C84.6033 43.5389 84.7468 43.3555 84.9095 43.2203C85.0721 43.0948 85.2443 43.0272 85.407 43.0465C85.5697 43.0562 85.7802 43.1238 86.0385 43.2396L86.2681 43.3458L85.895 44.1857L85.474 43.9926C85.34 43.9347 85.2539 43.9058 85.2061 43.9154C85.1582 43.9251 85.12 43.954 85.0912 44.012C85.0625 44.0699 85.0721 44.1278 85.1008 44.1761C85.1391 44.2243 85.1965 44.2726 85.2922 44.3112C85.4931 44.4078 85.6366 44.4367 85.7323 44.4078C85.8184 44.3788 85.9907 44.2823 86.2394 44.1278C86.4882 43.9733 86.6604 43.8671 86.7657 43.8285C86.8614 43.7899 86.9858 43.7706 87.1197 43.7706C87.2632 43.7803 87.4163 43.8189 87.6077 43.9058C87.8756 44.0216 88.0478 44.1471 88.1435 44.2726C88.2392 44.3981 88.2775 44.5526 88.287 44.736C88.287 44.9195 88.2392 45.1222 88.1435 45.3346C88.0383 45.5663 87.9139 45.7497 87.7608 45.8849C87.6077 46.02 87.4642 46.078 87.3302 46.0876C87.1963 46.0876 86.9858 46.0297 86.7083 45.9042L86.5648 45.8463Z" fill="#0E3049"/>
<path d="M82.0271 15.4424L76.6854 27.3938L85.3991 31.3587L90.7408 19.4073L82.0271 15.4424Z" fill="#E54833"/>
<path d="M84.0989 32.6357L78.3009 45.608L78.9115 45.8858L84.7095 32.9135L84.0989 32.6357Z" fill="#AFAEAE"/>
<path d="M82.86 32.0704L77.062 45.0428L77.6726 45.3206L83.4706 32.3482L82.86 32.0704Z" fill="#AFAEAE"/>
<path d="M81.6984 31.5411L75.9004 44.5134L76.511 44.7912L82.309 31.8189L81.6984 31.5411Z" fill="#AFAEAE"/>
<path d="M80.3393 30.9201L74.5413 43.8924L75.1518 44.1702L80.9498 31.1979L80.3393 30.9201Z" fill="#AFAEAE"/>
<path d="M79.0662 30.3389L73.2682 43.3112L73.8788 43.5891L79.6768 30.6167L79.0662 30.3389Z" fill="#AFAEAE"/>
<path d="M77.7633 29.7545L71.9653 42.7269L72.5759 43.0047L78.3739 30.0323L77.7633 29.7545Z" fill="#AFAEAE"/>
<path d="M76.5758 29.2133L70.7778 42.1857L71.3884 42.4635L77.1864 29.4911L76.5758 29.2133Z" fill="#AFAEAE"/>
<path d="M75.2449 28.5999L69.4469 41.5722L70.0226 41.8341L75.8206 28.8618L75.2449 28.5999Z" fill="#AFAEAE"/>
<path d="M79.9694 14.5097L68.1375 40.9825L68.748 41.2603L80.58 14.7876L79.9694 14.5097Z" fill="#AFAEAE"/>
<path d="M78.6963 13.9286L66.8643 40.4013L67.4748 40.6791L79.3069 14.2064L78.6963 13.9286Z" fill="#AFAEAE"/>
<path d="M77.3374 13.3075L65.5054 39.7803L66.1159 40.0581L77.9479 13.5854L77.3374 13.3075Z" fill="#AFAEAE"/>
<path d="M40.69 27.6114L18.5499 19.227L10.0642 41.7588C10.0642 41.769 10.0642 41.769 10.054 41.7792C9.47405 43.3092 13.9713 46.4202 20.0863 48.7356C26.2013 51.051 31.6244 51.6936 32.1942 50.1636C32.1942 50.1534 32.1942 50.1534 32.2043 50.1432L40.69 27.6114Z" fill="#9B943D"/>
<path d="M40.661 27.6997C41.2369 26.1714 36.7476 23.0556 30.6339 20.7403C24.5201 18.425 19.0971 17.787 18.5212 19.3153C17.9453 20.8435 22.4346 23.9594 28.5483 26.2747C34.6621 28.59 40.0851 29.228 40.661 27.6997Z" fill="#557489"/>
<path d="M25.4077 34.5984C22.4367 33.4764 19.7506 32.1198 17.8377 30.804C16.4336 29.835 14.8566 28.4478 15.2534 27.3768C15.2941 27.2748 15.4162 27.2136 15.5179 27.2544C15.6197 27.2952 15.6807 27.4176 15.64 27.5196C15.406 28.1418 16.3115 29.2434 18.0718 30.4572C19.9541 31.7628 22.6097 33.099 25.5502 34.2108C28.4907 35.3226 31.3599 36.0876 33.6391 36.3528C35.7656 36.6078 37.1697 36.3834 37.4037 35.7612C37.4444 35.6592 37.5665 35.598 37.6682 35.6388C37.77 35.6796 37.831 35.802 37.7903 35.904C37.3833 36.975 35.2874 36.9648 33.5984 36.7608C31.2887 36.4956 28.3787 35.7204 25.4077 34.5984Z" fill="#877F36"/>
<path d="M24.787 36.2508C21.816 35.1288 19.1299 33.7722 17.217 32.4564C15.8129 31.4874 14.2358 30.1002 14.6326 29.0292C14.6733 28.9272 14.7954 28.866 14.8972 28.9068C14.9989 28.9476 15.06 29.07 15.0193 29.172C14.7853 29.7942 15.6908 30.8958 17.451 32.1096C19.3334 33.4152 21.989 34.7514 24.9294 35.8632C27.8699 36.975 30.7392 37.74 33.0183 38.0052C35.1448 38.2602 36.549 38.0358 36.783 37.4136C36.8237 37.3116 36.9458 37.2504 37.0475 37.2912C37.1493 37.332 37.2103 37.4544 37.1696 37.5564C36.7626 38.6274 34.6666 38.6172 32.9776 38.4132C30.668 38.148 27.758 37.383 24.787 36.2508Z" fill="#877F36"/>
<path d="M24.146 37.9542C21.175 36.8322 18.4889 35.4756 16.576 34.1598C15.1719 33.1908 13.5948 31.8036 13.9917 30.7326C14.0324 30.6306 14.1544 30.5694 14.2562 30.6102C14.3579 30.651 14.419 30.7734 14.3783 30.8754C14.1443 31.4976 15.0498 32.5992 16.81 33.813C18.6924 35.1186 21.348 36.4548 24.2884 37.5666C27.2289 38.6784 30.0982 39.4434 32.3773 39.7086C34.5038 39.9636 35.908 39.7392 36.142 39.117C36.1827 39.015 36.3048 38.9538 36.4065 38.9946C36.5083 39.0354 36.5693 39.1578 36.5286 39.2598C36.1216 40.3308 34.0256 40.3206 32.3366 40.1166C30.027 39.8412 27.117 39.0762 24.146 37.9542Z" fill="#877F36"/>
<path d="M23.4745 39.7188C20.5035 38.5968 17.8174 37.2402 15.9045 35.9244C14.5004 34.9554 12.9233 33.5682 13.3201 32.4972C13.3608 32.3952 13.4829 32.334 13.5847 32.3748C13.6864 32.4156 13.7475 32.538 13.7068 32.64C13.4728 33.2622 14.3783 34.3638 16.1385 35.5776C18.0209 36.8832 20.6765 38.2194 23.6169 39.3312C26.5574 40.443 29.4267 41.208 31.7058 41.4732C33.8323 41.7282 35.2364 41.5038 35.4705 40.8816C35.5112 40.7796 35.6333 40.7184 35.735 40.7592C35.8367 40.8 35.8978 40.9224 35.8571 41.0244C35.4501 42.0954 33.3541 42.0852 31.6651 41.8812C29.3555 41.616 26.4455 40.851 23.4745 39.7188Z" fill="#877F36"/>
<path d="M22.8539 41.3814C19.8829 40.2594 17.1968 38.9028 15.2839 37.587C13.8798 36.618 12.3027 35.2308 12.6995 34.1598C12.7402 34.0578 12.8623 33.9966 12.9641 34.0374C13.0658 34.0782 13.1269 34.2006 13.0862 34.3026C12.8522 34.9248 13.7577 36.0264 15.5179 37.2402C17.4002 38.5458 20.0558 39.882 22.9963 40.9938C25.9368 42.1056 28.8061 42.8706 31.0852 43.1358C33.2117 43.3908 34.6158 43.1664 34.8498 42.5442C34.8905 42.4422 35.0126 42.381 35.1144 42.4218C35.2161 42.4626 35.2772 42.585 35.2365 42.687C34.8295 43.758 32.7335 43.7478 31.0445 43.5438C28.7349 43.2786 25.8249 42.5034 22.8539 41.3814Z" fill="#877F36"/>
<path d="M22.2129 43.0746C19.2419 41.9526 16.5558 40.596 14.6429 39.2802C13.2388 38.3112 11.6617 36.924 12.0585 35.853C12.0992 35.751 12.2213 35.6898 12.3231 35.7306C12.4248 35.7714 12.4859 35.8938 12.4452 35.9958C12.2112 36.618 13.1167 37.7196 14.8769 38.9334C16.7593 40.239 19.4149 41.5752 22.3553 42.687C25.2958 43.7988 28.1651 44.5638 30.4442 44.829C32.5707 45.084 33.9748 44.8596 34.2089 44.2374C34.2496 44.1354 34.3717 44.0742 34.4734 44.115C34.5752 44.1558 34.6362 44.2782 34.5955 44.3802C34.1885 45.4512 32.0925 45.441 30.4035 45.237C28.0939 44.9718 25.1839 44.1966 22.2129 43.0746Z" fill="#877F36"/>
<path d="M39.1222 27.5142C39.6246 26.1809 35.7064 23.462 30.3707 21.4413C25.0349 19.4206 20.3022 18.8634 19.7997 20.1967C19.2973 21.53 23.2155 24.2489 28.5512 26.2696C33.887 28.2903 38.6197 28.8475 39.1222 27.5142Z" fill="#3C525E"/>
<path d="M42.3281 13.872C42.3281 13.872 41.8702 13.2192 42.0534 12.5154C42.2365 11.8116 42.7961 11.577 42.7961 11.577C42.7961 11.577 42.2874 11.016 42.3281 10.2918C42.3688 9.5676 42.9284 9.1494 42.9284 9.1494C42.9284 9.1494 42.2365 8.5782 42.1348 7.9764C42.033 7.3746 42.5011 6.7728 42.5011 6.7728C42.5011 6.7728 41.7481 6.5484 41.5548 6.0384C41.3615 5.5284 41.7481 5.049 41.7481 5.049C41.7481 5.049 40.751 4.4982 40.4763 4.1004C40.2016 3.7026 40.6696 2.9478 40.4865 3.1212C40.3135 3.2844 39.6521 3.0498 39.1943 2.6724C39.1739 2.652 39.1536 2.6316 39.1332 2.6112C39.1231 2.601 39.1231 2.601 39.1129 2.5908C38.655 2.1726 38.8789 1.6116 38.8789 1.6116C38.8789 1.6116 38.0751 1.8258 37.5358 1.4586C37.0067 1.0914 37.0169 0.561 37.0169 0.561C36.5896 0.9588 35.7654 0.7956 35.7654 0.7956L35.1346 0.2244C34.0764 1.173 33.5778 0 33.5778 0C33.5778 0 33.3031 0.3774 32.886 0.6426C32.4993 0.6732 32.1229 0.7344 31.7464 0.816C31.3598 0.6936 31.2071 0.3978 31.2071 0.3978C31.1766 0.6732 30.8917 0.9282 30.5865 1.1628C30.1999 1.3056 29.8234 1.4688 29.4571 1.6524C29.0705 1.5708 28.6838 1.3056 28.6838 1.3056C28.7245 1.785 27.88 2.5194 27.3916 3.0702C27.3102 3.1416 27.239 3.213 27.1576 3.2844C26.6692 3.5802 25.9977 3.1824 25.9977 3.1824C25.9977 3.1824 26.191 3.9066 25.784 4.845C25.6721 5.0082 25.5602 5.1714 25.4483 5.3346C24.8887 5.916 24.0136 6.1608 24.0136 6.1608C24.0136 6.1608 24.6038 6.9054 24.2884 7.701C23.9729 8.4966 23.1691 9.0168 23.1691 9.0168C23.1691 9.0168 23.6067 9.6186 23.6372 10.3632C23.6677 11.1078 23.0063 12.036 23.0063 12.036C23.0063 12.036 23.6372 12.4848 23.7796 13.1784C23.7796 13.1886 23.7898 13.209 23.7898 13.2192C23.7898 13.2294 23.7898 13.2396 23.8 13.26C23.9017 14.0046 23.4032 14.8308 23.4032 14.8308C23.4032 14.8308 24.2273 14.9226 24.5224 15.657C24.8174 16.3914 24.3698 16.932 24.3698 16.932C24.7259 16.8606 25.3262 17.187 25.7332 17.6664C25.7535 17.697 25.7739 17.7174 25.8044 17.748C25.8044 17.7582 25.8146 17.7582 25.8146 17.7684C26.2215 18.309 26.2215 18.9312 26.2215 18.9312C26.2215 18.9312 26.7099 18.7884 27.2899 19.1964C27.3204 19.2168 27.3509 19.2474 27.3916 19.2678L27.4018 19.278C28.0225 19.7778 27.8393 20.0226 27.8393 20.0226L32.1941 21.5526C32.306 21.165 33.4659 20.8896 33.4659 20.8896C33.5066 20.859 33.5473 20.8284 33.5778 20.808C33.6898 20.7876 33.8119 20.7774 33.9238 20.7468C34.3003 20.7978 34.6462 21.1344 34.6462 21.1344C34.6462 21.1344 34.7174 20.6346 35.4398 20.3286C35.4907 20.3082 35.5416 20.2878 35.5924 20.2674C35.6026 20.2674 35.6026 20.2674 35.6128 20.2572C36.498 19.9614 36.9457 20.3082 36.9457 20.3082C36.9457 20.3082 36.9151 19.6962 37.546 19.2372C37.5765 19.2168 37.5969 19.1964 37.6274 19.176C37.6376 19.1658 37.6477 19.1658 37.6477 19.1556C38.3803 18.6864 38.8789 18.819 38.8789 18.819C38.8789 18.819 39.1027 18.0132 39.6216 17.3706C39.6521 17.3298 39.6827 17.2992 39.7234 17.2584L39.7335 17.2482C40.3338 16.5852 41.0257 16.3914 41.0257 16.3914C41.0257 16.3914 40.9341 15.4632 41.3208 14.7696C41.7074 14.0556 42.3281 13.872 42.3281 13.872Z" fill="#6786A0"/>
<path d="M29.7114 19.227C27.6256 18.4314 25.9977 16.7892 25.143 14.586C24.2883 12.3828 24.2985 9.88381 25.1735 7.55821C26.0485 5.23261 27.6867 3.35581 29.7827 2.26441C31.8786 1.18321 34.1883 1.02001 36.2741 1.80541C38.3599 2.60101 39.9879 4.24321 40.8426 6.44641C41.6972 8.64961 41.6871 11.1486 40.812 13.4742C39.937 15.7998 38.2989 17.6766 36.2029 18.768C34.0967 19.8594 31.7972 20.0226 29.7114 19.227ZM35.979 2.58061C32.0516 1.09141 27.5137 3.43741 25.8654 7.82341C24.2171 12.1992 26.0689 16.9728 29.9963 18.462C33.9238 19.9512 38.4617 17.6052 40.11 13.2192C41.7685 8.84341 39.9065 4.06981 35.979 2.58061Z" fill="#557489"/>
<path fill-rule="evenodd" clip-rule="evenodd" d="M34.1669 37.0036C32.3863 32.7094 30.9517 29.2312 38.7048 26.008L47.7196 22.2544C53.1122 20.0104 55.0454 23.2846 56.8259 27.5788L56.8361 27.5992C58.6167 31.8934 59.5121 35.596 54.1602 37.8196L45.1454 41.5732C37.3923 44.7964 35.9475 41.3182 34.1771 37.024L34.1669 37.0036Z" fill="#C4110C"/>
<path d="M57.7437 35.0362C59.358 34.3651 59.4311 30.8344 57.9069 27.1504C56.3828 23.4663 53.8386 21.0239 52.2243 21.6951C50.61 22.3662 50.537 25.8969 52.0611 29.5809C53.5853 33.265 56.1295 35.7074 57.7437 35.0362Z" fill="#7183B5"/>
<path d="M57.4043 34.0932C58.8006 33.5127 58.8627 30.4563 57.5431 27.2666C56.2234 24.0768 54.0217 21.9616 52.6255 22.5422C51.2292 23.1227 51.1671 26.1791 52.4867 29.3689C53.8064 32.5586 56.0081 34.6738 57.4043 34.0932Z" fill="#5C6F9B"/>
<path fill-rule="evenodd" clip-rule="evenodd" d="M55.2692 30.904C55.0861 30.4552 55.3099 29.9146 55.8288 29.7004L55.8492 29.6902C56.3681 29.476 56.948 29.68 57.1312 30.1288L58.1893 32.689C58.3725 33.1378 58.0977 33.6682 57.5788 33.8926L57.5585 33.9028C57.0396 34.117 56.5003 33.913 56.3172 33.4744L55.2692 30.904Z" fill="#444343"/>
<path d="M44.6976 40.4614C44.6976 40.4614 44.6162 40.441 44.4738 40.39C44.4026 40.3594 44.311 40.3288 44.2194 40.288C44.1177 40.2472 44.0058 40.186 43.8837 40.1146C43.7616 40.0432 43.6293 39.9616 43.4869 39.8596C43.4156 39.8086 43.3444 39.7576 43.2732 39.6964C43.202 39.6352 43.1307 39.574 43.0493 39.5026C42.7543 39.2272 42.4389 38.8804 42.154 38.4316C41.8793 37.9828 41.6452 37.4422 41.513 36.82C41.3807 36.1978 41.3502 35.5144 41.4519 34.8208C41.5537 34.1374 41.7775 33.454 42.0828 32.8318C42.388 32.2096 42.7645 31.6282 43.1918 31.1182C43.3749 30.904 43.5479 30.6898 43.731 30.4756C43.7921 30.394 43.8531 30.3124 43.9244 30.2308C43.9854 30.1492 44.0465 30.0472 44.1177 29.9656C44.3721 29.6086 44.5755 29.2618 44.718 28.9252C44.7892 28.762 44.8401 28.5988 44.891 28.4356C44.9113 28.3948 44.9113 28.354 44.9215 28.3132C44.9317 28.2724 44.9418 28.2316 44.952 28.1908C44.952 28.15 44.9622 28.1092 44.9622 28.0684C44.9622 28.0276 44.9724 27.9868 44.9724 27.946C44.9927 27.6196 44.9622 27.2728 44.8706 26.9362C44.779 26.5996 44.6366 26.263 44.484 25.9774C44.3314 25.6816 44.1787 25.4164 44.0363 25.2022C44.0058 25.1512 43.9651 25.1002 43.9345 25.0492C43.904 24.9982 43.8735 24.9574 43.843 24.9166C43.7819 24.835 43.731 24.7636 43.6903 24.7024C43.5988 24.58 43.5581 24.5188 43.5581 24.5188C43.5581 24.5188 43.6395 24.5188 43.7921 24.529C43.8633 24.5392 43.9651 24.5494 44.0668 24.5698C44.1787 24.5902 44.3008 24.6208 44.4331 24.6514C44.7078 24.7228 45.0334 24.8452 45.3895 25.039C45.7456 25.2328 46.1424 25.498 46.5189 25.8958C46.8954 26.2936 47.2413 26.8138 47.4652 27.4768C47.689 28.1296 47.7399 28.8844 47.6279 29.6188C47.516 30.3532 47.2617 31.0366 46.9259 31.6588C46.8852 31.7404 46.8445 31.8118 46.7936 31.8832C46.7529 31.9546 46.7122 32.0362 46.6614 32.1076C46.5596 32.2606 46.4579 32.4136 46.3459 32.5666L46.3052 32.6278L46.2747 32.6686L46.2137 32.7502C46.173 32.8114 46.1221 32.8624 46.0814 32.9236L45.7965 33.2704C45.4811 33.6478 45.1962 34.0252 44.9622 34.4026C44.718 34.78 44.5247 35.1472 44.3721 35.5246C44.2194 35.8918 44.1177 36.259 44.0566 36.6364C43.9956 37.0138 43.9854 37.3912 44.0058 37.7584C44.0363 38.1256 44.0973 38.4826 44.1686 38.809C44.2398 39.1354 44.3314 39.421 44.4229 39.6658C44.4433 39.727 44.4636 39.7882 44.484 39.8392C44.5043 39.8902 44.5247 39.9514 44.545 39.9922C44.5857 40.0942 44.6162 40.1758 44.6468 40.237C44.6569 40.39 44.6976 40.4614 44.6976 40.4614Z" fill="#B7B3B3"/>
<path d="M43.7061 74.5675L36.4814 85.5005L31.3026 82.4955L39.3585 69.3249L43.7061 74.5675Z" fill="url(#paint0_linear)"/>
<path d="M39.3584 69.3249H46.1356L52.4651 79.8742L47.4143 83.071L39.3584 69.3249Z" fill="url(#paint1_linear)"/>
<path d="M56.557 77.3168L43.1306 85.5005L54.7669 88.8252L56.557 77.3168Z" fill="url(#paint2_linear)"/>
<path d="M59.8817 104.873L53.9996 93.1728L59.1784 90.1678L66.5949 103.722L59.8817 104.873Z" fill="url(#paint3_linear)"/>
<path d="M66.5947 103.722L63.2062 109.604L50.9306 109.86L50.7388 103.85L66.5947 103.722Z" fill="url(#paint4_linear)"/>
<path d="M51.1225 114.655L50.7389 98.9269L42.0437 107.366L51.1225 114.655Z" fill="url(#paint5_linear)"/>
<path d="M25.2926 103.914L38.3993 104.809L38.2714 110.819L22.863 110.243L25.2926 103.914Z" fill="url(#paint6_linear)"/>
<path d="M22.863 110.243L19.5383 104.361L25.6122 93.6203L30.8549 96.4974L22.863 110.243Z" fill="url(#paint7_linear)"/>
<path d="M21.3287 91.3186L35.0748 99.0548L32.2617 87.2907L21.3287 91.3186Z" fill="url(#paint8_linear)"/>
<path d="M18.0917 47.5493L27.8367 139.105C28.3864 144.475 31.9845 148.503 36.2323 148.503H77.3611C81.559 148.503 85.1571 144.539 85.7568 139.233L96.2015 48.0608L18.0917 47.5493Z" fill="url(#paint9_linear)"/>
<path d="M3.79895 47.5493L13.5439 139.105C14.0936 144.475 17.6918 148.503 21.9396 148.503H63.0684C67.2663 148.503 70.8644 144.539 71.4641 139.233L81.9087 48.0608L3.79895 47.5493Z" fill="url(#paint10_linear)"/>
<path d="M20.8402 48.3805H96.1014C98.5501 48.3805 100.549 45.8231 100.549 42.6902C100.549 39.5574 98.5501 37 96.1014 37H20.8402C18.3914 37 16.3925 39.5574 16.3925 42.6902C16.3925 45.8231 18.3914 48.3805 20.8402 48.3805Z" fill="url(#paint11_linear)"/>
<path d="M4.44862 48.3805H80.9592C83.408 48.3805 85.4069 45.8231 85.4069 42.6902C85.4069 39.5574 83.408 37 80.9592 37H4.44862C1.99988 37 0.000916994 39.5574 0.000916994 42.6902C-0.0490573 45.8231 1.94991 48.3805 4.44862 48.3805Z" fill="url(#paint12_linear)"/>
<path d="M43.7029 75.5675L36.4782 86.5005L31.2994 83.4955L39.3553 70.3249L43.7029 75.5675Z" fill="url(#paint13_linear)"/>
<path d="M39.3552 70.3249H46.1324L52.462 80.8742L47.4111 84.071L39.3552 70.3249Z" fill="url(#paint14_linear)"/>
<path d="M56.5539 78.3168L43.1274 86.5005L54.7637 89.8252L56.5539 78.3168Z" fill="url(#paint15_linear)"/>
<path d="M59.8785 105.873L53.9965 94.1728L59.1752 91.1678L66.5917 104.722L59.8785 105.873Z" fill="url(#paint16_linear)"/>
<path d="M66.5916 104.722L63.203 110.604L50.9274 110.86L50.7356 104.85L66.5916 104.722Z" fill="url(#paint17_linear)"/>
<path d="M51.1193 115.655L50.7357 99.9269L42.0405 108.366L51.1193 115.655Z" fill="url(#paint18_linear)"/>
<path d="M25.2894 104.914L38.3961 105.809L38.2683 111.819L22.8599 111.243L25.2894 104.914Z" fill="url(#paint19_linear)"/>
<path d="M22.8598 111.243L19.5352 105.361L25.609 94.6203L30.8517 97.4974L22.8598 111.243Z" fill="url(#paint20_linear)"/>
<path d="M21.3256 92.3186L35.0717 100.055L32.2585 88.2907L21.3256 92.3186Z" fill="url(#paint21_linear)"/>
<defs>
<linearGradient id="paint0_linear" x1="31.3009" y1="77.44" x2="43.6987" y2="77.44" gradientUnits="userSpaceOnUse">
<stop stop-color="white"/>
<stop offset="1" stop-color="#AFAFAF"/>
</linearGradient>
<linearGradient id="paint1_linear" x1="43.0041" y1="69.0778" x2="53.7687" y2="89.4933" gradientUnits="userSpaceOnUse">
<stop stop-color="white"/>
<stop offset="1" stop-color="#AFAFAF"/>
</linearGradient>
<linearGradient id="paint2_linear" x1="43.288" y1="68.9281" x2="54.0525" y2="89.3437" gradientUnits="userSpaceOnUse">
<stop stop-color="white"/>
<stop offset="1" stop-color="#AFAFAF"/>
</linearGradient>
<linearGradient id="paint3_linear" x1="63.6147" y1="92.6914" x2="57.4281" y2="103.436" gradientUnits="userSpaceOnUse">
<stop stop-color="white"/>
<stop offset="1" stop-color="#AFAFAF"/>
</linearGradient>
<linearGradient id="paint4_linear" x1="65.0211" y1="107.006" x2="41.9575" y2="106.147" gradientUnits="userSpaceOnUse">
<stop stop-color="white"/>
<stop offset="1" stop-color="#AFAFAF"/>
</linearGradient>
<linearGradient id="paint5_linear" x1="65.0084" y1="107.327" x2="41.9455" y2="106.468" gradientUnits="userSpaceOnUse">
<stop stop-color="white"/>
<stop offset="1" stop-color="#AFAFAF"/>
</linearGradient>
<linearGradient id="paint6_linear" x1="33.8575" y1="113.313" x2="27.7863" y2="102.503" gradientUnits="userSpaceOnUse">
<stop stop-color="white"/>
<stop offset="1" stop-color="#AFAFAF"/>
</linearGradient>
<linearGradient id="paint7_linear" x1="20.8356" y1="107.204" x2="33.3643" y2="87.8208" gradientUnits="userSpaceOnUse">
<stop stop-color="white"/>
<stop offset="1" stop-color="#AFAFAF"/>
</linearGradient>
<linearGradient id="paint8_linear" x1="20.5662" y1="107.03" x2="33.095" y2="87.6467" gradientUnits="userSpaceOnUse">
<stop stop-color="white"/>
<stop offset="1" stop-color="#AFAFAF"/>
</linearGradient>
<linearGradient id="paint9_linear" x1="86.9459" y1="141.935" x2="49.9903" y2="99.067" gradientUnits="userSpaceOnUse">
<stop stop-color="#ECE17D"/>
<stop offset="1" stop-color="#575833"/>
</linearGradient>
<linearGradient id="paint10_linear" x1="42.88" y1="148.509" x2="42.88" y2="41.0424" gradientUnits="userSpaceOnUse">
<stop stop-color="#ECE17D"/>
<stop offset="1" stop-color="#575833"/>
</linearGradient>
<linearGradient id="paint11_linear" x1="107.658" y1="42.056" x2="87.5007" y2="42.2061" gradientUnits="userSpaceOnUse">
<stop stop-color="#ECE17D"/>
<stop offset="1" stop-color="#575833"/>
</linearGradient>
<linearGradient id="paint12_linear" x1="3.46038" y1="41.4839" x2="118.667" y2="43.5851" gradientUnits="userSpaceOnUse">
<stop stop-color="#ECE17D"/>
<stop offset="1" stop-color="#575833"/>
</linearGradient>
<linearGradient id="paint13_linear" x1="31.2978" y1="78.44" x2="43.6955" y2="78.44" gradientUnits="userSpaceOnUse">
<stop stop-color="white"/>
<stop offset="1" stop-color="#AFAFAF"/>
</linearGradient>
<linearGradient id="paint14_linear" x1="43.0009" y1="70.0778" x2="53.7655" y2="90.4933" gradientUnits="userSpaceOnUse">
<stop stop-color="white"/>
<stop offset="1" stop-color="#AFAFAF"/>
</linearGradient>
<linearGradient id="paint15_linear" x1="43.2848" y1="69.9281" x2="54.0493" y2="90.3437" gradientUnits="userSpaceOnUse">
<stop stop-color="white"/>
<stop offset="1" stop-color="#AFAFAF"/>
</linearGradient>
<linearGradient id="paint16_linear" x1="63.6115" y1="93.6914" x2="57.4249" y2="104.436" gradientUnits="userSpaceOnUse">
<stop stop-color="white"/>
<stop offset="1" stop-color="#AFAFAF"/>
</linearGradient>
<linearGradient id="paint17_linear" x1="65.0179" y1="108.006" x2="41.9543" y2="107.147" gradientUnits="userSpaceOnUse">
<stop stop-color="white"/>
<stop offset="1" stop-color="#AFAFAF"/>
</linearGradient>
<linearGradient id="paint18_linear" x1="65.0053" y1="108.327" x2="41.9423" y2="107.468" gradientUnits="userSpaceOnUse">
<stop stop-color="white"/>
<stop offset="1" stop-color="#AFAFAF"/>
</linearGradient>
<linearGradient id="paint19_linear" x1="33.8543" y1="114.313" x2="27.7832" y2="103.503" gradientUnits="userSpaceOnUse">
<stop stop-color="white"/>
<stop offset="1" stop-color="#AFAFAF"/>
</linearGradient>
<linearGradient id="paint20_linear" x1="20.8324" y1="108.204" x2="33.3611" y2="88.8208" gradientUnits="userSpaceOnUse">
<stop stop-color="white"/>
<stop offset="1" stop-color="#AFAFAF"/>
</linearGradient>
<linearGradient id="paint21_linear" x1="20.563" y1="108.03" x2="33.0918" y2="88.6467" gradientUnits="userSpaceOnUse">
<stop stop-color="white"/>
<stop offset="1" stop-color="#AFAFAF"/>
</linearGradient>
</defs>
</svg>
