<svg width="113" height="147" viewBox="0 0 113 147" fill="none" xmlns="http://www.w3.org/2000/svg">
<path d="M28.0236 15.0606L27.459 18.4134L42.5774 20.9667L43.142 17.614L28.0236 15.0606Z" fill="#B4CBD1"/>
<path d="M42.5806 18.0584L42.1893 20.361L28.0025 17.9702L28.3939 15.6676L42.5806 18.0584ZM43.1383 17.6077L28.0123 15.0503L27.4448 18.4013L42.5709 20.9685L43.1383 17.6077Z" fill="#1BA7A5"/>
<path d="M44.195 16.6572C44.0776 17.3529 43.4807 17.8232 42.8644 17.7252L28.1101 15.2365C27.4937 15.1287 27.0828 14.482 27.2002 13.7863L44.195 16.6572Z" fill="#B4CBD1"/>
<path d="M42.8154 17.9898L28.0612 15.501C27.3078 15.3736 26.8186 14.5898 26.9556 13.7569L27.0045 13.4923L44.4689 16.4416L44.42 16.7062C44.283 17.5391 43.559 18.1172 42.8154 17.9898ZM27.4154 14.0998C27.4448 14.5408 27.7383 14.9033 28.1492 14.9719L42.9035 17.4607C43.3144 17.5293 43.7058 17.2745 43.8819 16.8728L27.4154 14.0998Z" fill="#1BA7A5"/>
<path d="M41.9838 41.3785C41.5631 43.8673 39.303 46.0719 37.0331 45.6897L24.539 43.5831C22.2691 43.201 20.8504 40.379 21.2711 37.8805L24.0693 22.4774C24.49 19.9887 26.6719 18.2838 28.9417 18.6659L41.0837 20.7137C43.3535 21.0959 44.8505 23.4279 44.4298 25.9167L41.9838 41.3785Z" fill="#B4CBD1"/>
<path d="M35.1742 18.7149C35.1644 18.7149 35.1546 18.7149 35.1448 18.7051L27.2687 16.2653C27.1415 16.2261 27.073 16.0791 27.1122 15.9419C27.1513 15.8048 27.2883 15.7166 27.4155 15.7558L35.2916 18.1956C35.4188 18.2348 35.4873 18.3817 35.4481 18.5189C35.409 18.6561 35.2916 18.7345 35.1742 18.7149Z" fill="#1BA7A5"/>
<path d="M30.7714 25.7795C29.7735 28.3173 27.9536 29.9046 26.7013 29.3461C25.449 28.7778 25.2435 26.2694 26.2415 23.7316C27.2394 21.1939 29.0592 19.6065 30.3116 20.165C31.5639 20.7431 31.7694 23.2515 30.7714 25.7795Z" fill="#D6EEF2"/>
<path d="M26.7404 36.1364C26.5839 37.0868 25.8892 37.7727 25.1946 37.6551C24.4999 37.5375 24.0596 36.6655 24.226 35.715L24.676 33.0695C24.8326 32.119 25.537 31.4331 26.2317 31.5507C26.9263 31.6683 27.3568 32.5404 27.1905 33.4908L26.7404 36.1364Z" fill="#D6EEF2"/>
<path d="M43.2068 20.0768C43.197 20.0768 43.1872 20.0768 43.1774 20.067L35.3013 17.6273C35.1741 17.5881 35.1056 17.4411 35.1448 17.3039C35.1839 17.1667 35.3209 17.0785 35.4481 17.1177L43.3242 19.5575C43.4514 19.5967 43.5199 19.7437 43.4807 19.8809C43.4416 20.0083 43.3242 20.0964 43.2068 20.0768Z" fill="#1BA7A5"/>
<path d="M42.4632 41.4568L44.8994 25.995C45.0169 25.319 45.0071 24.6331 44.8701 23.9766C44.7429 23.3397 44.4983 22.742 44.1559 22.2129C43.8134 21.6838 43.3829 21.233 42.8839 20.8901C42.3654 20.5374 41.7881 20.3022 41.1717 20.1944L29.0298 18.1466C28.4134 18.0388 27.7873 18.078 27.1807 18.2445C26.5936 18.4013 26.0457 18.6855 25.5467 19.0774C25.0478 19.4693 24.627 19.9495 24.2944 20.508C23.952 21.0861 23.7171 21.723 23.5997 22.4088L20.8113 37.8119C20.5863 39.1542 20.8309 40.6142 21.4962 41.8194C21.8288 42.4269 22.2495 42.9266 22.729 43.3185C23.2573 43.7399 23.8345 44.0044 24.4607 44.1122L36.9549 46.2188C37.581 46.3266 38.217 46.2678 38.8432 46.0425C39.4302 45.8367 39.9879 45.4938 40.5064 45.0332C41.5142 44.1024 42.2284 42.809 42.4632 41.4568ZM24.0694 22.4774C24.4901 19.9886 26.6719 18.2837 28.9418 18.6659L41.0837 20.7137C43.3536 21.0959 44.8505 23.4279 44.4298 25.9167L42.1501 40.3888C42.1404 40.4182 42.023 40.673 41.8468 41.0257L41.6316 40.9767L41.8468 41.0257C41.5729 41.5842 41.1424 42.3975 40.751 42.9854C39.89 44.2788 38.7062 44.9255 37.2288 44.8863L30.9084 43.8183L24.6368 42.76C23.2279 42.3093 22.318 41.3099 21.9365 39.8009C21.7603 39.115 21.6234 38.2136 21.5451 37.5963L21.7603 37.6257L21.5451 37.5963C21.4962 37.1848 21.4668 36.9006 21.4668 36.8908L24.0694 22.4774ZM41.113 43.5537C41.0837 43.6027 41.0446 43.6517 41.0152 43.7007C41.0446 43.6517 41.0837 43.6027 41.113 43.5537ZM21.4962 40.5652C21.4473 40.4084 21.3983 40.2516 21.3592 40.0949C21.3983 40.2614 21.4473 40.4182 21.4962 40.5652Z" fill="#1BA7A5"/>
<path d="M77.8276 13.4214L62.6525 15.6124L63.1369 18.9777L78.312 16.7867L77.8276 13.4214Z" fill="#B4CBD1"/>
<path d="M77.4311 14.0125L77.7637 16.3249L63.528 18.3826L63.1954 16.0702L77.4311 14.0125ZM77.8224 13.4246L62.6475 15.6195L63.1367 18.9901L78.3116 16.7953L77.8224 13.4246Z" fill="#1BA7A5"/>
<path d="M78.5366 12.1989C78.6345 12.8946 78.2138 13.5315 77.5876 13.6197L62.7844 15.7557C62.1583 15.8439 61.5712 15.354 61.4734 14.6583L78.5366 12.1989Z" fill="#B4CBD1"/>
<path d="M77.6268 13.8843L62.8236 16.0203C62.0702 16.1281 61.3658 15.5304 61.2386 14.6975L61.1995 14.433L78.7324 11.905L78.7715 12.1696C78.8987 13.0024 78.3801 13.7667 77.6268 13.8843ZM61.7767 14.8837C61.943 15.2952 62.3344 15.55 62.7453 15.4912L77.5485 13.3552C77.9594 13.2964 78.2627 12.9338 78.3019 12.4929L61.7767 14.8837Z" fill="#1BA7A5"/>
<path d="M83.9766 36.4107C84.3386 38.9093 82.8514 41.7018 80.5718 42.0252L68.0287 43.8379C65.7491 44.171 63.5379 41.9076 63.1857 39.409L61.1408 23.8884C60.7788 21.3898 62.3345 19.097 64.6141 18.7639L76.7952 17.0002C79.0748 16.667 81.2077 18.4307 81.5697 20.9293L83.9766 36.4107Z" fill="#B4CBD1"/>
<path d="M70.5823 16.912C70.5725 16.912 70.5627 16.912 70.5529 16.912L62.305 17.0002C62.1778 17.0002 62.0604 16.8826 62.0604 16.7356C62.0506 16.5886 62.1583 16.471 62.2855 16.471L70.5334 16.3829C70.6606 16.3829 70.778 16.5004 70.778 16.6474C70.7877 16.7748 70.6997 16.8924 70.5823 16.912Z" fill="#1BA7A5"/>
<path d="M68.5374 24.9858C68.3613 27.7 67.109 29.7772 65.749 29.6204C64.3792 29.4637 63.4204 27.1317 63.5965 24.4175C63.7726 21.7034 65.025 19.6261 66.385 19.7829C67.7547 19.9397 68.7233 22.2619 68.5374 24.9858Z" fill="#D6EEF2"/>
<path d="M67.8526 36.0775C67.9896 37.0378 67.5395 37.8902 66.8448 37.998C66.1502 38.096 65.4653 37.4003 65.3283 36.4401L64.9468 33.7847C64.8098 32.8245 65.2696 31.9622 65.9643 31.8642C66.659 31.7663 67.334 32.4619 67.471 33.4222L67.8526 36.0775Z" fill="#D6EEF2"/>
<path d="M78.6443 15.746C78.6345 15.746 78.6247 15.746 78.6149 15.746L70.367 15.8342C70.2399 15.8342 70.1224 15.7166 70.1224 15.5696C70.1127 15.4226 70.2203 15.305 70.3475 15.305L78.5954 15.2169C78.7226 15.2169 78.84 15.3344 78.84 15.4814C78.8497 15.6186 78.7617 15.7264 78.6443 15.746Z" fill="#1BA7A5"/>
<path d="M84.4462 36.3323L82.0491 20.8705C81.9513 20.1846 81.736 19.5477 81.4034 18.9598C81.0805 18.3915 80.6793 17.9016 80.1901 17.4999C79.7009 17.0981 79.153 16.8042 78.5758 16.6278C77.9692 16.4514 77.3528 16.4024 76.7364 16.4906L64.5554 18.2543C63.939 18.3425 63.3519 18.5679 62.8236 18.9108C62.3148 19.244 61.8745 19.6751 61.5223 20.2042C61.1701 20.7333 60.9157 21.3212 60.769 21.9483C60.6222 22.6048 60.5928 23.2809 60.6907 23.9668L62.716 39.4678C62.9116 40.82 63.5965 42.1329 64.5847 43.0736C65.0837 43.5537 65.6316 43.8966 66.2186 44.122C66.8448 44.367 67.4808 44.4355 68.1069 44.3474L80.65 42.5347C81.2762 42.4465 81.8632 42.1917 82.4013 41.79C82.9003 41.4079 83.321 40.9179 83.6732 40.3202C84.3581 39.1444 84.6418 37.6943 84.4462 36.3323ZM61.1407 23.8884C60.7787 21.3898 62.3344 19.097 64.6141 18.7639L76.7951 17.0001C79.0748 16.667 81.2077 18.4307 81.5697 20.9293L83.8102 35.4113C83.8102 35.4407 83.7711 35.715 83.7124 36.1069L83.4873 36.1265L83.7124 36.1069C83.6145 36.7242 83.458 37.6257 83.2623 38.3018C82.8318 39.7911 81.9023 40.771 80.4837 41.1923L74.1436 42.1035L67.8526 43.0148C66.3752 43.0148 65.2109 42.3387 64.3792 41.0257C63.9977 40.428 63.5965 39.605 63.3324 39.0464L63.5476 39.0073L63.3324 39.0464C63.1562 38.6741 63.0388 38.4096 63.0388 38.3998L61.1407 23.8884ZM83.8004 38.7427C83.7809 38.8015 83.7711 38.8603 83.7515 38.9093C83.7711 38.8603 83.7906 38.8015 83.8004 38.7427ZM64.2031 41.8978C64.1053 41.7606 64.0172 41.6234 63.9292 41.4862C64.027 41.6332 64.1151 41.7704 64.2031 41.8978Z" fill="#1BA7A5"/>
<path d="M98.4668 31.051L108.564 26.191C109.151 27.0631 109.63 26.6516 110.755 26.1126L111.059 25.9559C112.624 25.2014 112.673 24.6233 111.92 23.0556L111.313 21.7818L110.707 20.508C109.953 18.9402 109.307 18.4405 107.742 19.195L106.891 19.5575C105.766 20.0965 105.873 20.1454 106.177 21.1547L96.0795 26.0245C93.7509 23.7806 90.1896 23.1143 87.088 24.6037L65.0741 35.2055C61.1018 37.1162 63.5771 39.8891 65.4948 43.8673C67.4027 47.8454 68.0093 51.4806 71.9816 49.5699L93.9955 38.9681C97.0579 37.4787 98.7603 34.2649 98.4668 31.051Z" fill="#BFD5DD"/>
<path d="M108.936 18.8422C109.689 18.8422 110.159 19.4106 110.687 20.4982L111.293 21.772L111.9 23.0457C112.653 24.6135 112.614 25.1916 111.039 25.9461L110.736 26.1028C110.08 26.4164 109.64 26.6907 109.278 26.6907C109.014 26.6907 108.789 26.5536 108.544 26.191L98.4471 31.051C98.7407 34.2747 97.0382 37.4787 93.9465 38.9681L71.9326 49.5699C71.1792 49.9324 70.553 50.099 70.0149 50.099C67.6961 50.099 67.0014 47.0909 65.4556 43.8673C63.5477 39.8891 61.0723 37.1162 65.0349 35.2055L87.0488 24.6037C88.174 24.0648 89.3578 23.81 90.5221 23.81C92.567 23.81 94.5531 24.6037 96.0403 26.0244L106.137 21.1547C105.834 20.1552 105.726 20.1062 106.852 19.5575L107.703 19.195C108.202 18.9598 108.603 18.8422 108.936 18.8422ZM108.936 18.3327C108.515 18.3327 108.065 18.4601 107.507 18.7247L106.666 19.0872H106.656L106.646 19.097C106.069 19.3714 105.707 19.5673 105.541 19.9103C105.384 20.214 105.433 20.5178 105.541 20.8803L96.1479 25.4071C95.4239 24.7703 94.602 24.2607 93.7019 23.8982C92.6942 23.4965 91.6277 23.2907 90.5417 23.2907C89.26 23.2907 88.0174 23.5749 86.8433 24.1432L64.8294 34.745C63.5966 35.3427 62.853 36.058 62.5595 36.9496C62.0605 38.4782 62.9802 40.2027 64.0369 42.2113C64.3598 42.809 64.6826 43.4361 65.0055 44.0926C65.3186 44.7491 65.6023 45.3958 65.8665 46.0229C66.4046 47.2673 66.8645 48.3451 67.4613 49.1584C68.1755 50.1382 69.0169 50.6085 70.0247 50.6085C70.6606 50.6085 71.3651 50.4223 72.1674 50.0304L94.1813 39.4286C95.7761 38.6643 97.0676 37.4395 97.9286 35.9012C98.3395 35.1565 98.6428 34.3628 98.8189 33.5398C98.9755 32.8245 99.0342 32.0896 98.995 31.3547L108.417 26.8181C108.613 27.0141 108.906 27.2002 109.288 27.2002C109.699 27.2002 110.09 27.0043 110.579 26.7593C110.706 26.7005 110.834 26.6319 110.971 26.5634H110.98H110.99L111.284 26.4164C111.988 26.0734 112.663 25.6619 112.849 24.9466C113.006 24.3489 112.781 23.6924 112.37 22.84L111.763 21.5662L111.157 20.2924C110.843 19.6457 110.569 19.2146 110.276 18.9206C109.885 18.5189 109.444 18.3327 108.936 18.3327Z" fill="#1BA7A5"/>
<path d="M107.875 24.7688L97.8993 29.5201L98.2523 30.2634L108.228 25.5122L107.875 24.7688Z" fill="#E5E3E3"/>
<path d="M71.2867 46.5716L93.242 36.1168H93.2518C93.2713 36.107 95.3455 35.1859 96.1283 33.8729C96.911 32.56 96.774 30.4925 96.774 30.4729L97.5469 31.1392C97.5567 31.2176 97.723 32.7461 96.8033 34.2845C95.9032 35.7934 93.7214 36.783 93.5648 36.8516L71.6292 47.2771L71.2867 46.5716Z" fill="#E5E3E3"/>
<path d="M12.1037 18.2641L7.80855 7.89746C8.70867 7.35855 8.3271 6.85883 7.84768 5.70263L7.71071 5.38908C7.0454 3.78215 6.47792 3.70376 4.87335 4.37005L3.57208 4.90896L2.27082 5.44787C0.65646 6.13375 0.128125 6.75105 0.793436 8.35798L1.10652 9.23003C1.58594 10.3862 1.63486 10.2785 2.65239 10.0335L6.95734 20.4002C4.5994 22.6048 3.72863 26.1322 5.04946 29.3069L14.4225 51.8921C16.1151 55.9682 19.0112 53.6362 23.0813 51.9509C27.1515 50.2558 30.8107 49.854 29.118 45.7779L19.745 23.1927C18.4437 20.018 15.3324 18.1367 12.1037 18.2641Z" fill="#BFD5DD"/>
<path d="M6.29193 3.98793C6.90832 3.98793 7.28989 4.38966 7.7106 5.39889L7.84758 5.71244C8.32699 6.85884 8.70857 7.36836 7.80844 7.89747L12.1036 18.2543C12.2014 18.2543 12.2993 18.2445 12.3971 18.2445C15.5182 18.2445 18.473 20.1062 19.7547 23.1829L29.1277 45.7681C30.8203 49.8442 27.1514 50.246 23.091 51.9411C20.6939 52.9405 18.7078 54.1555 17.1228 54.1555C16.0172 54.1555 15.1171 53.5578 14.4224 51.8921L5.04936 29.3167C3.72853 26.142 4.58952 22.6146 6.95724 20.41L2.65229 10.0433C2.2805 10.1315 2.04568 10.2001 1.85979 10.2001C1.53692 10.2001 1.40973 9.97472 1.09664 9.23984L0.783551 8.36779C0.118241 6.76086 0.646576 6.14356 2.25115 5.47728L3.55242 4.93837L4.85368 4.39946C5.47007 4.1349 5.92014 3.98793 6.29193 3.98793ZM6.29193 3.46861C5.881 3.46861 5.41137 3.59599 4.66779 3.89974L3.36652 4.43865L2.06525 4.99716C1.32167 5.3009 0.587872 5.67324 0.225865 6.31014C-0.20463 7.07441 0.0693215 7.94646 0.313921 8.54416L0.627008 9.40642V9.41621V9.42601C0.910743 10.1119 1.15534 10.7096 1.85979 10.7096C2.00655 10.7096 2.16309 10.6802 2.34899 10.641L6.35063 20.2826C5.84187 20.8019 5.3918 21.3898 5.0298 22.0267C4.60908 22.7616 4.30578 23.5552 4.11989 24.3881C3.73831 26.1028 3.89485 27.8763 4.56995 29.5126L13.943 52.0978C14.3148 52.9993 14.7551 53.6362 15.2932 54.0673C15.8117 54.4788 16.4183 54.6846 17.113 54.6846C18.3556 54.6846 19.7449 54.0379 21.3495 53.2932C21.9659 53.0091 22.6018 52.7151 23.2769 52.431C23.952 52.1468 24.6075 51.9117 25.2435 51.6765C26.2708 51.2944 27.2296 50.9416 28.0123 50.5105C28.9418 50.001 29.5191 49.4425 29.8224 48.7566C30.1942 47.8944 30.1257 46.8655 29.5973 45.5917L20.2243 23.0065C19.5688 21.4192 18.473 20.0866 17.0445 19.1558C15.665 18.2445 14.08 17.7644 12.4363 17.7546L8.42483 8.08364C8.64008 7.88767 8.84554 7.59372 8.85533 7.17239C8.85533 6.78046 8.689 6.39832 8.48354 5.9182C8.42483 5.79082 8.37591 5.66344 8.31721 5.51647V5.50667V5.49687L8.18023 5.19312C7.80844 4.30147 7.31925 3.46861 6.29193 3.46861Z" fill="#1BA7A5"/>
<path d="M7.11625 8.19528L6.35596 8.5078L10.5502 18.7416L11.3105 18.4291L7.11625 8.19528Z" fill="#E5E3E3"/>
<path d="M26.1044 46.2776L16.8781 23.761V23.7512C16.8683 23.7316 16.0563 21.6054 14.7941 20.7529C13.532 19.9005 11.4578 19.9299 11.4382 19.9299L12.1427 19.195C12.221 19.195 13.757 19.1068 15.2344 20.1062C16.6922 21.0861 17.5532 23.3201 17.6119 23.4769L26.8382 45.9837L26.1044 46.2776Z" fill="#E5E3E3"/>
<path d="M61.0429 16.9316L65.3381 6.56492C66.3556 6.81967 66.4339 6.20238 66.9231 5.04617L67.0405 4.73262C67.7058 3.12569 67.3634 2.66517 65.749 1.99888L64.4478 1.45997L63.1465 0.921063C61.5419 0.254775 60.7299 0.313565 60.0645 1.9205L59.6732 2.76315C59.1938 3.91936 59.3014 3.88017 60.2015 4.42888L55.8966 14.7955C52.6679 14.6682 49.5663 16.5494 48.2455 19.7241L38.8725 42.3093C37.1798 46.3854 40.8782 46.8068 44.9385 48.4921C49.0087 50.1872 51.8754 52.4996 53.568 48.4235L62.941 25.8383C64.2717 22.6636 63.4009 19.1362 61.0429 16.9316Z" fill="#BFD5DD"/>
<path d="M61.6398 0.50953C62.0508 0.50953 62.5498 0.656505 63.1564 0.911262L64.4576 1.45017L65.7589 1.98908C67.3635 2.65537 67.7157 3.11589 67.0504 4.72282L66.933 5.03637C66.522 6.01621 66.4046 6.61391 65.7491 6.61391C65.6317 6.61391 65.5045 6.59431 65.348 6.55512L61.0528 16.912C63.4107 19.1166 64.2815 22.644 62.9607 25.8187L53.5876 48.4039C52.893 50.0794 51.9929 50.6771 50.897 50.6771C49.3316 50.6771 47.3455 49.4719 44.9582 48.4725C40.888 46.7774 37.1995 46.356 38.8921 42.2897L48.2652 19.7045C49.5469 16.6278 52.5016 14.7661 55.6227 14.7661C55.7205 14.7661 55.8184 14.7661 55.9162 14.7759L60.2212 4.40928C59.3308 3.86057 59.2134 3.89976 59.6928 2.74356L60.0842 1.9009C60.4853 0.911262 60.955 0.50953 61.6398 0.50953ZM61.6398 1.52588e-05C61.1702 1.52588e-05 60.7593 0.156789 60.4168 0.45074C60.1038 0.725094 59.8494 1.12683 59.6048 1.70493L59.2134 2.53779L59.2036 2.54759V2.55739C58.959 3.14529 58.8221 3.52742 58.9101 3.89976C58.9982 4.2329 59.233 4.41907 59.5559 4.62484L55.5542 14.2664C53.9203 14.2762 52.3255 14.7563 50.946 15.6676C49.5273 16.6082 48.4217 17.9408 47.7662 19.5183L38.3931 42.1036C37.8648 43.3675 37.7963 44.4062 38.1681 45.2586C38.8138 46.7284 40.6434 47.4143 42.7666 48.1981C43.4025 48.4333 44.0678 48.6782 44.7331 48.9526C45.4082 49.227 46.0442 49.5307 46.6606 49.8149C48.2554 50.5595 49.6349 51.1964 50.8677 51.1964C51.5624 51.1964 52.169 50.9907 52.6875 50.5791C53.2256 50.148 53.6659 49.5111 54.0377 48.6097L63.4107 26.0245C64.0858 24.3881 64.2424 22.6146 63.8608 20.8999C63.6749 20.0768 63.3716 19.2832 62.9509 18.5385C62.5889 17.9016 62.1486 17.3137 61.6301 16.7944L65.6415 7.12342C65.6708 7.12342 65.7002 7.12342 65.7198 7.12342C66.1405 7.12342 66.4829 6.94705 66.7373 6.60411C66.9232 6.34935 67.0504 6.026 67.2069 5.62427C67.2558 5.49689 67.3145 5.35972 67.3733 5.22254V5.21274V5.20294L67.4907 4.8894C67.794 4.16432 68.019 3.40984 67.6766 2.74356C67.3928 2.18505 66.796 1.8519 65.9252 1.48937L64.6533 0.979851L63.352 0.440941C62.6182 0.137192 62.0899 1.52588e-05 61.6398 1.52588e-05Z" fill="#1BA7A5"/>
<path d="M63.8827 5.97313L59.599 16.1693L60.3565 16.4885L64.6402 6.29231L63.8827 5.97313Z" fill="#E5E3E3"/>
<path d="M51.0829 46.6304L60.5049 24.1922V24.1824C60.5146 24.1628 61.4441 22.0855 61.1604 20.5864C60.8767 19.0872 59.3895 17.6371 59.3797 17.6175L60.3972 17.5979C60.4559 17.6567 61.6007 18.6757 61.9333 20.4394C62.266 22.1639 61.2974 24.3587 61.2289 24.5155L51.8167 46.9341L51.0829 46.6304Z" fill="#E5E3E3"/>
<path d="M22.2085 45.2417L31.9535 136.797C32.5032 142.168 36.1013 146.196 40.3492 146.196H81.478C85.6758 146.196 89.2739 142.232 89.8736 136.925L100.318 45.7532L22.2085 45.2417Z" fill="url(#paint0_linear)"/>
<path d="M7.91577 45.2417L17.6608 136.797C18.2105 142.168 21.8086 146.196 26.0564 146.196H67.1853C71.3831 146.196 74.9812 142.232 75.5809 136.925L86.0255 45.7532L7.91577 45.2417Z" fill="url(#paint1_linear)"/>
<path d="M24.957 46.0729H100.218C102.667 46.0729 104.666 43.5155 104.666 40.3827C104.666 37.2498 102.667 34.6924 100.218 34.6924H24.957C22.5082 34.6924 20.5093 37.2498 20.5093 40.3827C20.5093 43.5155 22.5082 46.0729 24.957 46.0729Z" fill="url(#paint2_linear)"/>
<path d="M8.56544 46.0729H85.076C87.5248 46.0729 89.5237 43.5155 89.5237 40.3827C89.5237 37.2498 87.5248 34.6924 85.076 34.6924H8.56544C6.11671 34.6924 4.11774 37.2498 4.11774 40.3827C4.06776 43.5155 6.06673 46.0729 8.56544 46.0729Z" fill="url(#paint3_linear)"/>
<path d="M47.8197 73.26L40.595 84.1929L35.4163 81.188L43.4721 68.0173L47.8197 73.26Z" fill="url(#paint4_linear)"/>
<path d="M43.472 68.0173H50.2492L56.5788 78.5666L51.5279 81.7634L43.472 68.0173Z" fill="url(#paint5_linear)"/>
<path d="M60.6707 76.0092L47.2443 84.1929L58.8805 87.5176L60.6707 76.0092Z" fill="url(#paint6_linear)"/>
<path d="M63.9953 103.565L58.1133 91.8652L63.292 88.8602L70.7086 102.414L63.9953 103.565Z" fill="url(#paint7_linear)"/>
<path d="M70.7084 102.414L67.3198 108.297L55.0442 108.552L54.8524 102.542L70.7084 102.414Z" fill="url(#paint8_linear)"/>
<path d="M55.2362 113.347L54.8525 97.6193L46.1573 106.059L55.2362 113.347Z" fill="url(#paint9_linear)"/>
<path d="M29.4062 102.606L42.513 103.501L42.3851 109.511L26.9767 108.936L29.4062 102.606Z" fill="url(#paint10_linear)"/>
<path d="M26.9766 108.936L23.652 103.054L29.7258 92.3127L34.9685 95.1898L26.9766 108.936Z" fill="url(#paint11_linear)"/>
<path d="M25.4424 90.011L39.1885 97.7472L36.3753 85.9831L25.4424 90.011Z" fill="url(#paint12_linear)"/>
<defs>
<linearGradient id="paint0_linear" x1="91.0627" y1="139.627" x2="54.1071" y2="96.7594" gradientUnits="userSpaceOnUse">
<stop stop-color="#77D28C"/>
<stop offset="1" stop-color="#345C58"/>
</linearGradient>
<linearGradient id="paint1_linear" x1="46.9968" y1="146.201" x2="46.9968" y2="38.7348" gradientUnits="userSpaceOnUse">
<stop stop-color="#77D28C"/>
<stop offset="1" stop-color="#345C58"/>
</linearGradient>
<linearGradient id="paint2_linear" x1="111.775" y1="39.7484" x2="91.6175" y2="39.8985" gradientUnits="userSpaceOnUse">
<stop stop-color="#77D28C"/>
<stop offset="1" stop-color="#345C58"/>
</linearGradient>
<linearGradient id="paint3_linear" x1="7.57721" y1="39.1763" x2="122.784" y2="41.2775" gradientUnits="userSpaceOnUse">
<stop stop-color="#77D28C"/>
<stop offset="1" stop-color="#345C58"/>
</linearGradient>
<linearGradient id="paint4_linear" x1="35.4146" y1="76.1324" x2="47.8124" y2="76.1324" gradientUnits="userSpaceOnUse">
<stop stop-color="white"/>
<stop offset="1" stop-color="#AFAFAF"/>
</linearGradient>
<linearGradient id="paint5_linear" x1="47.1177" y1="67.7702" x2="57.8823" y2="88.1857" gradientUnits="userSpaceOnUse">
<stop stop-color="white"/>
<stop offset="1" stop-color="#AFAFAF"/>
</linearGradient>
<linearGradient id="paint6_linear" x1="47.4016" y1="67.6206" x2="58.1661" y2="88.0361" gradientUnits="userSpaceOnUse">
<stop stop-color="white"/>
<stop offset="1" stop-color="#AFAFAF"/>
</linearGradient>
<linearGradient id="paint7_linear" x1="67.7284" y1="91.3839" x2="61.5417" y2="102.128" gradientUnits="userSpaceOnUse">
<stop stop-color="white"/>
<stop offset="1" stop-color="#AFAFAF"/>
</linearGradient>
<linearGradient id="paint8_linear" x1="69.1347" y1="105.699" x2="46.0711" y2="104.84" gradientUnits="userSpaceOnUse">
<stop stop-color="white"/>
<stop offset="1" stop-color="#AFAFAF"/>
</linearGradient>
<linearGradient id="paint9_linear" x1="69.1221" y1="106.019" x2="46.0591" y2="105.16" gradientUnits="userSpaceOnUse">
<stop stop-color="white"/>
<stop offset="1" stop-color="#AFAFAF"/>
</linearGradient>
<linearGradient id="paint10_linear" x1="37.9711" y1="112.005" x2="31.9" y2="101.196" gradientUnits="userSpaceOnUse">
<stop stop-color="white"/>
<stop offset="1" stop-color="#AFAFAF"/>
</linearGradient>
<linearGradient id="paint11_linear" x1="24.9492" y1="105.896" x2="37.4779" y2="86.5132" gradientUnits="userSpaceOnUse">
<stop stop-color="white"/>
<stop offset="1" stop-color="#AFAFAF"/>
</linearGradient>
<linearGradient id="paint12_linear" x1="24.6799" y1="105.722" x2="37.2086" y2="86.3391" gradientUnits="userSpaceOnUse">
<stop stop-color="white"/>
<stop offset="1" stop-color="#AFAFAF"/>
</linearGradient>
</defs>
</svg>
