<svg width="375" height="395" viewBox="0 0 375 395" fill="none" xmlns="http://www.w3.org/2000/svg">
<path d="M212.188 38.2168C220.608 38.2168 227.433 31.3915 227.433 22.972C227.433 14.5526 220.608 7.72723 212.188 7.72723C203.769 7.72723 196.943 14.5526 196.943 22.972C196.943 31.3915 203.769 38.2168 212.188 38.2168Z" fill="url(#paint0_linear)"/>
<path d="M418.271 71.8221C418.271 71.8221 423.612 -2.1763 336.483 0.0492117C281.735 1.4958 236.891 79.6114 147.314 118.002C100.245 138.142 -96.9361 170.858 16.5652 376.161H413.041L418.271 71.8221Z" fill="url(#paint1_linear)"/>
<path d="M148.204 50.012C153.428 50.012 157.663 45.7774 157.663 40.5536C157.663 35.3298 153.428 31.0952 148.204 31.0952C142.981 31.0952 138.746 35.3298 138.746 40.5536C138.746 45.7774 142.981 50.012 148.204 50.012Z" fill="url(#paint2_linear)"/>
<path d="M85.3336 328.647C83.2194 325.642 83.9983 321.636 86.8915 319.522C87.0028 319.411 87.2253 319.299 87.3366 319.299C86.0013 315.405 84.5547 311.621 82.7743 308.061L66.0829 306.169L79.9924 302.608C75.9865 295.375 71.3129 288.921 66.3055 283.135L52.7298 299.27L60.9642 277.237C51.7283 267.779 41.6022 260.435 32.5889 254.76L30.4747 275.012C30.4747 275.012 29.9183 262.771 29.6957 252.979C26.4687 251.087 23.4643 249.418 20.6824 247.972L18.902 252.645L17.9005 246.636C9.66608 242.519 4.10229 240.627 4.10229 240.627C4.21357 245.857 4.65867 250.865 5.21505 255.761L10.3337 258.654H5.54888C5.99399 262.215 6.66163 265.665 7.32929 269.003C16.3426 272.564 27.3589 277.237 27.3589 277.237L7.99695 272.341C11.0014 285.36 15.675 296.71 21.1275 306.614L42.2699 306.503L24.7996 312.845C28.9168 319.299 33.4791 325.086 38.1527 330.205L44.1616 321.414L41.2684 333.432C45.2743 337.549 49.3915 341.221 53.3975 344.448C55.5117 344.448 57.5147 345.449 58.7387 347.23C59.1838 347.897 59.5176 348.565 59.6289 349.233C76.8767 361.584 91.5651 366.035 91.5651 366.035C93.1229 353.461 92.5666 342 90.5636 331.54C88.6719 331.429 86.6689 330.538 85.3336 328.647Z" fill="#62AB7C"/>
<path opacity="0.62" d="M85.3336 328.647C83.2194 325.642 83.9983 321.636 86.8915 319.522C87.0028 319.411 87.2253 319.299 87.3366 319.299C86.0013 315.405 84.5547 311.621 82.7743 308.061L66.0829 306.169L79.9924 302.608C75.9865 295.375 71.3129 288.921 66.3055 283.135L52.7298 299.27L60.9642 277.237C51.7283 267.779 41.6022 260.435 32.5889 254.76L30.4747 275.012C30.4747 275.012 29.9183 262.771 29.6957 252.979C26.4687 251.087 23.4643 249.418 20.6824 247.972L18.902 252.645L17.9005 246.636C9.66608 242.519 4.10229 240.627 4.10229 240.627C4.21357 245.857 4.65867 250.865 5.21505 255.761L10.3337 258.654H5.54888C5.99399 262.215 6.66163 265.665 7.32929 269.003C16.3426 272.564 27.3589 277.237 27.3589 277.237L7.99695 272.341C11.0014 285.36 15.675 296.71 21.1275 306.614L42.2699 306.503L24.7996 312.845C28.9168 319.299 33.4791 325.086 38.1527 330.205L44.1616 321.414L41.2684 333.432C45.2743 337.549 49.3915 341.221 53.3975 344.448C55.5117 344.448 57.5147 345.449 58.7387 347.23C59.1838 347.897 59.5176 348.565 59.6289 349.233C76.8767 361.584 91.5651 366.035 91.5651 366.035C93.1229 353.461 92.5666 342 90.5636 331.54C88.6719 331.429 86.6689 330.538 85.3336 328.647Z" fill="url(#paint3_linear)"/>
<path d="M41.6022 326.978C39.5993 325.42 39.2654 322.527 40.8233 320.635C40.9346 320.524 40.9346 320.412 41.0459 320.412C39.3767 318.075 37.5963 315.85 35.7046 313.736L24.1319 315.85L32.7002 310.731C28.583 306.725 24.2432 303.276 19.6809 300.383L13.7833 313.847L14.896 297.489C6.88419 293.038 -1.35023 290.145 -8.58315 288.142L-6.02382 302.163C-6.02382 302.163 -8.80571 294.04 -10.92 287.586C-13.4793 286.918 -15.8161 286.473 -17.9303 286.028L-18.1529 289.478L-19.9333 285.694C-26.276 284.581 -30.2819 284.47 -30.2819 284.47C-29.1692 287.92 -27.9452 291.258 -26.4986 294.374L-22.4926 295.264L-25.6084 296.265C-24.6069 298.602 -23.4941 300.716 -22.3814 302.831C-15.5935 303.387 -7.35913 304.277 -7.35913 304.277L-21.2686 304.834C-16.595 312.957 -11.2538 319.633 -5.68999 325.086L8.44203 320.746L-1.90661 328.424C2.09932 331.985 6.32781 334.878 10.445 337.437L12.6705 330.316L13.1156 338.995C16.5652 340.887 20.0147 342.556 23.353 343.891C24.6883 343.446 26.2462 343.669 27.4702 344.67C27.9153 345.004 28.2491 345.338 28.4717 345.783C42.4924 350.568 53.0636 350.679 53.0636 350.679C51.6171 342 48.9464 334.433 45.4969 327.868C44.2729 328.09 42.8263 327.868 41.6022 326.978Z" fill="#62AB7C"/>
<path opacity="0.62" d="M41.6022 326.978C39.5993 325.42 39.2654 322.527 40.8233 320.635C40.9346 320.524 40.9346 320.412 41.0459 320.412C39.3767 318.075 37.5963 315.85 35.7046 313.736L24.1319 315.85L32.7002 310.731C28.583 306.725 24.2432 303.276 19.6809 300.383L13.7833 313.847L14.896 297.489C6.88419 293.038 -1.35023 290.145 -8.58315 288.142L-6.02382 302.163C-6.02382 302.163 -8.80571 294.04 -10.92 287.586C-13.4793 286.918 -15.8161 286.473 -17.9303 286.028L-18.1529 289.478L-19.9333 285.694C-26.276 284.581 -30.2819 284.47 -30.2819 284.47C-29.1692 287.92 -27.9452 291.258 -26.4986 294.374L-22.4926 295.264L-25.6084 296.265C-24.6069 298.602 -23.4941 300.716 -22.3814 302.831C-15.5935 303.387 -7.35913 304.277 -7.35913 304.277L-21.2686 304.834C-16.595 312.957 -11.2538 319.633 -5.68999 325.086L8.44203 320.746L-1.90661 328.424C2.09932 331.985 6.32781 334.878 10.445 337.437L12.6705 330.316L13.1156 338.995C16.5652 340.887 20.0147 342.556 23.353 343.891C24.6883 343.446 26.2462 343.669 27.4702 344.67C27.9153 345.004 28.2491 345.338 28.4717 345.783C42.4924 350.568 53.0636 350.679 53.0636 350.679C51.6171 342 48.9464 334.433 45.4969 327.868C44.2729 328.09 42.8263 327.868 41.6022 326.978Z" fill="url(#paint4_linear)"/>
<path d="M343.048 348.565C344.384 345.227 348.167 343.558 351.505 344.893C351.617 345.004 351.839 345.004 351.95 345.115C354.51 341.888 356.847 338.55 358.961 335.101L351.394 320.078L361.965 329.759C365.86 322.526 368.642 315.071 370.756 307.616L349.836 305.056L372.759 299.826C375.541 286.918 376.32 274.455 375.986 263.773L357.848 273.12C357.848 273.12 367.863 265.998 375.875 260.435C375.763 256.762 375.43 253.202 375.096 250.086L370.311 251.199L374.762 247.081C373.649 237.957 372.203 232.282 372.203 232.282C367.863 235.286 363.857 238.291 360.185 241.406L360.63 247.193L357.959 243.298C355.289 245.635 352.729 248.083 350.281 250.42C352.173 259.878 354.399 271.673 354.399 271.673L347.945 252.868C338.709 262.549 331.698 272.564 326.468 282.578L338.152 300.271L323.241 289.144C320.126 296.154 317.678 303.053 316.008 309.73L326.691 309.952L315.007 314.07C313.783 319.633 312.893 325.086 312.448 330.205C313.56 331.874 313.894 334.21 313.004 336.213C312.67 336.881 312.336 337.549 311.891 338.105C311.001 359.247 315.341 373.936 315.341 373.936C326.691 368.372 336.038 361.696 343.605 354.24C342.492 352.794 342.269 350.679 343.048 348.565Z" fill="#62AB7C"/>
<path opacity="0.62" d="M343.048 348.565C344.384 345.227 348.167 343.558 351.505 344.893C351.617 345.004 351.839 345.004 351.95 345.115C354.51 341.888 356.847 338.55 358.961 335.101L351.394 320.078L361.965 329.759C365.86 322.526 368.642 315.071 370.756 307.616L349.836 305.056L372.759 299.826C375.541 286.918 376.32 274.455 375.986 263.773L357.848 273.12C357.848 273.12 367.863 265.998 375.875 260.435C375.763 256.762 375.43 253.202 375.096 250.086L370.311 251.199L374.762 247.081C373.649 237.957 372.203 232.282 372.203 232.282C367.863 235.286 363.857 238.291 360.185 241.406L360.63 247.193L357.959 243.298C355.289 245.635 352.729 248.083 350.281 250.42C352.173 259.878 354.399 271.673 354.399 271.673L347.945 252.868C338.709 262.549 331.698 272.564 326.468 282.578L338.152 300.271L323.241 289.144C320.126 296.154 317.678 303.053 316.008 309.73L326.691 309.952L315.007 314.07C313.783 319.633 312.893 325.086 312.448 330.205C313.56 331.874 313.894 334.21 313.004 336.213C312.67 336.881 312.336 337.549 311.891 338.105C311.001 359.247 315.341 373.936 315.341 373.936C326.691 368.372 336.038 361.696 343.605 354.24C342.492 352.794 342.269 350.679 343.048 348.565Z" fill="url(#paint5_linear)"/>
<path d="M377.321 330.538C378.323 329.203 380.215 328.981 381.55 329.982C381.661 329.982 381.661 330.093 381.772 330.093C383.33 328.981 384.777 327.756 386.112 326.421L384.554 318.743L388.115 324.418C390.674 321.636 392.9 318.632 394.792 315.516L385.667 311.844L396.572 312.289C399.354 306.837 401.246 301.384 402.358 296.488L393.122 298.491C393.122 298.491 398.464 296.488 402.804 294.93C403.137 293.261 403.471 291.703 403.694 290.257L401.357 290.145L403.916 288.81C404.584 284.581 404.584 281.911 404.584 281.911C402.247 282.69 400.133 283.58 398.019 284.581L397.462 287.252L396.795 285.138C395.237 285.917 393.901 286.584 392.455 287.475C392.121 291.926 391.676 297.489 391.676 297.489L391.008 288.254C385.667 291.481 381.327 295.153 377.766 299.047L380.882 308.394L375.541 301.607C373.315 304.389 371.424 307.17 369.755 309.952L374.539 311.288L368.753 311.733C367.529 314.07 366.528 316.406 365.637 318.632C365.971 319.522 365.749 320.524 365.192 321.414C364.97 321.748 364.747 321.97 364.413 322.081C361.52 331.54 361.631 338.55 361.631 338.55C367.418 337.437 372.425 335.546 376.765 333.098C376.654 332.319 376.765 331.317 377.321 330.538Z" fill="#62AB7C"/>
<path opacity="0.62" d="M377.321 330.538C378.323 329.203 380.215 328.981 381.55 329.982C381.661 329.982 381.661 330.093 381.772 330.093C383.33 328.981 384.777 327.756 386.112 326.421L384.554 318.743L388.115 324.418C390.674 321.636 392.9 318.632 394.792 315.516L385.667 311.844L396.572 312.289C399.354 306.837 401.246 301.384 402.358 296.488L393.122 298.491C393.122 298.491 398.464 296.488 402.804 294.93C403.137 293.261 403.471 291.703 403.694 290.257L401.357 290.145L403.916 288.81C404.584 284.581 404.584 281.911 404.584 281.911C402.247 282.69 400.133 283.58 398.019 284.581L397.462 287.252L396.795 285.138C395.237 285.917 393.901 286.584 392.455 287.475C392.121 291.926 391.676 297.489 391.676 297.489L391.008 288.254C385.667 291.481 381.327 295.153 377.766 299.047L380.882 308.394L375.541 301.607C373.315 304.389 371.424 307.17 369.755 309.952L374.539 311.288L368.753 311.733C367.529 314.07 366.528 316.406 365.637 318.632C365.971 319.522 365.749 320.524 365.192 321.414C364.97 321.748 364.747 321.97 364.413 322.081C361.52 331.54 361.631 338.55 361.631 338.55C367.418 337.437 372.425 335.546 376.765 333.098C376.654 332.319 376.765 331.317 377.321 330.538Z" fill="url(#paint6_linear)"/>
<path d="M93.2342 366.147C93.2342 366.147 108.368 310.286 44.9405 282.356C44.9405 282.467 52.5073 350.234 93.2342 366.147Z" fill="#E2A855"/>
<path d="M93.2342 366.147C93.2342 366.147 108.368 310.286 44.9405 282.356C44.9405 282.467 52.5073 350.234 93.2342 366.147Z" fill="url(#paint7_linear)"/>
<path d="M46.1645 368.928C46.1645 368.928 9.77734 311.288 -65 344.003C-65 344.003 -0.126205 391.517 46.1645 368.928Z" fill="#E2A855"/>
<path d="M46.1645 368.928C46.1645 368.928 9.77734 311.288 -65 344.003C-65 344.003 -0.126205 391.517 46.1645 368.928Z" fill="url(#paint8_linear)"/>
<path d="M334.48 365.034C334.48 365.034 380.437 343.446 363.189 285.138C363.189 285.138 322.129 328.647 334.48 365.034Z" fill="#E2A855"/>
<path d="M334.48 365.034C334.48 365.034 380.437 343.446 363.189 285.138C363.189 285.138 322.129 328.647 334.48 365.034Z" fill="url(#paint9_linear)"/>
<path d="M67.8633 376.607C67.8633 376.607 -57.8783 376.607 -62.6632 369.151C-67.4481 361.696 -4.79979 361.696 -4.79979 361.696C-4.79979 361.696 -32.2849 351.681 -23.7167 347.564C-15.1484 343.446 13.7833 346.117 13.7833 346.117C13.7833 346.117 -12.9229 326.087 -4.79979 318.632C3.32335 311.176 33.8129 331.206 33.8129 331.206C33.8129 331.206 13.7833 308.172 23.0192 304.166C32.2551 300.049 57.1808 305.279 67.8633 323.862C67.8633 323.862 75.9864 300.828 82.3292 302.386C88.6719 303.832 89.3395 327.2 89.3395 327.2C89.3395 327.2 110.482 316.851 115.267 319.411C120.052 321.97 113.375 336.881 113.375 336.881C113.375 336.881 137.077 332.764 143.42 337.66C149.762 342.445 130.4 357.356 130.4 357.356C130.4 357.356 197.166 357.356 197.166 367.704C197.388 378.053 67.8633 376.607 67.8633 376.607Z" fill="#6FC384"/>
<path d="M357.18 376.607C357.18 376.607 231.439 376.607 226.654 369.151C221.869 361.696 284.517 361.696 284.517 361.696C284.517 361.696 257.032 351.681 265.6 347.564C274.169 343.446 303.1 346.117 303.1 346.117C303.1 346.117 276.394 326.087 284.517 318.632C292.64 311.176 323.13 331.206 323.13 331.206C323.13 331.206 303.1 308.172 312.336 304.166C321.572 300.049 346.498 305.279 357.18 323.862C357.18 323.862 365.304 300.828 371.646 302.386C377.989 303.832 378.657 327.2 378.657 327.2C378.657 327.2 399.799 316.851 404.584 319.411C409.369 321.97 402.692 336.881 402.692 336.881C402.692 336.881 426.394 332.764 432.737 337.66C439.079 342.445 419.717 357.356 419.717 357.356C419.717 357.356 486.483 357.356 486.483 367.704C486.705 378.053 357.18 376.607 357.18 376.607Z" fill="#6FC384"/>
<path d="M67.8633 376.607C67.8633 376.607 -57.8783 376.607 -62.6632 369.151C-67.4481 361.696 -4.79979 361.696 -4.79979 361.696C-4.79979 361.696 -32.2849 351.681 -23.7167 347.564C-15.1484 343.446 13.7833 346.117 13.7833 346.117C13.7833 346.117 -12.9229 326.087 -4.79979 318.632C3.32335 311.176 33.8129 331.206 33.8129 331.206C33.8129 331.206 13.7833 308.172 23.0192 304.166C32.2551 300.049 57.1808 305.279 67.8633 323.862C67.8633 323.862 75.9864 300.828 82.3292 302.386C88.6719 303.832 89.3395 327.2 89.3395 327.2C89.3395 327.2 110.482 316.851 115.267 319.411C120.052 321.97 113.375 336.881 113.375 336.881C113.375 336.881 137.077 332.764 143.42 337.66C149.762 342.445 130.4 357.356 130.4 357.356C130.4 357.356 197.166 357.356 197.166 367.704C197.388 378.053 67.8633 376.607 67.8633 376.607Z" fill="url(#paint10_linear)"/>
<path d="M357.18 376.607C357.18 376.607 231.439 376.607 226.654 369.151C221.869 361.696 284.517 361.696 284.517 361.696C284.517 361.696 257.032 351.681 265.6 347.564C274.169 343.446 303.1 346.117 303.1 346.117C303.1 346.117 276.394 326.087 284.517 318.632C292.64 311.176 323.13 331.206 323.13 331.206C323.13 331.206 303.1 308.172 312.336 304.166C321.572 300.049 346.498 305.279 357.18 323.862C357.18 323.862 365.304 300.828 371.646 302.386C377.989 303.832 378.657 327.2 378.657 327.2C378.657 327.2 399.799 316.851 404.584 319.411C409.369 321.97 402.692 336.881 402.692 336.881C402.692 336.881 426.394 332.764 432.737 337.66C439.079 342.445 419.717 357.356 419.717 357.356C419.717 357.356 486.483 357.356 486.483 367.704C486.705 378.053 357.18 376.607 357.18 376.607Z" fill="url(#paint11_linear)"/>
<path d="M351.839 281.021C352.062 281.132 353.842 287.808 353.175 288.587C352.507 289.478 339.599 290.368 339.599 289.366C339.821 286.473 347.054 286.251 347.054 286.251L345.608 283.135L351.839 281.021Z" fill="#4C2F4D"/>
<path d="M338.597 281.132C338.82 281.243 340.6 287.92 339.933 288.699C339.265 289.589 326.357 290.479 326.357 289.478C326.58 286.584 333.812 286.362 333.812 286.362L332.366 283.246L338.597 281.132Z" fill="#4C2F4D"/>
<path d="M358.627 180.761C358.627 180.761 377.655 185.546 354.732 284.47C354.732 284.47 347.833 286.362 343.939 285.027L342.492 216.703L340.6 216.926L341.602 284.804C341.602 284.804 336.149 286.473 331.81 285.138C331.81 285.138 318.456 189.997 320.571 187.549C322.796 184.878 358.627 180.761 358.627 180.761Z" fill="#1D5F8F"/>
<path d="M352.173 85.6203L350.838 78.7212C350.726 78.0535 350.726 77.2746 351.06 76.607C351.95 74.4927 354.176 69.8191 355.845 70.153C357.959 70.4868 354.176 78.4987 354.176 78.4987L357.848 85.2865L352.173 85.6203Z" fill="#E19E81"/>
<path d="M292.863 104.982L290.304 98.417C290.081 97.7494 289.525 97.193 288.968 96.7479C287.077 95.4126 282.737 92.742 281.402 93.8547C279.844 95.3013 287.299 99.9749 287.299 99.9749L287.856 107.653L292.863 104.982Z" fill="#E19E81"/>
<path d="M317.455 109.433C317.455 109.433 311.557 99.3072 316.565 96.3028C321.572 93.2983 338.041 104.76 336.261 112.104C334.48 119.448 329.25 120.45 329.25 120.45L317.455 109.433Z" fill="#4C2F4D"/>
<path d="M328.249 99.7523C327.47 101.088 326.691 102.2 325.689 103.202C323.241 104.982 319.124 105.873 315.563 105.094C316.453 107.542 317.566 109.433 317.566 109.433L329.361 120.45C329.361 120.45 334.703 119.448 336.372 112.104C337.262 108.209 333.145 103.202 328.249 99.7523Z" fill="url(#paint12_linear)"/>
<path d="M320.237 119.782L323.13 132.134C323.13 132.134 329.25 134.025 337.262 130.019L331.253 116.778L320.237 119.782Z" fill="#E19E81"/>
<path d="M331.253 116.778L320.237 119.782L322.462 129.129C326.468 126.57 329.584 121.34 331.253 116.778Z" fill="#D38D75"/>
<path d="M323.686 102.089C320.348 101.978 317.566 104.537 316.899 107.764C315.897 113.328 314.562 122.898 317.9 123.009C322.574 123.12 327.581 120.895 329.584 118.335C329.584 118.335 333.924 117.445 334.48 113.217C335.037 108.877 331.031 111.881 331.031 111.881C331.031 111.881 330.363 102.312 323.686 102.089Z" fill="#E19E81"/>
<path d="M293.308 102.646C293.308 102.646 302.878 134.248 328.36 131.132C353.842 128.128 350.281 82.6159 350.281 82.6159L357.292 81.6144C357.292 81.6144 381.772 123.343 354.287 143.929L364.413 183.543C364.413 183.543 339.933 197.786 317.9 190.331L315.341 151.05C315.341 151.05 285.408 156.837 286.186 103.87L293.308 102.646Z" fill="#264196"/>
<path d="M333.145 201.792C344.606 253.981 356.068 306.169 367.529 358.357C369.198 365.813 370.867 373.38 372.425 380.835C372.982 383.283 376.654 382.282 376.097 379.834C364.636 327.645 353.175 275.457 341.713 223.268C340.044 215.813 338.375 208.246 336.817 200.791C336.372 198.343 332.589 199.344 333.145 201.792Z" fill="#FBB03B"/>
<path d="M289.525 201.792C300.986 253.981 312.448 306.169 323.909 358.357C325.578 365.813 327.247 373.38 328.805 380.835C329.361 383.283 333.034 382.282 332.477 379.834C321.016 327.645 309.554 275.457 298.093 223.268C296.424 215.813 294.755 208.246 293.197 200.791C292.752 198.343 288.968 199.344 289.525 201.792Z" fill="#FBB03B"/>
<path d="M354.844 288.476C340.267 288.476 325.801 288.476 311.224 288.476C308.775 288.476 308.775 292.371 311.224 292.371C325.801 292.371 340.267 292.371 354.844 292.371C357.292 292.259 357.292 288.476 354.844 288.476Z" fill="#FBB03B"/>
<path d="M344.272 239.403C329.695 239.403 315.229 239.403 300.652 239.403C298.204 239.403 298.204 243.298 300.652 243.298C315.229 243.298 329.695 243.298 344.272 243.298C346.72 243.298 346.72 239.403 344.272 239.403Z" fill="#FBB03B"/>
<path d="M362.744 325.42C348.167 325.42 333.701 325.42 319.124 325.42C316.676 325.42 316.676 329.314 319.124 329.314C333.701 329.314 348.167 329.314 362.744 329.314C365.192 329.314 365.192 325.42 362.744 325.42Z" fill="#FBB03B"/>
<path d="M349.057 162.178C338.82 165.294 326.468 166.184 316.12 162.178L318.011 190.331C339.933 197.898 364.525 183.543 364.525 183.543L357.737 157.059C355.289 159.285 352.507 161.065 349.057 162.178Z" fill="url(#paint13_linear)"/>
<path d="M150.319 211.807L172.017 371.154C173.242 380.501 181.253 387.512 190.712 387.512H282.292C291.639 387.512 299.651 380.612 300.986 371.377L324.243 212.697L150.319 211.807Z" fill="url(#paint14_linear)"/>
<path d="M118.494 211.807L140.193 371.154C141.417 380.501 149.428 387.512 158.887 387.512H250.467C259.814 387.512 267.826 380.612 269.161 371.377L292.418 212.697L118.494 211.807Z" fill="url(#paint15_linear)"/>
<path d="M156.439 213.254H324.02C329.473 213.254 333.924 208.803 333.924 203.35C333.924 197.898 329.473 193.447 324.02 193.447H156.439C150.986 193.447 146.535 197.898 146.535 203.35C146.535 208.803 150.986 213.254 156.439 213.254Z" fill="url(#paint16_linear)"/>
<path d="M119.94 213.254H290.304C295.756 213.254 300.207 208.803 300.207 203.35C300.207 197.898 295.756 193.447 290.304 193.447H119.94C114.488 193.447 110.037 197.898 110.037 203.35C109.926 208.803 114.377 213.254 119.94 213.254Z" fill="url(#paint17_linear)"/>
<path d="M205.845 269.337L193.271 288.365L184.258 283.135L198.279 260.212L205.845 269.337Z" fill="url(#paint18_linear)"/>
<path d="M198.279 260.212H210.074L221.09 278.573L212.299 284.136L198.279 260.212Z" fill="url(#paint19_linear)"/>
<path d="M228.212 274.122L204.844 288.365L225.096 294.151L228.212 274.122Z" fill="url(#paint20_linear)"/>
<path d="M233.998 322.081L223.761 301.718L232.774 296.488L245.682 320.078L233.998 322.081Z" fill="url(#paint21_linear)"/>
<path d="M245.682 320.078L239.784 330.316L218.42 330.761L218.086 320.301L245.682 320.078Z" fill="url(#paint22_linear)"/>
<path d="M218.753 339.107L218.086 311.733L202.952 326.421L218.753 339.107Z" fill="url(#paint23_linear)"/>
<path d="M173.798 320.412L196.609 321.97L196.387 332.43L169.569 331.429L173.798 320.412Z" fill="url(#paint24_linear)"/>
<path d="M169.569 331.429L163.783 321.191L174.354 302.497L183.479 307.504L169.569 331.429Z" fill="url(#paint25_linear)"/>
<path d="M166.899 298.491L190.823 311.955L185.927 291.481L166.899 298.491Z" fill="url(#paint26_linear)"/>
<path d="M129.51 100.865L154.992 97.193L117.047 148.269L129.51 100.865Z" fill="#FF9F6A"/>
<path d="M154.992 97.193L123.612 139.033L157.885 182.096L193.271 141.036L154.992 97.193ZM171.239 133.358L157.552 118.335C156.328 117 156.439 114.997 157.774 113.773C159.109 112.549 161.112 112.66 162.336 113.996L176.023 129.018C177.247 130.353 177.136 132.356 175.801 133.58C174.466 134.693 172.463 134.582 171.239 133.358Z" fill="#FF9F6A"/>
<path d="M154.992 97.193L123.612 139.033L157.885 182.096L193.271 141.036L154.992 97.193ZM171.239 133.358L157.552 118.335C156.328 117 156.439 114.997 157.774 113.773C159.109 112.549 161.112 112.66 162.336 113.996L176.023 129.018C177.247 130.353 177.136 132.356 175.801 133.58C174.466 134.693 172.463 134.582 171.239 133.358Z" fill="url(#paint27_linear)"/>
<path d="M129.51 100.865L98.1303 142.705L132.403 185.768L167.9 144.708L129.51 100.865ZM145.868 137.03L132.181 122.007C130.957 120.672 131.068 118.669 132.403 117.445C133.739 116.221 135.742 116.332 136.966 117.668L150.653 132.69C151.877 134.025 151.765 136.028 150.43 137.252C149.095 138.365 147.092 138.365 145.868 137.03Z" fill="#FF9F6A"/>
<path d="M129.51 100.865L98.1303 142.705L132.403 185.768L167.9 144.708L129.51 100.865ZM145.868 137.03L132.181 122.007C130.957 120.672 131.068 118.669 132.403 117.445C133.739 116.221 135.742 116.332 136.966 117.668L150.653 132.69C151.877 134.025 151.765 136.028 150.43 137.252C149.095 138.365 147.092 138.365 145.868 137.03Z" fill="url(#paint28_linear)"/>
<path d="M167.9 144.708L193.271 141.036L157.885 182.096L132.403 185.768L167.9 144.708Z" fill="#FF9F6A"/>
<path d="M246.238 135.472L271.609 119.337L285.964 163.847L261.817 184.544L246.238 135.472Z" fill="#F37CB4"/>
<path d="M249.911 108.321L271.609 119.337L233.776 131.466L249.911 108.321Z" fill="#F37CB4"/>
<path d="M249.911 108.321L271.609 119.337L233.776 131.466L249.911 108.321Z" fill="url(#paint29_linear)"/>
<path d="M220.534 140.257L228.879 114.663L249.911 108.321L246.238 135.472L220.534 140.257Z" fill="#F37CB4"/>
<path d="M246.238 135.472L271.609 119.337L285.964 163.847L261.817 184.544L246.238 135.472Z" fill="url(#paint30_linear)"/>
<path d="M246.238 135.472L220.534 140.257L236.335 189.552L261.817 184.544L246.238 135.472Z" fill="#F37CB4"/>
<path d="M246.238 135.472L220.534 140.257L236.335 189.552L261.817 184.544L246.238 135.472Z" fill="url(#paint31_linear)"/>
<path d="M271.609 119.337L246.238 135.472L249.243 113.217L271.609 119.337Z" fill="#F37CB4"/>
<path d="M249.911 108.321L228.879 114.663L228.212 111.77L249.02 105.094L249.911 108.321Z" fill="#F37CB4"/>
<path d="M249.911 108.321L228.879 114.663L228.212 111.77L249.02 105.094L249.911 108.321Z" fill="url(#paint32_linear)"/>
<path d="M271.609 119.337L246.238 135.472L249.243 113.217L271.609 119.337Z" fill="url(#paint33_linear)"/>
<path d="M246.461 59.1367C246.461 59.1367 237.336 67.1485 237.67 72.8236C238.004 77.9423 238.783 96.0802 213.19 114.663C213.19 114.663 209.072 119.226 208.627 124.456C208.405 127.237 205.511 129.129 202.841 128.239C200.282 127.349 196.609 125.568 191.491 122.341C183.59 117.223 180.808 112.772 179.807 109.545C179.139 107.319 180.363 104.871 182.589 103.981C185.593 102.979 189.933 100.531 191.713 95.5238C194.384 87.7345 202.173 70.9319 222.982 60.3607C222.982 60.3607 228.657 59.0254 230.215 47.564L246.461 59.1367Z" fill="#91D9ED"/>
<path d="M246.461 59.1367C246.461 59.1367 237.336 67.1485 237.67 72.8236C238.004 77.9423 238.783 96.0802 213.19 114.663C213.19 114.663 209.072 119.226 208.627 124.456C208.405 127.237 205.511 129.129 202.841 128.239C200.282 127.349 196.609 125.568 191.491 122.341C183.59 117.223 180.808 112.772 179.807 109.545C179.139 107.319 180.363 104.871 182.589 103.981C185.593 102.979 189.933 100.531 191.713 95.5238C194.384 87.7345 202.173 70.9319 222.982 60.3607C222.982 60.3607 228.657 59.0254 230.215 47.564L246.461 59.1367Z" fill="url(#paint34_linear)"/>
<path d="M246.795 60.0269L229.77 47.7865C229.436 47.564 229.325 47.0076 229.547 46.6738L229.881 46.0061C230.103 45.561 230.771 45.4497 231.216 45.6723L248.353 58.1352C248.798 58.469 248.798 59.0254 248.464 59.4705L248.019 59.9156C247.685 60.2494 247.129 60.3607 246.795 60.0269Z" fill="#9CDDEF"/>
<path d="M246.795 60.0269L229.77 47.7865C229.436 47.564 229.325 47.0076 229.547 46.6738L229.881 46.0061C230.103 45.561 230.771 45.4497 231.216 45.6723L248.353 58.1352C248.798 58.469 248.798 59.0254 248.464 59.4705L248.019 59.9156C247.685 60.2494 247.129 60.3607 246.795 60.0269Z" fill="url(#paint35_linear)"/>
<path d="M99.5769 385.175C99.3544 385.286 97.574 391.963 98.2416 392.742C98.9093 393.632 111.817 394.522 111.817 393.52C111.595 390.627 102.804 390.627 102.804 390.627L102.915 385.286L99.5769 385.175Z" fill="#4C2F4D"/>
<path d="M91.7876 385.954C91.5651 386.065 89.7847 392.741 90.4523 393.52C91.12 394.411 104.028 395.301 104.028 394.299C103.805 391.406 95.0146 391.406 95.0146 391.406L95.1259 386.065L91.7876 385.954Z" fill="#4C2F4D"/>
<path d="M109.703 296.154H98.3529H95.4597H84.1096C64.8589 314.403 90.5636 388.068 90.5636 388.068L96.0161 387.957L95.6823 321.414C96.3499 321.748 97.2401 321.636 97.9078 321.525L98.0191 387.957L103.472 388.068C103.249 388.068 128.954 314.403 109.703 296.154Z" fill="#1D5F8F"/>
<path d="M79.2135 235.954C79.2135 235.954 76.5428 233.283 77.3218 232.059C78.1007 230.835 80.9939 232.727 80.9939 232.727C80.9939 232.727 83.7758 211.028 100.912 214.255C118.049 217.593 113.82 233.951 117.381 238.179C120.942 242.297 144.199 258.988 117.715 273.565C91.2313 288.031 55.623 270.895 56.2907 264.663C56.9583 258.543 69.4212 261.659 67.5295 254.982C65.6378 248.306 58.4049 245.19 63.9687 239.96C69.3099 234.507 79.2135 235.954 79.2135 235.954Z" fill="#264196"/>
<path d="M96.9063 254.537C84.8885 252.534 74.4286 246.525 67.0844 237.623C65.9716 238.179 64.8589 238.847 63.8574 239.849C58.2936 245.19 65.5265 248.194 67.4182 254.871C69.3099 261.659 56.847 258.432 56.1793 264.552C55.5117 270.672 91.2312 287.92 117.604 273.454C133.182 264.886 131.513 255.65 126.839 248.639C118.16 253.981 107.477 256.317 96.9063 254.537Z" fill="url(#paint36_linear)"/>
<path d="M114.043 285.694C114.043 285.694 95.6823 263.55 102.136 258.654C108.59 253.758 117.381 275.791 117.381 275.791L141.194 274.233C141.194 274.233 152.433 272.007 153.434 273.788C154.436 275.679 148.983 280.464 141.75 278.239C141.75 278.35 118.271 288.921 114.043 285.694Z" fill="#E19E81"/>
<path d="M89.3396 257.764L89.5621 240.85L100.467 247.972L101.357 257.43C101.357 257.43 95.3485 262.771 89.3396 257.764Z" fill="#E19E81"/>
<path d="M101.024 254.537L100.356 247.972L89.4509 240.85L89.3396 245.524C90.1185 247.527 91.4538 249.53 93.1229 251.199C95.1259 253.535 98.1304 255.093 101.024 254.537Z" fill="#D38D75"/>
<path d="M86.4464 236.955C86.4464 236.955 86.7802 239.181 88.1155 239.07C89.4508 238.958 88.8945 230.056 88.8945 230.056C88.8945 230.056 91.0087 226.941 95.3484 226.162C95.3484 226.162 94.4582 235.731 105.141 236.399C105.141 236.399 106.476 245.412 102.915 248.528C99.9107 251.087 92.344 251.199 88.7832 242.408C88.7832 242.297 83.4419 241.184 86.4464 236.955Z" fill="#E19E81"/>
<path d="M79.5473 264.886C79.5473 264.886 84.4434 258.654 89.2283 257.764C94.0131 256.874 101.246 257.43 101.246 257.43C101.246 257.43 113.153 261.214 109.814 275.902C109.814 275.902 107.144 283.469 109.814 287.141C112.485 290.702 110.816 299.27 102.025 298.491C95.3485 297.823 87.3366 297.935 83.9983 298.046C83.1081 298.046 82.3292 297.378 82.2179 296.488L79.5473 264.886Z" fill="#4C2F4D"/>
<path d="M110.148 274.678C109.48 275.012 108.813 275.346 108.034 275.679C99.0205 279.24 89.3395 279.908 80.66 277.126L82.3292 296.377C82.4404 297.267 83.2194 297.935 84.1096 297.935C87.4479 297.823 95.4597 297.712 102.136 298.38C110.927 299.159 112.596 290.702 109.926 287.03C107.255 283.469 109.926 275.791 109.926 275.791C109.926 275.568 110.037 275.123 110.148 274.678Z" fill="url(#paint37_linear)"/>
<path d="M74.985 291.369C74.985 291.369 74.6511 262.66 82.7743 262.883C90.8974 263.105 83.887 285.805 83.887 285.805L103.36 299.604C103.36 299.604 113.486 304.945 113.041 306.948C112.596 308.951 105.363 309.285 101.135 303.053C101.246 303.053 76.3203 296.488 74.985 291.369Z" fill="#E19E81"/>
<defs>
<linearGradient id="paint0_linear" x1="212.142" y1="-1.53069" x2="212.142" y2="35.6044" gradientUnits="userSpaceOnUse">
<stop stop-color="#E3FF9B"/>
<stop offset="1" stop-color="#9CFDBA"/>
</linearGradient>
<linearGradient id="paint1_linear" x1="-18.0872" y1="188.025" x2="418.388" y2="188.025" gradientUnits="userSpaceOnUse">
<stop stop-color="#E3FF9B"/>
<stop offset="1" stop-color="#9CFDBA"/>
</linearGradient>
<linearGradient id="paint2_linear" x1="148.204" y1="25.3406" x2="148.204" y2="48.3666" gradientUnits="userSpaceOnUse">
<stop stop-color="#E3FF9B"/>
<stop offset="1" stop-color="#9CFDBA"/>
</linearGradient>
<linearGradient id="paint3_linear" x1="15.4763" y1="224.877" x2="73.1472" y2="355.687" gradientUnits="userSpaceOnUse">
<stop stop-opacity="0"/>
<stop offset="1"/>
</linearGradient>
<linearGradient id="paint4_linear" x1="-25.7954" y1="271.458" x2="38.7699" y2="347.401" gradientUnits="userSpaceOnUse">
<stop stop-opacity="0"/>
<stop offset="1"/>
</linearGradient>
<linearGradient id="paint5_linear" x1="391.677" y1="233.279" x2="313.745" y2="353.125" gradientUnits="userSpaceOnUse">
<stop stop-opacity="0"/>
<stop offset="1"/>
</linearGradient>
<linearGradient id="paint6_linear" x1="413.144" y1="284.661" x2="363.661" y2="328.988" gradientUnits="userSpaceOnUse">
<stop stop-opacity="0"/>
<stop offset="1"/>
</linearGradient>
<linearGradient id="paint7_linear" x1="44.9498" y1="324.3" x2="94.8104" y2="324.3" gradientUnits="userSpaceOnUse">
<stop stop-opacity="0"/>
<stop offset="1"/>
</linearGradient>
<linearGradient id="paint8_linear" x1="-28.6421" y1="377.395" x2="11.1325" y2="334.142" gradientUnits="userSpaceOnUse">
<stop stop-opacity="0"/>
<stop offset="1"/>
</linearGradient>
<linearGradient id="paint9_linear" x1="335.131" y1="308.933" x2="363.44" y2="342.338" gradientUnits="userSpaceOnUse">
<stop stop-opacity="0"/>
<stop offset="1"/>
</linearGradient>
<linearGradient id="paint10_linear" x1="67.2118" y1="297.193" x2="67.2118" y2="382.739" gradientUnits="userSpaceOnUse">
<stop stop-opacity="0"/>
<stop offset="1"/>
</linearGradient>
<linearGradient id="paint11_linear" x1="356.529" y1="297.193" x2="356.529" y2="382.739" gradientUnits="userSpaceOnUse">
<stop stop-opacity="0"/>
<stop offset="1"/>
</linearGradient>
<linearGradient id="paint12_linear" x1="317.837" y1="101.026" x2="336.105" y2="116.048" gradientUnits="userSpaceOnUse">
<stop/>
<stop offset="1" stop-opacity="0"/>
</linearGradient>
<linearGradient id="paint13_linear" x1="341.725" y1="207.632" x2="339.499" y2="153.942" gradientUnits="userSpaceOnUse">
<stop/>
<stop offset="1" stop-opacity="0"/>
</linearGradient>
<linearGradient id="paint14_linear" x1="303.634" y1="376.08" x2="243.363" y2="286.635" gradientUnits="userSpaceOnUse">
<stop stop-color="#77D28C"/>
<stop offset="1" stop-color="#345C58"/>
</linearGradient>
<linearGradient id="paint15_linear" x1="205.514" y1="387.522" x2="205.514" y2="200.482" gradientUnits="userSpaceOnUse">
<stop stop-color="#77D28C"/>
<stop offset="1" stop-color="#345C58"/>
</linearGradient>
<linearGradient id="paint16_linear" x1="349.753" y1="202.246" x2="304.871" y2="202.674" gradientUnits="userSpaceOnUse">
<stop stop-color="#77D28C"/>
<stop offset="1" stop-color="#345C58"/>
</linearGradient>
<linearGradient id="paint17_linear" x1="117.74" y1="201.251" x2="374.212" y2="207.235" gradientUnits="userSpaceOnUse">
<stop stop-color="#77D28C"/>
<stop offset="1" stop-color="#345C58"/>
</linearGradient>
<linearGradient id="paint18_linear" x1="184.255" y1="274.336" x2="205.833" y2="274.336" gradientUnits="userSpaceOnUse">
<stop stop-color="white"/>
<stop offset="1" stop-color="#AFAFAF"/>
</linearGradient>
<linearGradient id="paint19_linear" x1="204.624" y1="259.782" x2="223.359" y2="295.314" gradientUnits="userSpaceOnUse">
<stop stop-color="white"/>
<stop offset="1" stop-color="#AFAFAF"/>
</linearGradient>
<linearGradient id="paint20_linear" x1="205.118" y1="259.522" x2="223.853" y2="295.054" gradientUnits="userSpaceOnUse">
<stop stop-color="white"/>
<stop offset="1" stop-color="#AFAFAF"/>
</linearGradient>
<linearGradient id="paint21_linear" x1="240.495" y1="300.88" x2="229.728" y2="319.58" gradientUnits="userSpaceOnUse">
<stop stop-color="white"/>
<stop offset="1" stop-color="#AFAFAF"/>
</linearGradient>
<linearGradient id="paint22_linear" x1="242.943" y1="325.794" x2="202.802" y2="324.3" gradientUnits="userSpaceOnUse">
<stop stop-color="white"/>
<stop offset="1" stop-color="#AFAFAF"/>
</linearGradient>
<linearGradient id="paint23_linear" x1="242.921" y1="326.352" x2="202.781" y2="324.857" gradientUnits="userSpaceOnUse">
<stop stop-color="white"/>
<stop offset="1" stop-color="#AFAFAF"/>
</linearGradient>
<linearGradient id="paint24_linear" x1="188.705" y1="336.77" x2="178.138" y2="317.957" gradientUnits="userSpaceOnUse">
<stop stop-color="white"/>
<stop offset="1" stop-color="#AFAFAF"/>
</linearGradient>
<linearGradient id="paint25_linear" x1="166.041" y1="326.138" x2="187.846" y2="292.403" gradientUnits="userSpaceOnUse">
<stop stop-color="white"/>
<stop offset="1" stop-color="#AFAFAF"/>
</linearGradient>
<linearGradient id="paint26_linear" x1="165.572" y1="325.835" x2="187.377" y2="292.1" gradientUnits="userSpaceOnUse">
<stop stop-color="white"/>
<stop offset="1" stop-color="#AFAFAF"/>
</linearGradient>
<linearGradient id="paint27_linear" x1="136.502" y1="159.968" x2="177.113" y2="118.484" gradientUnits="userSpaceOnUse">
<stop/>
<stop offset="1" stop-opacity="0"/>
</linearGradient>
<linearGradient id="paint28_linear" x1="111.669" y1="160.843" x2="170.406" y2="107.631" gradientUnits="userSpaceOnUse">
<stop/>
<stop offset="1" stop-opacity="0"/>
</linearGradient>
<linearGradient id="paint29_linear" x1="231.211" y1="123.357" x2="269.003" y2="111.201" gradientUnits="userSpaceOnUse">
<stop/>
<stop offset="1" stop-opacity="0"/>
</linearGradient>
<linearGradient id="paint30_linear" x1="289.357" y1="192.036" x2="248.254" y2="119.213" gradientUnits="userSpaceOnUse">
<stop/>
<stop offset="1" stop-opacity="0"/>
</linearGradient>
<linearGradient id="paint31_linear" x1="223.226" y1="191.379" x2="251.487" y2="145.751" gradientUnits="userSpaceOnUse">
<stop/>
<stop offset="1" stop-opacity="0"/>
</linearGradient>
<linearGradient id="paint32_linear" x1="228.522" y1="113.429" x2="249.479" y2="106.688" gradientUnits="userSpaceOnUse">
<stop/>
<stop offset="1" stop-opacity="0"/>
</linearGradient>
<linearGradient id="paint33_linear" x1="273.185" y1="103.679" x2="238.419" y2="137.985" gradientUnits="userSpaceOnUse">
<stop/>
<stop offset="1" stop-opacity="0"/>
</linearGradient>
<linearGradient id="paint34_linear" x1="216.789" y1="55.9364" x2="208.443" y2="117.138" gradientUnits="userSpaceOnUse">
<stop/>
<stop offset="1" stop-opacity="0"/>
</linearGradient>
<linearGradient id="paint35_linear" x1="237.803" y1="46.7725" x2="238.869" y2="52.2899" gradientUnits="userSpaceOnUse">
<stop/>
<stop offset="1" stop-opacity="0"/>
</linearGradient>
<linearGradient id="paint36_linear" x1="85.1646" y1="296.934" x2="97.8223" y2="241.436" gradientUnits="userSpaceOnUse">
<stop/>
<stop offset="1" stop-opacity="0"/>
</linearGradient>
<linearGradient id="paint37_linear" x1="96.362" y1="304.42" x2="95.5274" y2="270.481" gradientUnits="userSpaceOnUse">
<stop/>
<stop offset="1" stop-opacity="0"/>
</linearGradient>
</defs>
</svg>
