<svg width="106" height="147" viewBox="0 0 106 147" fill="none" xmlns="http://www.w3.org/2000/svg">
<path d="M10.2413 0.666742C10.0956 0.180814 9.6024 -0.113002 9.10925 0.0452067L2.69829 1.98892C2.20514 2.13583 1.93615 2.65565 2.08185 3.15288L2.82158 5.60512L10.981 3.11898L10.2413 0.666742Z" fill="#334B63"/>
<path d="M22.9061 31.1446L20.6197 23.5166C21.3482 21.2226 20.6309 18.7591 19.8239 16.0582C18.4454 11.4588 14.9485 8.22685 11.2947 7.63922L10.0282 3.41278L3.80775 5.31129L5.07426 9.53773C2.35072 12.0691 1.20751 16.7136 2.58609 21.313C3.40427 24.0251 4.07675 26.5339 5.94848 28.0369L8.20128 35.5744C6.86753 38.5352 7.50639 42.0723 8.63839 45.8806C9.5014 48.7396 11.0145 51.1693 12.875 52.9209C13.3121 53.0113 13.8053 53.0113 14.3545 52.8644C17.078 52.1524 16.0469 49.5646 15.8563 49.1352C16.0805 49.6098 17.9634 53.5763 21.337 52.548C24.7218 51.5196 24.1054 47.135 24.0381 46.6377C24.1054 47.0898 24.6658 49.8471 27.3445 48.9205C27.8825 48.7283 28.3084 48.4571 28.6222 48.1181C29.205 45.6207 29.1378 42.7616 28.2748 39.9025C27.1427 36.1281 25.6409 32.8735 22.9061 31.1446Z" fill="#9AB3C1"/>
<path d="M18.2549 23.0646C18.1428 23.0646 18.0195 23.0194 17.9411 22.929C17.7618 22.7482 17.7618 22.4657 17.9411 22.2849C18.6696 21.5503 18.1652 18.5556 16.7194 15.0072C15.6883 12.4759 12.3931 11.1311 12.3595 11.1198C12.1241 11.0294 12.0121 10.7582 12.1017 10.5322C12.1914 10.2949 12.4604 10.1819 12.6845 10.2723C12.8303 10.3288 16.372 11.764 17.5488 14.6569C17.9299 15.6062 18.636 17.4595 18.9722 19.245C19.3309 21.0983 19.1964 22.2962 18.5687 22.929C18.4903 23.0307 18.3782 23.0646 18.2549 23.0646Z" fill="white"/>
<path d="M57.427 33.5322L44.8256 38.2242L52.0113 17.0428L64.6127 12.3509L57.427 33.5322Z" fill="#685918"/>
<path d="M64.5994 12.3953L57.4226 33.5402L86.7799 43.6841L93.9567 22.5393L64.5994 12.3953Z" fill="#635311"/>
<path d="M52.0092 17.05L44.8201 38.2314L74.2951 48.416L81.4843 27.2347L52.0092 17.05Z" fill="#897619"/>
<path d="M86.7729 43.6788L74.2959 48.4093L81.4912 27.228L93.9682 22.4878L86.7729 43.6788Z" fill="#776415"/>
<path d="M103.871 14.1562L74.468 4L64.5745 12.3895L93.9777 22.5554L103.871 14.1562Z" fill="#776415"/>
<path d="M47.8109 9.20362L60.3453 4.48271L64.5936 12.3412L52.0592 17.0525L47.8109 9.20362Z" fill="#897619"/>
<path d="M81.4624 27.2184L93.9968 22.4975L104.522 23.6946L91.9875 28.4058L81.4624 27.2184Z" fill="#897619"/>
<path d="M69.4064 27.9328L40.0032 17.7766L52.0592 17.0621L81.4624 27.228L69.4064 27.9328Z" fill="#776415"/>
<path d="M89.799 49.0128L68.1365 39.1559C67.084 38.9242 66.5099 39.1945 66.0315 39.9379L79.915 8.87065C80.3169 7.97281 81.2833 7.55767 82.087 7.92453L103.759 17.7718L89.799 49.0128Z" fill="#BCBBBB"/>
<path d="M90.4688 50.5478L68.3182 40.4688C67.2562 40.1985 66.6438 40.4688 66.1941 41.2315L80.0776 10.1643C80.4795 9.26646 81.4459 8.86098 82.3358 9.08303L104.486 19.162L90.4688 50.5478Z" fill="#CCCCCC"/>
<path d="M91.043 51.7546L68.8829 41.6756C67.8112 41.4343 67.926 40.0923 67.4476 40.8454L80.6231 11.3711C81.025 10.4733 82.0201 10.0678 82.843 10.4443L105.003 20.5136L91.043 51.7546Z" fill="#E0DFDE"/>
<path d="M104.793 21.759L80.9389 10.9077C79.9725 10.2222 79.7428 9.56574 79.9916 8.71617L66.1081 39.7834C65.7062 40.6812 66.0985 41.7432 66.9788 42.139L90.8324 52.9903L104.793 21.759Z" fill="#EFEFED"/>
<path d="M95.676 20.7402L83.844 47.213L89.4612 49.7689L101.293 23.2961L95.676 20.7402Z" fill="#4385B5"/>
<path d="M98.5062 26.4123L98.2 27.0881C98.0086 27.5225 97.8555 27.8122 97.7407 27.9473C97.6354 28.0825 97.5111 28.1694 97.3867 28.208C97.2623 28.2466 97.1379 28.2466 97.0135 28.2176C96.8891 28.1887 96.669 28.1018 96.3437 27.9473L95.1381 27.397C94.8319 27.2522 94.631 27.146 94.5353 27.0688C94.4396 26.9916 94.3822 26.9047 94.3631 26.8081C94.3344 26.7116 94.3344 26.5958 94.3631 26.4799C94.3918 26.3641 94.4492 26.1903 94.5449 25.9779L95.052 24.8387L98.5062 26.4123ZM97.5111 27.0495L95.2434 26.0165C95.186 26.1517 95.1764 26.2385 95.2147 26.2965C95.2529 26.3544 95.3869 26.4316 95.6165 26.5378L96.9561 27.146C97.1092 27.2136 97.2144 27.2619 97.2623 27.2715C97.3101 27.2812 97.358 27.2715 97.3867 27.2426C97.4249 27.2136 97.4632 27.1557 97.5111 27.0495Z" fill="#0E3049"/>
<path d="M96.717 30.4188L93.0332 29.3665L93.4446 28.4397L94.0857 28.6714L94.2292 28.3432L93.636 28.0053L94.057 27.0688L97.3006 29.0962L96.717 30.4188ZM94.7172 28.9224C95.1286 29.0576 95.6358 29.2314 96.229 29.4438C95.6071 29.0479 95.1574 28.7776 94.8607 28.6135L94.7172 28.9224Z" fill="#0E3049"/>
<path d="M96.009 31.9925L92.5645 30.4188L92.9663 29.5113L96.4109 31.085L96.009 31.9925Z" fill="#0E3049"/>
<path d="M95.4444 33.2572L92.6888 32.0021L92.44 32.5524L91.7511 32.2338L92.4017 30.776L95.8463 32.3497L95.4444 33.2572Z" fill="#0E3049"/>
<path d="M94.3632 35.6707L92.4591 34.0102L91.2152 33.4406L91.5884 32.6007L92.8322 33.1703L95.32 33.5371L94.9468 34.3674C94.2196 34.1936 93.7317 34.0585 93.4925 33.9716C93.8369 34.1936 94.2579 34.4832 94.7363 34.8405L94.3632 35.6707Z" fill="#0E3049"/>
<path d="M93.0522 38.6249L89.6077 37.0513L89.9617 36.2596L91.7414 36.501L90.1722 35.7866L90.5071 35.0335L93.9517 36.6072L93.6168 37.3602L91.8371 37.1575L93.3871 37.8622L93.0522 38.6249Z" fill="#0E3049"/>
<path d="M92.8896 38.9821L92.2199 40.4882L91.5309 40.1696L91.7989 39.5614L91.1482 39.2621L90.8994 39.8317L90.2392 39.5324L90.488 38.9628L89.7321 38.6152L89.4355 39.2814L88.7466 38.9628L89.4451 37.3892L92.8896 38.9821Z" fill="#0E3049"/>
<path d="M90.5453 44.2243L87.2729 42.2549L87.7801 41.1253C88.3542 41.2605 88.9952 41.4439 89.7129 41.6756C89.4354 41.5115 88.8708 41.1447 88.0193 40.604L88.5168 39.4841L92.1432 40.6523L91.7509 41.5308L90.507 41.0771L89.3014 40.6426C89.8851 40.9516 90.641 41.3957 91.5595 41.9653L91.1385 42.9017C91.0333 42.8728 90.641 42.7279 89.9521 42.4866L88.5934 41.9942C89.4067 42.4287 90.1817 42.8824 90.928 43.3651L90.5453 44.2243Z" fill="#0E3049"/>
<path d="M88.5648 45.8463L88.9379 45.0063L89.1963 45.1222C89.3111 45.1801 89.3972 45.1994 89.4355 45.1898C89.4737 45.1801 89.512 45.1512 89.5312 45.1029C89.5599 45.045 89.5503 44.9967 89.5216 44.9484C89.4929 44.9001 89.4259 44.8519 89.3398 44.8133C89.225 44.765 89.1293 44.736 89.0623 44.7457C88.9953 44.7457 88.8805 44.8036 88.737 44.9098C88.316 45.2091 88.0098 45.3732 87.8089 45.4022C87.6079 45.4408 87.34 45.3829 87.0051 45.2284C86.7564 45.1125 86.5937 45.0063 86.498 44.8905C86.4119 44.7746 86.3641 44.6202 86.3545 44.4174C86.3545 44.2147 86.3928 44.0023 86.498 43.7803C86.6033 43.5389 86.7468 43.3555 86.9095 43.2203C87.0721 43.0948 87.2443 43.0272 87.407 43.0465C87.5697 43.0562 87.7802 43.1238 88.0385 43.2396L88.2681 43.3458L87.895 44.1857L87.474 43.9926C87.34 43.9347 87.2539 43.9058 87.2061 43.9154C87.1582 43.9251 87.12 43.954 87.0912 44.012C87.0625 44.0699 87.0721 44.1278 87.1008 44.1761C87.1391 44.2243 87.1965 44.2726 87.2922 44.3112C87.4931 44.4078 87.6366 44.4367 87.7323 44.4078C87.8184 44.3788 87.9907 44.2823 88.2394 44.1278C88.4882 43.9733 88.6604 43.8671 88.7657 43.8285C88.8614 43.7899 88.9858 43.7706 89.1197 43.7706C89.2632 43.7803 89.4163 43.8189 89.6077 43.9058C89.8756 44.0216 90.0478 44.1471 90.1435 44.2726C90.2392 44.3981 90.2775 44.5526 90.287 44.736C90.287 44.9195 90.2392 45.1222 90.1435 45.3346C90.0383 45.5663 89.9139 45.7497 89.7608 45.8849C89.6077 46.02 89.4642 46.078 89.3302 46.0876C89.1963 46.0876 88.9858 46.0297 88.7083 45.9042L88.5648 45.8463Z" fill="#0E3049"/>
<path d="M84.0271 15.4424L78.6854 27.3938L87.3991 31.3587L92.7408 19.4073L84.0271 15.4424Z" fill="#E54833"/>
<path d="M86.0989 32.6357L80.3009 45.608L80.9115 45.8858L86.7095 32.9135L86.0989 32.6357Z" fill="#AFAEAE"/>
<path d="M84.86 32.0704L79.062 45.0428L79.6726 45.3206L85.4706 32.3482L84.86 32.0704Z" fill="#AFAEAE"/>
<path d="M83.6984 31.5411L77.9004 44.5134L78.511 44.7912L84.309 31.8189L83.6984 31.5411Z" fill="#AFAEAE"/>
<path d="M82.3393 30.9201L76.5413 43.8924L77.1518 44.1702L82.9498 31.1979L82.3393 30.9201Z" fill="#AFAEAE"/>
<path d="M81.0662 30.3389L75.2682 43.3112L75.8788 43.5891L81.6768 30.6167L81.0662 30.3389Z" fill="#AFAEAE"/>
<path d="M79.7633 29.7545L73.9653 42.7269L74.5759 43.0047L80.3739 30.0323L79.7633 29.7545Z" fill="#AFAEAE"/>
<path d="M78.5758 29.2133L72.7778 42.1857L73.3884 42.4635L79.1864 29.4911L78.5758 29.2133Z" fill="#AFAEAE"/>
<path d="M77.2449 28.5999L71.4469 41.5722L72.0226 41.8341L77.8206 28.8618L77.2449 28.5999Z" fill="#AFAEAE"/>
<path d="M81.9694 14.5097L70.1375 40.9825L70.748 41.2603L82.58 14.7876L81.9694 14.5097Z" fill="#AFAEAE"/>
<path d="M80.6963 13.9286L68.8643 40.4013L69.4748 40.6791L81.3069 14.2064L80.6963 13.9286Z" fill="#AFAEAE"/>
<path d="M79.3374 13.3075L67.5054 39.7803L68.1159 40.0581L79.9479 13.5854L79.3374 13.3075Z" fill="#AFAEAE"/>
<path d="M42.69 27.6114L20.5499 19.227L12.0642 41.7588C12.0642 41.769 12.0642 41.769 12.054 41.7792C11.4741 43.3092 15.9713 46.4202 22.0863 48.7356C28.2013 51.051 33.6244 51.6936 34.1942 50.1636C34.1942 50.1534 34.1942 50.1534 34.2043 50.1432L42.69 27.6114Z" fill="#9B943D"/>
<path d="M42.661 27.6997C43.2369 26.1714 38.7476 23.0556 32.6339 20.7403C26.5201 18.425 21.0971 17.787 20.5212 19.3153C19.9453 20.8435 24.4346 23.9594 30.5483 26.2747C36.6621 28.59 42.0851 29.228 42.661 27.6997Z" fill="#557489"/>
<path d="M27.4077 34.5984C24.4367 33.4764 21.7506 32.1198 19.8377 30.804C18.4336 29.835 16.8566 28.4478 17.2534 27.3768C17.2941 27.2748 17.4162 27.2136 17.5179 27.2544C17.6197 27.2952 17.6807 27.4176 17.64 27.5196C17.406 28.1418 18.3115 29.2434 20.0718 30.4572C21.9541 31.7628 24.6097 33.099 27.5502 34.2108C30.4907 35.3226 33.3599 36.0876 35.6391 36.3528C37.7656 36.6078 39.1697 36.3834 39.4037 35.7612C39.4444 35.6592 39.5665 35.598 39.6682 35.6388C39.77 35.6796 39.831 35.802 39.7903 35.904C39.3833 36.975 37.2874 36.9648 35.5984 36.7608C33.2887 36.4956 30.3787 35.7204 27.4077 34.5984Z" fill="#877F36"/>
<path d="M26.787 36.2508C23.816 35.1288 21.1299 33.7722 19.217 32.4564C17.8129 31.4874 16.2358 30.1002 16.6326 29.0292C16.6733 28.9272 16.7954 28.866 16.8972 28.9068C16.9989 28.9476 17.06 29.07 17.0193 29.172C16.7853 29.7942 17.6908 30.8958 19.451 32.1096C21.3334 33.4152 23.989 34.7514 26.9294 35.8632C29.8699 36.975 32.7392 37.74 35.0183 38.0052C37.1448 38.2602 38.549 38.0358 38.783 37.4136C38.8237 37.3116 38.9458 37.2504 39.0475 37.2912C39.1493 37.332 39.2103 37.4544 39.1696 37.5564C38.7626 38.6274 36.6666 38.6172 34.9776 38.4132C32.668 38.148 29.758 37.383 26.787 36.2508Z" fill="#877F36"/>
<path d="M26.146 37.9542C23.175 36.8322 20.4889 35.4756 18.576 34.1598C17.1719 33.1908 15.5948 31.8036 15.9917 30.7326C16.0324 30.6306 16.1544 30.5694 16.2562 30.6102C16.3579 30.651 16.419 30.7734 16.3783 30.8754C16.1443 31.4976 17.0498 32.5992 18.81 33.813C20.6924 35.1186 23.348 36.4548 26.2884 37.5666C29.2289 38.6784 32.0982 39.4434 34.3773 39.7086C36.5038 39.9636 37.908 39.7392 38.142 39.117C38.1827 39.015 38.3048 38.9538 38.4065 38.9946C38.5083 39.0354 38.5693 39.1578 38.5286 39.2598C38.1216 40.3308 36.0256 40.3206 34.3366 40.1166C32.027 39.8412 29.117 39.0762 26.146 37.9542Z" fill="#877F36"/>
<path d="M25.4745 39.7188C22.5035 38.5968 19.8174 37.2402 17.9045 35.9244C16.5004 34.9554 14.9233 33.5682 15.3201 32.4972C15.3608 32.3952 15.4829 32.334 15.5847 32.3748C15.6864 32.4156 15.7475 32.538 15.7068 32.64C15.4728 33.2622 16.3783 34.3638 18.1385 35.5776C20.0209 36.8832 22.6765 38.2194 25.6169 39.3312C28.5574 40.443 31.4267 41.208 33.7058 41.4732C35.8323 41.7282 37.2364 41.5038 37.4705 40.8816C37.5112 40.7796 37.6333 40.7184 37.735 40.7592C37.8367 40.8 37.8978 40.9224 37.8571 41.0244C37.4501 42.0954 35.3541 42.0852 33.6651 41.8812C31.3555 41.616 28.4455 40.851 25.4745 39.7188Z" fill="#877F36"/>
<path d="M24.8539 41.3814C21.8829 40.2594 19.1968 38.9028 17.2839 37.587C15.8798 36.618 14.3027 35.2308 14.6995 34.1598C14.7402 34.0578 14.8623 33.9966 14.9641 34.0374C15.0658 34.0782 15.1269 34.2006 15.0862 34.3026C14.8522 34.9248 15.7577 36.0264 17.5179 37.2402C19.4002 38.5458 22.0558 39.882 24.9963 40.9938C27.9368 42.1056 30.8061 42.8706 33.0852 43.1358C35.2117 43.3908 36.6158 43.1664 36.8498 42.5442C36.8905 42.4422 37.0126 42.381 37.1144 42.4218C37.2161 42.4626 37.2772 42.585 37.2365 42.687C36.8295 43.758 34.7335 43.7478 33.0445 43.5438C30.7349 43.2786 27.8249 42.5034 24.8539 41.3814Z" fill="#877F36"/>
<path d="M24.2129 43.0746C21.2419 41.9526 18.5558 40.596 16.6429 39.2802C15.2388 38.3112 13.6617 36.924 14.0585 35.853C14.0992 35.751 14.2213 35.6898 14.3231 35.7306C14.4248 35.7714 14.4859 35.8938 14.4452 35.9958C14.2112 36.618 15.1167 37.7196 16.8769 38.9334C18.7593 40.239 21.4149 41.5752 24.3553 42.687C27.2958 43.7988 30.1651 44.5638 32.4442 44.829C34.5707 45.084 35.9748 44.8596 36.2089 44.2374C36.2496 44.1354 36.3717 44.0742 36.4734 44.115C36.5752 44.1558 36.6362 44.2782 36.5955 44.3802C36.1885 45.4512 34.0925 45.441 32.4035 45.237C30.0939 44.9718 27.1839 44.1966 24.2129 43.0746Z" fill="#877F36"/>
<path d="M41.1222 27.5142C41.6246 26.1809 37.7064 23.462 32.3707 21.4413C27.0349 19.4206 22.3022 18.8634 21.7997 20.1967C21.2973 21.53 25.2155 24.2489 30.5512 26.2696C35.887 28.2903 40.6197 28.8475 41.1222 27.5142Z" fill="#3C525E"/>
<path d="M44.3281 13.872C44.3281 13.872 43.8702 13.2192 44.0534 12.5154C44.2365 11.8116 44.7961 11.577 44.7961 11.577C44.7961 11.577 44.2874 11.016 44.3281 10.2918C44.3688 9.5676 44.9284 9.1494 44.9284 9.1494C44.9284 9.1494 44.2365 8.5782 44.1348 7.9764C44.033 7.3746 44.5011 6.7728 44.5011 6.7728C44.5011 6.7728 43.7481 6.5484 43.5548 6.0384C43.3615 5.5284 43.7481 5.049 43.7481 5.049C43.7481 5.049 42.751 4.4982 42.4763 4.1004C42.2016 3.7026 42.6696 2.9478 42.4865 3.1212C42.3135 3.2844 41.6521 3.0498 41.1943 2.6724C41.1739 2.652 41.1536 2.6316 41.1332 2.6112C41.1231 2.601 41.1231 2.601 41.1129 2.5908C40.655 2.1726 40.8789 1.6116 40.8789 1.6116C40.8789 1.6116 40.0751 1.8258 39.5358 1.4586C39.0067 1.0914 39.0169 0.561 39.0169 0.561C38.5896 0.9588 37.7654 0.7956 37.7654 0.7956L37.1346 0.2244C36.0764 1.173 35.5778 0 35.5778 0C35.5778 0 35.3031 0.3774 34.886 0.6426C34.4993 0.6732 34.1229 0.7344 33.7464 0.816C33.3598 0.6936 33.2071 0.3978 33.2071 0.3978C33.1766 0.6732 32.8917 0.9282 32.5865 1.1628C32.1999 1.3056 31.8234 1.4688 31.4571 1.6524C31.0705 1.5708 30.6838 1.3056 30.6838 1.3056C30.7245 1.785 29.88 2.5194 29.3916 3.0702C29.3102 3.1416 29.239 3.213 29.1576 3.2844C28.6692 3.5802 27.9977 3.1824 27.9977 3.1824C27.9977 3.1824 28.191 3.9066 27.784 4.845C27.6721 5.0082 27.5602 5.1714 27.4483 5.3346C26.8887 5.916 26.0136 6.1608 26.0136 6.1608C26.0136 6.1608 26.6038 6.9054 26.2884 7.701C25.9729 8.4966 25.1691 9.0168 25.1691 9.0168C25.1691 9.0168 25.6067 9.6186 25.6372 10.3632C25.6677 11.1078 25.0063 12.036 25.0063 12.036C25.0063 12.036 25.6372 12.4848 25.7796 13.1784C25.7796 13.1886 25.7898 13.209 25.7898 13.2192C25.7898 13.2294 25.7898 13.2396 25.8 13.26C25.9017 14.0046 25.4032 14.8308 25.4032 14.8308C25.4032 14.8308 26.2273 14.9226 26.5224 15.657C26.8174 16.3914 26.3698 16.932 26.3698 16.932C26.7259 16.8606 27.3262 17.187 27.7332 17.6664C27.7535 17.697 27.7739 17.7174 27.8044 17.748C27.8044 17.7582 27.8146 17.7582 27.8146 17.7684C28.2215 18.309 28.2215 18.9312 28.2215 18.9312C28.2215 18.9312 28.7099 18.7884 29.2899 19.1964C29.3204 19.2168 29.3509 19.2474 29.3916 19.2678L29.4018 19.278C30.0225 19.7778 29.8393 20.0226 29.8393 20.0226L34.1941 21.5526C34.306 21.165 35.4659 20.8896 35.4659 20.8896C35.5066 20.859 35.5473 20.8284 35.5778 20.808C35.6898 20.7876 35.8119 20.7774 35.9238 20.7468C36.3003 20.7978 36.6462 21.1344 36.6462 21.1344C36.6462 21.1344 36.7174 20.6346 37.4398 20.3286C37.4907 20.3082 37.5416 20.2878 37.5924 20.2674C37.6026 20.2674 37.6026 20.2674 37.6128 20.2572C38.498 19.9614 38.9457 20.3082 38.9457 20.3082C38.9457 20.3082 38.9151 19.6962 39.546 19.2372C39.5765 19.2168 39.5969 19.1964 39.6274 19.176C39.6376 19.1658 39.6477 19.1658 39.6477 19.1556C40.3803 18.6864 40.8789 18.819 40.8789 18.819C40.8789 18.819 41.1027 18.0132 41.6216 17.3706C41.6521 17.3298 41.6827 17.2992 41.7234 17.2584L41.7335 17.2482C42.3338 16.5852 43.0257 16.3914 43.0257 16.3914C43.0257 16.3914 42.9341 15.4632 43.3208 14.7696C43.7074 14.0556 44.3281 13.872 44.3281 13.872Z" fill="#6786A0"/>
<path d="M31.7114 19.227C29.6256 18.4314 27.9977 16.7892 27.143 14.586C26.2883 12.3828 26.2985 9.88381 27.1735 7.55821C28.0485 5.23261 29.6867 3.35581 31.7827 2.26441C33.8786 1.18321 36.1883 1.02001 38.2741 1.80541C40.3599 2.60101 41.9879 4.24321 42.8426 6.44641C43.6972 8.64961 43.6871 11.1486 42.812 13.4742C41.937 15.7998 40.2989 17.6766 38.2029 18.768C36.0967 19.8594 33.7972 20.0226 31.7114 19.227ZM37.979 2.58061C34.0516 1.09141 29.5137 3.43741 27.8654 7.82341C26.2171 12.1992 28.0689 16.9728 31.9963 18.462C35.9238 19.9512 40.4617 17.6052 42.11 13.2192C43.7685 8.84341 41.9065 4.06981 37.979 2.58061Z" fill="#557489"/>
<path fill-rule="evenodd" clip-rule="evenodd" d="M36.1669 37.0036C34.3863 32.7094 32.9517 29.2312 40.7048 26.008L49.7196 22.2544C55.1122 20.0104 57.0454 23.2846 58.8259 27.5788L58.8361 27.5992C60.6167 31.8934 61.5121 35.596 56.1602 37.8196L47.1454 41.5732C39.3923 44.7964 37.9475 41.3182 36.1771 37.024L36.1669 37.0036Z" fill="#C4110C"/>
<path d="M59.7437 35.0362C61.358 34.3651 61.4311 30.8344 59.9069 27.1504C58.3828 23.4663 55.8386 21.0239 54.2243 21.6951C52.61 22.3662 52.537 25.8969 54.0611 29.5809C55.5853 33.265 58.1295 35.7074 59.7437 35.0362Z" fill="#7183B5"/>
<path d="M59.4043 34.0932C60.8006 33.5127 60.8627 30.4563 59.5431 27.2666C58.2234 24.0768 56.0217 21.9616 54.6255 22.5422C53.2292 23.1227 53.1671 26.1791 54.4867 29.3689C55.8064 32.5586 58.0081 34.6738 59.4043 34.0932Z" fill="#5C6F9B"/>
<path fill-rule="evenodd" clip-rule="evenodd" d="M57.2692 30.904C57.0861 30.4552 57.3099 29.9146 57.8288 29.7004L57.8492 29.6902C58.3681 29.476 58.948 29.68 59.1312 30.1288L60.1893 32.689C60.3725 33.1378 60.0977 33.6682 59.5788 33.8926L59.5585 33.9028C59.0396 34.117 58.5003 33.913 58.3172 33.4744L57.2692 30.904Z" fill="#444343"/>
<path d="M46.6976 40.4614C46.6976 40.4614 46.6162 40.441 46.4738 40.39C46.4026 40.3594 46.311 40.3288 46.2194 40.288C46.1177 40.2472 46.0058 40.186 45.8837 40.1146C45.7616 40.0432 45.6293 39.9616 45.4869 39.8596C45.4156 39.8086 45.3444 39.7576 45.2732 39.6964C45.202 39.6352 45.1307 39.574 45.0493 39.5026C44.7543 39.2272 44.4389 38.8804 44.154 38.4316C43.8793 37.9828 43.6452 37.4422 43.513 36.82C43.3807 36.1978 43.3502 35.5144 43.4519 34.8208C43.5537 34.1374 43.7775 33.454 44.0828 32.8318C44.388 32.2096 44.7645 31.6282 45.1918 31.1182C45.3749 30.904 45.5479 30.6898 45.731 30.4756C45.7921 30.394 45.8531 30.3124 45.9244 30.2308C45.9854 30.1492 46.0465 30.0472 46.1177 29.9656C46.3721 29.6086 46.5755 29.2618 46.718 28.9252C46.7892 28.762 46.8401 28.5988 46.891 28.4356C46.9113 28.3948 46.9113 28.354 46.9215 28.3132C46.9317 28.2724 46.9418 28.2316 46.952 28.1908C46.952 28.15 46.9622 28.1092 46.9622 28.0684C46.9622 28.0276 46.9724 27.9868 46.9724 27.946C46.9927 27.6196 46.9622 27.2728 46.8706 26.9362C46.779 26.5996 46.6366 26.263 46.484 25.9774C46.3314 25.6816 46.1787 25.4164 46.0363 25.2022C46.0058 25.1512 45.9651 25.1002 45.9345 25.0492C45.904 24.9982 45.8735 24.9574 45.843 24.9166C45.7819 24.835 45.731 24.7636 45.6903 24.7024C45.5988 24.58 45.5581 24.5188 45.5581 24.5188C45.5581 24.5188 45.6395 24.5188 45.7921 24.529C45.8633 24.5392 45.9651 24.5494 46.0668 24.5698C46.1787 24.5902 46.3008 24.6208 46.4331 24.6514C46.7078 24.7228 47.0334 24.8452 47.3895 25.039C47.7456 25.2328 48.1424 25.498 48.5189 25.8958C48.8954 26.2936 49.2413 26.8138 49.4652 27.4768C49.689 28.1296 49.7399 28.8844 49.6279 29.6188C49.516 30.3532 49.2617 31.0366 48.9259 31.6588C48.8852 31.7404 48.8445 31.8118 48.7936 31.8832C48.7529 31.9546 48.7122 32.0362 48.6614 32.1076C48.5596 32.2606 48.4579 32.4136 48.3459 32.5666L48.3052 32.6278L48.2747 32.6686L48.2137 32.7502C48.173 32.8114 48.1221 32.8624 48.0814 32.9236L47.7965 33.2704C47.4811 33.6478 47.1962 34.0252 46.9622 34.4026C46.718 34.78 46.5247 35.1472 46.3721 35.5246C46.2194 35.8918 46.1177 36.259 46.0566 36.6364C45.9956 37.0138 45.9854 37.3912 46.0058 37.7584C46.0363 38.1256 46.0973 38.4826 46.1686 38.809C46.2398 39.1354 46.3314 39.421 46.4229 39.6658C46.4433 39.727 46.4636 39.7882 46.484 39.8392C46.5043 39.8902 46.5247 39.9514 46.545 39.9922C46.5857 40.0942 46.6162 40.1758 46.6468 40.237C46.6569 40.39 46.6976 40.4614 46.6976 40.4614Z" fill="#B7B3B3"/>
<path d="M45.7061 74.5675L38.4814 85.5005L33.3026 82.4955L41.3585 69.3249L45.7061 74.5675Z" fill="url(#paint0_linear)"/>
<path d="M41.3584 69.3249H48.1356L54.4651 79.8742L49.4143 83.071L41.3584 69.3249Z" fill="url(#paint1_linear)"/>
<path d="M58.557 77.3168L45.1306 85.5005L56.7669 88.8252L58.557 77.3168Z" fill="url(#paint2_linear)"/>
<path d="M61.8817 104.873L55.9996 93.1728L61.1784 90.1678L68.5949 103.722L61.8817 104.873Z" fill="url(#paint3_linear)"/>
<path d="M68.5947 103.722L65.2062 109.604L52.9306 109.86L52.7388 103.85L68.5947 103.722Z" fill="url(#paint4_linear)"/>
<path d="M53.1225 114.655L52.7389 98.9269L44.0437 107.366L53.1225 114.655Z" fill="url(#paint5_linear)"/>
<path d="M27.2926 103.914L40.3993 104.809L40.2714 110.819L24.863 110.243L27.2926 103.914Z" fill="url(#paint6_linear)"/>
<path d="M24.863 110.243L21.5383 104.361L27.6122 93.6203L32.8549 96.4974L24.863 110.243Z" fill="url(#paint7_linear)"/>
<path d="M23.3287 91.3186L37.0748 99.0548L34.2617 87.2907L23.3287 91.3186Z" fill="url(#paint8_linear)"/>
<path d="M45.7029 75.5675L38.4782 86.5005L33.2994 83.4955L41.3553 70.3249L45.7029 75.5675Z" fill="url(#paint9_linear)"/>
<path d="M41.3552 70.3249H48.1324L54.462 80.8742L49.4111 84.071L41.3552 70.3249Z" fill="url(#paint10_linear)"/>
<path d="M58.5539 78.3168L45.1274 86.5005L56.7637 89.8252L58.5539 78.3168Z" fill="url(#paint11_linear)"/>
<path d="M61.8785 105.873L55.9965 94.1728L61.1752 91.1678L68.5917 104.722L61.8785 105.873Z" fill="url(#paint12_linear)"/>
<path d="M68.5916 104.722L65.203 110.604L52.9274 110.86L52.7356 104.85L68.5916 104.722Z" fill="url(#paint13_linear)"/>
<path d="M53.1193 115.655L52.7357 99.9269L44.0405 108.366L53.1193 115.655Z" fill="url(#paint14_linear)"/>
<path d="M27.2894 104.914L40.3961 105.809L40.2683 111.819L24.8599 111.243L27.2894 104.914Z" fill="url(#paint15_linear)"/>
<path d="M24.8598 111.243L21.5352 105.361L27.609 94.6203L32.8517 97.4974L24.8598 111.243Z" fill="url(#paint16_linear)"/>
<path d="M23.3256 92.3186L37.0717 100.055L34.2585 88.2907L23.3256 92.3186Z" fill="url(#paint17_linear)"/>
<path d="M18.0917 45.5493L27.8367 137.105C28.3864 142.475 31.9845 146.503 36.2323 146.503H77.3611C81.559 146.503 85.1571 142.539 85.7568 137.233L96.2015 46.0608L18.0917 45.5493Z" fill="url(#paint18_linear)"/>
<path d="M3.79895 45.5493L13.5439 137.105C14.0936 142.475 17.6918 146.503 21.9396 146.503H63.0684C67.2663 146.503 70.8644 142.539 71.4641 137.233L81.9087 46.0608L3.79895 45.5493Z" fill="url(#paint19_linear)"/>
<path d="M20.8402 46.3805H96.1014C98.5501 46.3805 100.549 43.8231 100.549 40.6902C100.549 37.5574 98.5501 35 96.1014 35H20.8402C18.3914 35 16.3925 37.5574 16.3925 40.6902C16.3925 43.8231 18.3914 46.3805 20.8402 46.3805Z" fill="url(#paint20_linear)"/>
<path d="M4.44862 46.3805H80.9592C83.408 46.3805 85.4069 43.8231 85.4069 40.6902C85.4069 37.5574 83.408 35 80.9592 35H4.44862C1.99988 35 0.000916994 37.5574 0.000916994 40.6902C-0.0490573 43.8231 1.94991 46.3805 4.44862 46.3805Z" fill="url(#paint21_linear)"/>
<path d="M43.7029 73.5675L36.4782 84.5005L31.2994 81.4955L39.3553 68.3249L43.7029 73.5675Z" fill="url(#paint22_linear)"/>
<path d="M39.3552 68.3249H46.1324L52.462 78.8742L47.4111 82.071L39.3552 68.3249Z" fill="url(#paint23_linear)"/>
<path d="M56.5539 76.3168L43.1274 84.5005L54.7637 87.8252L56.5539 76.3168Z" fill="url(#paint24_linear)"/>
<path d="M59.8785 103.873L53.9965 92.1728L59.1752 89.1678L66.5917 102.722L59.8785 103.873Z" fill="url(#paint25_linear)"/>
<path d="M66.5916 102.722L63.203 108.604L50.9274 108.86L50.7356 102.85L66.5916 102.722Z" fill="url(#paint26_linear)"/>
<path d="M51.1193 113.655L50.7357 97.9269L42.0405 106.366L51.1193 113.655Z" fill="url(#paint27_linear)"/>
<path d="M25.2894 102.914L38.3961 103.809L38.2683 109.819L22.8599 109.243L25.2894 102.914Z" fill="url(#paint28_linear)"/>
<path d="M22.8598 109.243L19.5352 103.361L25.609 92.6203L30.8517 95.4974L22.8598 109.243Z" fill="url(#paint29_linear)"/>
<path d="M21.3256 90.3186L35.0717 98.0548L32.2585 86.2907L21.3256 90.3186Z" fill="url(#paint30_linear)"/>
<defs>
<linearGradient id="paint0_linear" x1="33.3009" y1="77.44" x2="45.6987" y2="77.44" gradientUnits="userSpaceOnUse">
<stop stop-color="white"/>
<stop offset="1" stop-color="#AFAFAF"/>
</linearGradient>
<linearGradient id="paint1_linear" x1="45.0041" y1="69.0778" x2="55.7687" y2="89.4933" gradientUnits="userSpaceOnUse">
<stop stop-color="white"/>
<stop offset="1" stop-color="#AFAFAF"/>
</linearGradient>
<linearGradient id="paint2_linear" x1="45.288" y1="68.9281" x2="56.0525" y2="89.3437" gradientUnits="userSpaceOnUse">
<stop stop-color="white"/>
<stop offset="1" stop-color="#AFAFAF"/>
</linearGradient>
<linearGradient id="paint3_linear" x1="65.6147" y1="92.6914" x2="59.4281" y2="103.436" gradientUnits="userSpaceOnUse">
<stop stop-color="white"/>
<stop offset="1" stop-color="#AFAFAF"/>
</linearGradient>
<linearGradient id="paint4_linear" x1="67.0211" y1="107.006" x2="43.9575" y2="106.147" gradientUnits="userSpaceOnUse">
<stop stop-color="white"/>
<stop offset="1" stop-color="#AFAFAF"/>
</linearGradient>
<linearGradient id="paint5_linear" x1="67.0084" y1="107.327" x2="43.9455" y2="106.468" gradientUnits="userSpaceOnUse">
<stop stop-color="white"/>
<stop offset="1" stop-color="#AFAFAF"/>
</linearGradient>
<linearGradient id="paint6_linear" x1="35.8575" y1="113.313" x2="29.7863" y2="102.503" gradientUnits="userSpaceOnUse">
<stop stop-color="white"/>
<stop offset="1" stop-color="#AFAFAF"/>
</linearGradient>
<linearGradient id="paint7_linear" x1="22.8356" y1="107.204" x2="35.3643" y2="87.8208" gradientUnits="userSpaceOnUse">
<stop stop-color="white"/>
<stop offset="1" stop-color="#AFAFAF"/>
</linearGradient>
<linearGradient id="paint8_linear" x1="22.5662" y1="107.03" x2="35.095" y2="87.6467" gradientUnits="userSpaceOnUse">
<stop stop-color="white"/>
<stop offset="1" stop-color="#AFAFAF"/>
</linearGradient>
<linearGradient id="paint9_linear" x1="33.2978" y1="78.44" x2="45.6955" y2="78.44" gradientUnits="userSpaceOnUse">
<stop stop-color="white"/>
<stop offset="1" stop-color="#AFAFAF"/>
</linearGradient>
<linearGradient id="paint10_linear" x1="45.0009" y1="70.0778" x2="55.7655" y2="90.4933" gradientUnits="userSpaceOnUse">
<stop stop-color="white"/>
<stop offset="1" stop-color="#AFAFAF"/>
</linearGradient>
<linearGradient id="paint11_linear" x1="45.2848" y1="69.9281" x2="56.0493" y2="90.3437" gradientUnits="userSpaceOnUse">
<stop stop-color="white"/>
<stop offset="1" stop-color="#AFAFAF"/>
</linearGradient>
<linearGradient id="paint12_linear" x1="65.6115" y1="93.6914" x2="59.4249" y2="104.436" gradientUnits="userSpaceOnUse">
<stop stop-color="white"/>
<stop offset="1" stop-color="#AFAFAF"/>
</linearGradient>
<linearGradient id="paint13_linear" x1="67.0179" y1="108.006" x2="43.9543" y2="107.147" gradientUnits="userSpaceOnUse">
<stop stop-color="white"/>
<stop offset="1" stop-color="#AFAFAF"/>
</linearGradient>
<linearGradient id="paint14_linear" x1="67.0053" y1="108.327" x2="43.9423" y2="107.468" gradientUnits="userSpaceOnUse">
<stop stop-color="white"/>
<stop offset="1" stop-color="#AFAFAF"/>
</linearGradient>
<linearGradient id="paint15_linear" x1="35.8543" y1="114.313" x2="29.7832" y2="103.503" gradientUnits="userSpaceOnUse">
<stop stop-color="white"/>
<stop offset="1" stop-color="#AFAFAF"/>
</linearGradient>
<linearGradient id="paint16_linear" x1="22.8324" y1="108.204" x2="35.3611" y2="88.8208" gradientUnits="userSpaceOnUse">
<stop stop-color="white"/>
<stop offset="1" stop-color="#AFAFAF"/>
</linearGradient>
<linearGradient id="paint17_linear" x1="22.563" y1="108.03" x2="35.0918" y2="88.6467" gradientUnits="userSpaceOnUse">
<stop stop-color="white"/>
<stop offset="1" stop-color="#AFAFAF"/>
</linearGradient>
<linearGradient id="paint18_linear" x1="86.9459" y1="139.935" x2="49.9903" y2="97.067" gradientUnits="userSpaceOnUse">
<stop stop-color="#F9C71C"/>
<stop offset="1" stop-color="#B68E05"/>
</linearGradient>
<linearGradient id="paint19_linear" x1="42.88" y1="146.509" x2="42.88" y2="39.0424" gradientUnits="userSpaceOnUse">
<stop stop-color="#F9C71C"/>
<stop offset="1" stop-color="#B68E05"/>
</linearGradient>
<linearGradient id="paint20_linear" x1="107.658" y1="40.056" x2="87.5007" y2="40.2061" gradientUnits="userSpaceOnUse">
<stop stop-color="#F9C71C"/>
<stop offset="1" stop-color="#B68E05"/>
</linearGradient>
<linearGradient id="paint21_linear" x1="3.46038" y1="39.4839" x2="118.667" y2="41.5851" gradientUnits="userSpaceOnUse">
<stop stop-color="#F9C71C"/>
<stop offset="1" stop-color="#BA832D"/>
<stop offset="1" stop-color="#B68E05"/>
</linearGradient>
<linearGradient id="paint22_linear" x1="31.2978" y1="76.44" x2="43.6955" y2="76.44" gradientUnits="userSpaceOnUse">
<stop stop-color="white"/>
<stop offset="1" stop-color="#AFAFAF"/>
</linearGradient>
<linearGradient id="paint23_linear" x1="43.0009" y1="68.0778" x2="53.7655" y2="88.4933" gradientUnits="userSpaceOnUse">
<stop stop-color="white"/>
<stop offset="1" stop-color="#AFAFAF"/>
</linearGradient>
<linearGradient id="paint24_linear" x1="43.2848" y1="67.9281" x2="54.0493" y2="88.3437" gradientUnits="userSpaceOnUse">
<stop stop-color="white"/>
<stop offset="1" stop-color="#AFAFAF"/>
</linearGradient>
<linearGradient id="paint25_linear" x1="63.6115" y1="91.6914" x2="57.4249" y2="102.436" gradientUnits="userSpaceOnUse">
<stop stop-color="white"/>
<stop offset="1" stop-color="#AFAFAF"/>
</linearGradient>
<linearGradient id="paint26_linear" x1="65.0179" y1="106.006" x2="41.9543" y2="105.147" gradientUnits="userSpaceOnUse">
<stop stop-color="white"/>
<stop offset="1" stop-color="#AFAFAF"/>
</linearGradient>
<linearGradient id="paint27_linear" x1="65.0053" y1="106.327" x2="41.9423" y2="105.468" gradientUnits="userSpaceOnUse">
<stop stop-color="white"/>
<stop offset="1" stop-color="#AFAFAF"/>
</linearGradient>
<linearGradient id="paint28_linear" x1="33.8543" y1="112.313" x2="27.7832" y2="101.503" gradientUnits="userSpaceOnUse">
<stop stop-color="white"/>
<stop offset="1" stop-color="#AFAFAF"/>
</linearGradient>
<linearGradient id="paint29_linear" x1="20.8324" y1="106.204" x2="33.3611" y2="86.8208" gradientUnits="userSpaceOnUse">
<stop stop-color="white"/>
<stop offset="1" stop-color="#AFAFAF"/>
</linearGradient>
<linearGradient id="paint30_linear" x1="20.563" y1="106.03" x2="33.0918" y2="86.6467" gradientUnits="userSpaceOnUse">
<stop stop-color="white"/>
<stop offset="1" stop-color="#AFAFAF"/>
</linearGradient>
</defs>
</svg>
