<svg id="Calque_3" data-name="Calque 3" xmlns="http://www.w3.org/2000/svg" viewBox="0 0 481.14 481.07"><defs><style>.cls-1{fill:#fff;stroke:#000;stroke-miterlimit:10;}</style></defs><title>loupe-full-white</title><path class="cls-1" d="M978.41,71.2" transform="translate(-826.15 -14.6)"/><path class="cls-1" d="M1233.88,44.64a168,168,0,0,0-233.6,233.6L829,449.52a8,8,0,0,0,0,11.31h0l32,32a8,8,0,0,0,11.31,0h0L1043.64,321.6a168,168,0,1,0,190.24-277Z" transform="translate(-826.15 -14.6)"/><path class="cls-1" d="M1112.7,76.92a80,80,0,0,0-80,80,8,8,0,0,0,16,0,64,64,0,0,1,64-64,8,8,0,0,0,0-16Z" transform="translate(-826.15 -14.6)"/></svg>