<svg id="Calque_3" data-name="Calque 3" xmlns="http://www.w3.org/2000/svg" viewBox="0 0 481.14 481.07"><defs><style>.cls-1{fill:#07b184;stroke:#000;stroke-miterlimit:10;}</style></defs><title>loupe-green</title><path class="cls-1" d="M998.56,115.5a40,40,0,0,1-40-40,8,8,0,0,0-16,0,40,40,0,0,1-40,40,8,8,0,0,0,0,16,40,40,0,0,1,40,40,8,8,0,0,0,16,0,40,40,0,0,1,40-40,8,8,0,1,0,0-16Zm-48,27.28a56,56,0,0,0-19.28-19.28,56,56,0,0,0,19.28-19.28,56,56,0,0,0,19.28,19.28,56,56,0,0,0-19.28,19.28Z" transform="translate(-854.31 -66.9)"/><path class="cls-1" d="M1166.56,114.54a121,121,0,1,0,121,121,121,121,0,0,0-121-121Zm0,225.92a105,105,0,1,1,105-105,105,105,0,0,1-105,105Z" transform="translate(-854.31 -66.9)"/><path class="cls-1" d="M1166.56,155.5a80,80,0,0,0-80,80,8,8,0,0,0,16,0,64,64,0,0,1,64-64,8,8,0,0,0,0-16Z" transform="translate(-854.31 -66.9)"/><path class="cls-1" d="M1262,96.94a168,168,0,0,0-233.6,233.6L857.15,501.82a8,8,0,0,0,0,11.31h0l32,32a8,8,0,0,0,11.31,0h0L1071.79,373.9A168,168,0,1,0,1262,96.9ZM894.56,528.22,873.84,507.5l28.72-28.72,20.72,20.72Zm40-40L913.84,467.5,1038,343.42a168,168,0,0,0,20.6,20.64Zm232-100.72a152,152,0,1,1,152-152h0a152,152,0,0,1-152,152h0Z" transform="translate(-854.31 -66.9)"/><path class="cls-1" d="M1278.56,451.5a24,24,0,0,1-24-24,8,8,0,0,0-16,0,24,24,0,0,1-24,24,8,8,0,0,0,0,16,24,24,0,0,1,24,24,8,8,0,1,0,16,0,24,24,0,0,1,24-24,8,8,0,0,0,0-16Zm-32,16a40,40,0,0,0-8-8,40,40,0,0,0,8-8,40,40,0,0,0,8,8A40,40,0,0,0,1246.56,467.5Z" transform="translate(-854.31 -66.9)"/></svg>