<svg id="Calque_3" data-name="Calque 3" xmlns="http://www.w3.org/2000/svg" viewBox="0 0 447.11 448.07"><defs><style>.cls-1{fill:#07b184;stroke:#000;stroke-miterlimit:10;}</style></defs><title>loupe-green</title><path class="cls-1" d="M290.25,61.6a80,80,0,0,0-80,80,8,8,0,0,0,16,0,64,64,0,0,1,64-64,8,8,0,0,0,0-16Z" transform="translate(-34 0)"/><path class="cls-1" d="M407.69,30a168,168,0,0,0-233.6,233.6L36.84,401.92a8,8,0,0,0,0,11.31h0l32,32a8,8,0,0,0,11.31,0h0L217.48,307A168,168,0,1,0,407.69,30h0ZM80.25,421.32,59.53,400.6,183.69,276.52a168,168,0,0,0,20.6,20.64Zm232-100.72a152,152,0,1,1,152-152h0a152,152,0,0,1-152,152Z" transform="translate(-34 0)"/></svg>