<svg id="Calque_3" data-name="Calque 3" xmlns="http://www.w3.org/2000/svg" viewBox="0 0 481.14 481.07"><defs><style>.cls-1{fill:#07b184;}.cls-1,.cls-2{stroke:#000;stroke-miterlimit:10;}.cls-2{fill:#fff;}</style></defs><title>loupe-full</title><path class="cls-1" d="M978.41,93" transform="translate(-826.15 -36.4)"/><path class="cls-1" d="M1233.88,66.44A168,168,0,0,0,1000.28,300L829,471.32a8,8,0,0,0,0,11.31h0l32,32a8,8,0,0,0,11.31,0h0L1043.64,343.4a168,168,0,1,0,190.24-277Z" transform="translate(-826.15 -36.4)"/><path class="cls-2" d="M1112.7,98.72a80,80,0,0,0-80,80,8,8,0,0,0,16,0,64,64,0,0,1,64-64,8,8,0,0,0,0-16Z" transform="translate(-826.15 -36.4)"/></svg>