<svg xmlns="http://www.w3.org/2000/svg" xmlns:xlink="http://www.w3.org/1999/xlink" viewBox="0 0 274.09 332.43"><defs><style>.cls-1{fill:url(#linear-gradient);}.cls-2{fill:url(#Dégradé_radial_1);}.cls-3{fill:url(#Dégradé_radial_1-2);}.cls-4{fill:url(#Dégradé_radial_1-3);}.cls-5{fill:url(#radial-gradient);}.cls-6{fill:#0d0d07;}.cls-7{fill:url(#radial-gradient-2);}.cls-8{fill:url(#radial-gradient-3);}.cls-9{fill:url(#radial-gradient-4);}.cls-10{isolation:isolate;}.cls-11{fill:#1a171b;}.cls-12{fill:#003b1a;}.cls-13{fill:url(#linear-gradient-2);}.cls-14{mask:url(#mask);}.cls-106,.cls-15{fill:#96bd0d;}.cls-15{opacity:0.63;mix-blend-mode:screen;}.cls-16{fill:url(#linear-gradient-3);}.cls-17{fill:#00892e;}.cls-18{fill:#949494;}.cls-19{fill:url(#linear-gradient-4);}.cls-20{fill:#00632e;}.cls-21{fill:url(#linear-gradient-5);}.cls-22{fill:url(#linear-gradient-6);}.cls-23{fill:url(#linear-gradient-7);}.cls-24{fill:#a2a2a2;}.cls-25{fill:#c4c4c4;}.cls-26{fill:url(#linear-gradient-8);}.cls-27{fill:url(#linear-gradient-9);}.cls-28{fill:none;stroke:#515151;stroke-width:0.48px;}.cls-29{fill:#dfdfdf;}.cls-30{fill:url(#linear-gradient-10);}.cls-31{fill:url(#linear-gradient-11);}.cls-32{fill:url(#linear-gradient-12);}.cls-33{fill:#c3c3c3;}.cls-34{fill:url(#linear-gradient-13);}.cls-35{mask:url(#mask-2);}.cls-36{mix-blend-mode:multiply;fill:url(#Fondu_noir);}.cls-37{clip-path:url(#clip-path);}.cls-38{fill:url(#radial-gradient-6);}.cls-39{clip-path:url(#clip-path-2);}.cls-40{clip-path:url(#clip-path-3);}.cls-41{fill:url(#radial-gradient-8);}.cls-42{fill:url(#radial-gradient-9);}.cls-43{fill:url(#radial-gradient-10);}.cls-44{fill:url(#radial-gradient-11);}.cls-45{fill:url(#radial-gradient-12);}.cls-46{fill:url(#radial-gradient-13);}.cls-47{fill:url(#radial-gradient-14);}.cls-48{fill:url(#radial-gradient-15);}.cls-49{fill:url(#radial-gradient-16);}.cls-50{fill:url(#radial-gradient-17);}.cls-51{fill:url(#radial-gradient-18);}.cls-52{fill:url(#radial-gradient-19);}.cls-53{fill:url(#radial-gradient-20);}.cls-54{fill:url(#radial-gradient-21);}.cls-55{fill:url(#radial-gradient-22);}.cls-56{fill:url(#radial-gradient-23);}.cls-57{fill:url(#radial-gradient-24);}.cls-58{fill:url(#radial-gradient-25);}.cls-59{fill:url(#radial-gradient-26);}.cls-60{fill:url(#radial-gradient-27);}.cls-61{fill:url(#radial-gradient-28);}.cls-62{fill:url(#radial-gradient-29);}.cls-63{fill:url(#radial-gradient-30);}.cls-64{fill:url(#radial-gradient-31);}.cls-65{fill:url(#radial-gradient-32);}.cls-66{fill:url(#radial-gradient-33);}.cls-67{fill:url(#radial-gradient-34);}.cls-68{fill:url(#radial-gradient-35);}.cls-69{fill:url(#radial-gradient-36);}.cls-70{fill:url(#radial-gradient-37);}.cls-71{fill:url(#radial-gradient-38);}.cls-72{fill:url(#radial-gradient-39);}.cls-73{fill:url(#radial-gradient-40);}.cls-74{fill:url(#radial-gradient-41);}.cls-75{fill:url(#radial-gradient-42);}.cls-76{fill:url(#radial-gradient-43);}.cls-77{fill:url(#radial-gradient-44);}.cls-78{fill:url(#radial-gradient-45);}.cls-79{fill:url(#radial-gradient-46);}.cls-80{fill:url(#radial-gradient-47);}.cls-81{fill:url(#radial-gradient-48);}.cls-82{fill:url(#radial-gradient-49);}.cls-83{fill:url(#radial-gradient-50);}.cls-84{fill:url(#radial-gradient-51);}.cls-85{fill:url(#radial-gradient-52);}.cls-86{fill:url(#radial-gradient-53);}.cls-87{fill:url(#radial-gradient-54);}.cls-88{fill:url(#radial-gradient-55);}.cls-89{fill:url(#radial-gradient-56);}.cls-90{mix-blend-mode:darken;}.cls-91{fill:url(#radial-gradient-57);}.cls-92{clip-path:url(#clip-path-4);}.cls-93{fill:url(#radial-gradient-59);}.cls-94{fill:url(#radial-gradient-60);}.cls-95{fill:url(#radial-gradient-61);}.cls-96{fill:url(#radial-gradient-62);}.cls-97{fill:url(#radial-gradient-63);}.cls-98{fill:url(#radial-gradient-64);}.cls-99{fill:url(#radial-gradient-65);}.cls-100{fill:url(#radial-gradient-66);}.cls-101{clip-path:url(#clip-path-5);}.cls-102{mask:url(#mask-3);}.cls-103{fill:#fff;opacity:0.59;}.cls-104{fill:#b9b9b9;}.cls-105{mask:url(#mask-4);}.cls-106{opacity:0.67;}.cls-107{fill:#231f20;}</style><linearGradient id="linear-gradient" x1="28.6" y1="221.4" x2="212.13" y2="221.4" gradientUnits="userSpaceOnUse"><stop offset="0" stop-color="#fff"/><stop offset="0.53" stop-color="#252427"/><stop offset="1" stop-color="#b8babb"/><stop offset="1" stop-color="#1a171b"/></linearGradient><radialGradient id="Dégradé_radial_1" cx="72.7" cy="276.77" r="61.93" gradientUnits="userSpaceOnUse"><stop offset="0" stop-color="#fff"/><stop offset="1" stop-color="#1a171b"/></radialGradient><radialGradient id="Dégradé_radial_1-2" cx="24.69" cy="238.69" r="31.37" xlink:href="#Dégradé_radial_1"/><radialGradient id="Dégradé_radial_1-3" cx="126.34" cy="73.71" r="108.36" xlink:href="#Dégradé_radial_1"/><radialGradient id="radial-gradient" cx="49.23" cy="260.48" r="30.29" gradientUnits="userSpaceOnUse"><stop offset="0.29" stop-color="#0d0d07"/><stop offset="0.69" stop-color="#3c3b3d"/><stop offset="1" stop-color="#2d2c2f"/></radialGradient><radialGradient id="radial-gradient-2" cx="49.23" cy="260.49" r="30.29" xlink:href="#radial-gradient"/><radialGradient id="radial-gradient-3" cx="36.34" cy="261.28" r="11.63" gradientUnits="userSpaceOnUse"><stop offset="0.29" stop-color="#1a171a"/><stop offset="1" stop-color="#58585a"/></radialGradient><radialGradient id="radial-gradient-4" cx="36.34" cy="261.31" r="11.67" xlink:href="#radial-gradient-3"/><linearGradient id="linear-gradient-2" x1="25.81" y1="189.77" x2="218.56" y2="189.77" gradientUnits="userSpaceOnUse"><stop offset="0" stop-color="#00892e"/><stop offset="0.48" stop-color="#00892e"/><stop offset="0.63" stop-color="#003b1a"/><stop offset="0.92" stop-color="#003b1a"/><stop offset="1" stop-color="#005f23"/></linearGradient><mask id="mask" x="59.71" y="112.35" width="183.53" height="218.1" maskUnits="userSpaceOnUse"><g transform="translate(31.1)"><path class="cls-1" d="M145.57,244.58c-45.87-19.07-87.28-68.29-117-132.23l3.33,75.27a17.72,17.72,0,0,0,1.32,8.63,9.23,9.23,0,0,0,3.88,4.24c6.37,3.51,18.33,17.81,21.58,35.1C60.9,247.25,61.2,267,63,280.09c.85,6.34,2,11.13,3.94,12.7,5.85,4.81,55.25,35.36,55.25,35.36s7,6.24,24.44-1.82S205,297.86,205,297.86s5.46-2.47,6-15.47l1.19-34C191.77,255.23,169.25,254.42,145.57,244.58Z"/></g></mask><linearGradient id="linear-gradient-3" x1="20.83" y1="88.98" x2="19.85" y2="27.69" gradientUnits="userSpaceOnUse"><stop offset="0" stop-color="#006f26"/><stop offset="1" stop-color="#00632e"/></linearGradient><linearGradient id="linear-gradient-4" x1="6.79" y1="43.95" x2="237.53" y2="43.95" gradientUnits="userSpaceOnUse"><stop offset="0" stop-color="#00431f"/><stop offset="1" stop-color="#00892e"/></linearGradient><linearGradient id="linear-gradient-5" x1="5.54" y1="59.33" x2="124.65" y2="59.33" gradientUnits="userSpaceOnUse"><stop offset="0" stop-color="#00892e"/><stop offset="1" stop-color="#00632e"/></linearGradient><linearGradient id="linear-gradient-6" x1="129" y1="65.82" x2="236.68" y2="65.82" gradientUnits="userSpaceOnUse"><stop offset="0" stop-color="#6db022"/><stop offset="1" stop-color="#00892e"/></linearGradient><linearGradient id="linear-gradient-7" x1="21.33" y1="45.1" x2="225.07" y2="45.1" gradientUnits="userSpaceOnUse"><stop offset="0" stop-color="#fff"/><stop offset="1" stop-color="#d6d6d6"/></linearGradient><linearGradient id="linear-gradient-8" x1="26.58" y1="30.02" x2="220.54" y2="30.02" gradientUnits="userSpaceOnUse"><stop offset="0" stop-color="#fff"/><stop offset="0.44" stop-color="#d6d6d6"/><stop offset="1" stop-color="#b7b7b7"/></linearGradient><linearGradient id="linear-gradient-9" x1="115.64" y1="53.26" x2="222.7" y2="53.26" gradientUnits="userSpaceOnUse"><stop offset="0" stop-color="#fff"/><stop offset="1" stop-color="#fff"/></linearGradient><linearGradient id="linear-gradient-10" x1="72.53" y1="32.89" x2="128.18" y2="32.89" gradientUnits="userSpaceOnUse"><stop offset="0.28" stop-color="#c2c2c2"/><stop offset="1" stop-color="#bbb"/></linearGradient><linearGradient id="linear-gradient-11" x1="33.94" y1="16.58" x2="173.42" y2="16.58" xlink:href="#linear-gradient-8"/><linearGradient id="linear-gradient-12" x1="7.3" y1="26.09" x2="74.63" y2="26.09" gradientUnits="userSpaceOnUse"><stop offset="0" stop-color="#fff"/><stop offset="0.27" stop-color="#d6d6d6"/><stop offset="1" stop-color="#bbb"/></linearGradient><linearGradient id="linear-gradient-13" x1="27.62" y1="245.57" x2="57.77" y2="234.7" xlink:href="#linear-gradient-5"/><mask id="mask-2" x="68.99" y="226.53" width="25.1" height="53.56" maskUnits="userSpaceOnUse"><g transform="translate(31.1)"><path class="cls-2" d="M50.71,249.93c1.7,11.89-2.55,21.4,12.28,30.16-1.45-10.8-1.91-26.1-3.25-37.67-4-7.07-9.08-12.41-14.6-14.71a13.88,13.88,0,0,0-7.25-1.07,12.38,12.38,0,0,0,2,1.54C46,232.14,49,237.82,50.71,249.93Z"/></g></mask><linearGradient id="Fondu_noir" x1="37.89" y1="253.31" x2="62.99" y2="253.31" gradientUnits="userSpaceOnUse"><stop offset="0" stop-color="#1a171b"/><stop offset="1" stop-color="#1a171b"/></linearGradient><clipPath id="clip-path" transform="translate(31.1)"><path class="cls-5" d="M30.18,230.84l5.33-1.16a10.07,10.07,0,0,1,5.51.44l-5.33,1.16A9.88,9.88,0,0,0,30.18,230.84Z"/></clipPath><radialGradient id="radial-gradient-6" cx="47.95" cy="260.37" r="28" gradientUnits="userSpaceOnUse"><stop offset="0.29" stop-color="#141210"/><stop offset="1" stop-color="#343335"/></radialGradient><clipPath id="clip-path-2" transform="translate(31.1)"><path class="cls-6" d="M34.46,235.34l1.23-4.06c8.81,3.13,15.93,16.77,15.91,30.47s-7.19,22.27-16,19.14-15.93-16.77-15.9-30.48,7.18-22.26,16-19.13l-1.23,4.06c-7.45-2.65-13.52,4.6-13.54,16.2s6,23.17,13.47,25.81,13.52-4.6,13.54-16.21S41.92,238,34.46,235.34Z"/></clipPath><clipPath id="clip-path-3" transform="translate(31.1)"><path class="cls-7" d="M46.44,280.17l-2.67.58-2.39.52-.27.06c6.1-1.32,10.47-8.89,10.49-19.58,0-13.7-7.1-27.34-15.91-30.47L41,230.12c8.81,3.13,15.93,16.77,15.91,30.47C56.91,271.29,52.54,278.85,46.44,280.17Z"/></clipPath><radialGradient id="radial-gradient-8" cx="49.23" cy="260.49" r="30.3" xlink:href="#radial-gradient"/><radialGradient id="radial-gradient-9" cx="49.23" cy="260.49" r="30.3" xlink:href="#radial-gradient"/><radialGradient id="radial-gradient-10" cx="49.23" cy="260.47" r="30.28" xlink:href="#radial-gradient"/><radialGradient id="radial-gradient-11" cx="49.23" cy="260.49" r="30.29" xlink:href="#radial-gradient"/><radialGradient id="radial-gradient-12" cx="49.23" cy="260.48" r="30.29" xlink:href="#radial-gradient"/><radialGradient id="radial-gradient-13" cx="49.23" cy="260.48" r="30.28" xlink:href="#radial-gradient"/><radialGradient id="radial-gradient-14" cx="49.23" cy="260.5" r="30.31" xlink:href="#radial-gradient"/><radialGradient id="radial-gradient-15" cx="49.23" cy="260.48" r="30.29" xlink:href="#radial-gradient"/><radialGradient id="radial-gradient-16" cx="49.23" cy="260.48" r="30.29" xlink:href="#radial-gradient"/><radialGradient id="radial-gradient-17" cx="49.23" cy="260.47" r="30.27" xlink:href="#radial-gradient"/><radialGradient id="radial-gradient-18" cx="49.23" cy="260.47" r="30.27" xlink:href="#radial-gradient"/><radialGradient id="radial-gradient-19" cx="49.23" cy="260.5" r="30.31" xlink:href="#radial-gradient"/><radialGradient id="radial-gradient-20" cx="49.23" cy="260.49" r="30.3" xlink:href="#radial-gradient"/><radialGradient id="radial-gradient-21" cx="49.23" cy="260.5" r="30.3" xlink:href="#radial-gradient"/><radialGradient id="radial-gradient-22" cx="49.23" cy="260.48" r="30.29" xlink:href="#radial-gradient"/><radialGradient id="radial-gradient-23" cx="49.23" cy="260.48" r="30.28" xlink:href="#radial-gradient"/><radialGradient id="radial-gradient-24" cx="49.23" cy="260.49" r="30.3" xlink:href="#radial-gradient"/><radialGradient id="radial-gradient-25" cx="49.23" cy="260.5" r="30.31" xlink:href="#radial-gradient"/><radialGradient id="radial-gradient-26" cx="49.23" cy="260.49" r="30.3" xlink:href="#radial-gradient"/><radialGradient id="radial-gradient-27" cx="49.23" cy="260.49" r="30.29" xlink:href="#radial-gradient"/><radialGradient id="radial-gradient-28" cx="49.23" cy="260.49" r="30.29" xlink:href="#radial-gradient"/><radialGradient id="radial-gradient-29" cx="49.23" cy="260.49" r="30.3" xlink:href="#radial-gradient"/><radialGradient id="radial-gradient-30" cx="49.23" cy="260.49" r="30.29" xlink:href="#radial-gradient"/><radialGradient id="radial-gradient-31" cx="49.23" cy="260.49" r="30.29" xlink:href="#radial-gradient"/><radialGradient id="radial-gradient-32" cx="49.23" cy="260.48" r="30.29" xlink:href="#radial-gradient"/><radialGradient id="radial-gradient-33" cx="49.23" cy="260.49" r="30.3" xlink:href="#radial-gradient"/><radialGradient id="radial-gradient-34" cx="49.23" cy="260.49" r="30.29" xlink:href="#radial-gradient"/><radialGradient id="radial-gradient-35" cx="49.23" cy="260.49" r="30.29" xlink:href="#radial-gradient"/><radialGradient id="radial-gradient-36" cx="49.23" cy="260.49" r="30.29" xlink:href="#radial-gradient"/><radialGradient id="radial-gradient-37" cx="49.23" cy="260.49" r="30.3" xlink:href="#radial-gradient"/><radialGradient id="radial-gradient-38" cx="49.23" cy="260.49" r="30.29" xlink:href="#radial-gradient"/><radialGradient id="radial-gradient-39" cx="49.23" cy="260.49" r="30.29" xlink:href="#radial-gradient"/><radialGradient id="radial-gradient-40" cx="49.23" cy="260.49" r="30.3" xlink:href="#radial-gradient"/><radialGradient id="radial-gradient-41" cx="49.23" cy="260.49" r="30.3" xlink:href="#radial-gradient"/><radialGradient id="radial-gradient-42" cx="49.23" cy="260.49" r="30.3" xlink:href="#radial-gradient"/><radialGradient id="radial-gradient-43" cx="49.23" cy="260.49" r="30.3" xlink:href="#radial-gradient"/><radialGradient id="radial-gradient-44" cx="49.23" cy="260.48" r="30.31" xlink:href="#radial-gradient"/><radialGradient id="radial-gradient-45" cx="49.23" cy="260.49" r="30.28" xlink:href="#radial-gradient"/><radialGradient id="radial-gradient-46" cx="49.23" cy="260.49" r="30.3" xlink:href="#radial-gradient"/><radialGradient id="radial-gradient-47" cx="49.23" cy="260.49" r="30.3" xlink:href="#radial-gradient"/><radialGradient id="radial-gradient-48" cx="49.23" cy="260.48" r="30.31" xlink:href="#radial-gradient"/><radialGradient id="radial-gradient-49" cx="49.23" cy="260.48" r="30.3" xlink:href="#radial-gradient"/><radialGradient id="radial-gradient-50" cx="49.23" cy="260.49" r="30.29" xlink:href="#radial-gradient"/><radialGradient id="radial-gradient-51" cx="49.23" cy="260.48" r="30.32" xlink:href="#radial-gradient"/><radialGradient id="radial-gradient-52" cx="49.23" cy="260.49" r="30.3" xlink:href="#radial-gradient"/><radialGradient id="radial-gradient-53" cx="49.23" cy="260.49" r="30.29" xlink:href="#radial-gradient"/><radialGradient id="radial-gradient-54" cx="49.23" cy="260.49" r="30.29" xlink:href="#radial-gradient"/><radialGradient id="radial-gradient-55" cx="34.55" cy="256.96" r="11.18" xlink:href="#radial-gradient-3"/><radialGradient id="radial-gradient-56" cx="21.58" cy="253.54" r="27.38" gradientUnits="userSpaceOnUse"><stop offset="0.29" stop-color="#1a171a"/><stop offset="1" stop-color="#313033"/></radialGradient><radialGradient id="radial-gradient-57" cx="-599.59" cy="321.24" r="13.63" gradientTransform="matrix(-0.61, 0.07, -0.12, -1.12, -296.29, 656.58)" xlink:href="#radial-gradient-3"/><clipPath id="clip-path-4" transform="translate(31.1)"><path class="cls-8" d="M32.63,252.57l1.56-.34a.64.64,0,0,1,.33,0L33,252.6A.62.62,0,0,0,32.63,252.57Z"/></clipPath><radialGradient id="radial-gradient-59" cx="36.34" cy="261.31" r="11.67" xlink:href="#radial-gradient-3"/><radialGradient id="radial-gradient-60" cx="36.33" cy="261.29" r="11.64" xlink:href="#radial-gradient-3"/><radialGradient id="radial-gradient-61" cx="36.33" cy="261.32" r="11.68" xlink:href="#radial-gradient-3"/><radialGradient id="radial-gradient-62" cx="36.34" cy="261.31" r="11.67" xlink:href="#radial-gradient-3"/><radialGradient id="radial-gradient-63" cx="36.33" cy="261.36" r="11.73" xlink:href="#radial-gradient-3"/><radialGradient id="radial-gradient-64" cx="36.34" cy="261.31" r="11.66" xlink:href="#radial-gradient-3"/><radialGradient id="radial-gradient-65" cx="36.34" cy="261.28" r="11.63" xlink:href="#radial-gradient-3"/><radialGradient id="radial-gradient-66" cx="38.47" cy="258.75" r="9.16" xlink:href="#radial-gradient-3"/><clipPath id="clip-path-5" transform="translate(31.1)"><path class="cls-9" d="M35.58,260.86l-1.56.33c.58-.12,1-1.16,1-2.79,0-2.23-.73-4.72-1.66-5.56a1.08,1.08,0,0,0-.38-.24l1.56-.34a1.05,1.05,0,0,1,.37.24c.93.84,1.67,3.33,1.66,5.57C36.55,259.69,36.15,260.73,35.58,260.86Z"/></clipPath><mask id="mask-3" x="54.43" y="230.64" width="28.26" height="36.56" maskUnits="userSpaceOnUse"><g transform="translate(31.1)"><path class="cls-3" d="M51.58,260.77a2.62,2.62,0,0,0,0-.28c0-.17,0-.34,0-.51s0-.35,0-.53c0,0,0-.06,0-.09,0-.19,0-.37,0-.55s0-.26,0-.39a2.11,2.11,0,0,1,0-.25c0-.17,0-.34,0-.5l0-.27c0-.15,0-.29,0-.44s0-.31-.05-.47,0-.07,0-.1c0-.32-.08-.63-.13-.94,0,0,0,0,0-.08h0l-.18-1.07s0-.05,0-.07l-.12-.58c0-.2-.07-.4-.12-.59v0s0-.06,0-.09l-.15-.64c0-.15-.06-.3-.1-.45a.19.19,0,0,0,0-.07c-.06-.27-.13-.53-.2-.8a1.17,1.17,0,0,1,0-.2h0a.5.5,0,0,1,0-.13c-.06-.22-.12-.44-.19-.66,0-.07,0-.14,0-.21a1,1,0,0,1-.05-.16c-.08-.24-.15-.47-.22-.71l-.12-.36c-.11-.35-.23-.69-.36-1a1,1,0,0,0-.05-.16s0-.08,0-.11-.1-.29-.16-.42a1.8,1.8,0,0,0-.08-.21c-.2-.53-.42-1.06-.64-1.57,0,0,0-.09-.05-.12l0-.09,0-.05c-.2-.45-.41-.9-.62-1.34l-.06-.11a2,2,0,0,0-.13-.25l0-.07-.07-.15c-.12-.23-.24-.46-.37-.69,0-.07-.07-.15-.11-.23l-.1-.17-.28-.49-.18-.31v0c-.06-.09-.11-.19-.16-.28l0-.07c-.22-.36-.43-.7-.66-1l0-.07-.23-.33c-.13-.19-.26-.39-.4-.57l-.09-.14-.26-.34-.25-.34-.08-.1-.13-.17-.23-.28c-.11-.13-.21-.26-.32-.38a1.46,1.46,0,0,0-.16-.19l-.25-.29,0,0-.06-.08,0,0-.12-.13-.15-.17-.31-.32c0-.05-.1-.11-.16-.16l-.06-.06a.93.93,0,0,0-.14-.14,5,5,0,0,0-.41-.39,1.59,1.59,0,0,0-.13-.13l-.1-.09c-.19-.18-.39-.35-.59-.51,0,0,0,0,0,0s0,0,0,0c-.21-.18-.42-.34-.63-.51l-.07-.05-.13-.1-.43-.31L39,233l-.18-.13-.29-.19-.27-.16-.2-.12-.18-.1-.42-.23-.15-.08-.1,0-.48-.23-.32-.14-.2-.08-.49-.2h0l-.59-.19-.14,0-.28-.07-.31-.08-.07,0-.13,0-.33-.06-.27-.06H33.4l-.36,0H33l-.14,0H31.57l-.21,0h-.07c-.1,0-.2,0-.3,0H30.8c-.2,0-.39.06-.59.11h0l-.23.06-.57.16-.11,0-.16.05a7.22,7.22,0,0,0-.72.29l-.22.09c-.29.14-.57.29-.85.46l-.22.14c-.22.14-.44.3-.66.46l-.21.16a9.3,9.3,0,0,0-.77.66l-.18.17-.6.63-.18.22c-.24.27-.46.55-.68.85l-.14.2c-.12.17-.24.35-.35.53.28,1,.58,2,.89,3a69.53,69.53,0,0,0,3.29,8.38,56.37,56.37,0,0,0,4.17,7.37c.45.67.91,1.32,1.38,1.94.62.82,1.26,1.61,1.91,2.35,0-.2,0-.4,0-.63h0c0-2.24-.73-4.73-1.66-5.57a1.22,1.22,0,0,0-.37-.24h0a.54.54,0,0,0-.28,0s0,0,0,0l1.55-.34h.34l0,0,0,0,0,0s0,0,0,0,0,0,.05,0l0,0,0,0,.06,0h0s0,.05,0,.06l.05.06.06.07.07.09.09.1h0l.06.09.09.15.1.17a.35.35,0,0,0,.05.08l0,.05,0,.08a2,2,0,0,1,.11.26l.09.18.06.16,0,.1.17.47a.29.29,0,0,0,0,.09h0c.05.17.09.35.13.53a1.8,1.8,0,0,1,0,.19s0,.05,0,.07,0,.07,0,.1,0,.22.05.32l.06.3a466455079612.2,466455079612.2,0,0,0,0,.1c0,.06,0,.12,0,.18l0,.29,0,.29a.43.43,0,0,1,0,0v0a1.21,1.21,0,0,0,0,.19,2.72,2.72,0,0,0,0,.28c0,.09,0,.18,0,.27v.08c0,.07,0,.13,0,.2a2.09,2.09,0,0,1,0,.25v.15s0,0,0,.07a1.49,1.49,0,0,1,0,.21c0,.06,0,.12,0,.18l0,.18,0,.16,0,.15v0h0s0,.08,0,.13a.93.93,0,0,1,0,.13l0,.12h0a1,1,0,0,0,0,.1l0,.11,0,.06a27.53,27.53,0,0,0,4.64,3.89c.46.3.93.58,1.39.84a21.11,21.11,0,0,0,2,1,15.47,15.47,0,0,0,3.2.95,13,13,0,0,0,3.82.16c.09-.56.17-1.14.23-1.72,0-.06,0-.11,0-.17h0s0-.07,0-.1,0-.37,0-.56,0-.09,0-.14l0-.5v-.07a1.64,1.64,0,0,0,0-.22v-.06a2.62,2.62,0,0,0,0-.28c0-.18,0-.36,0-.55a1.21,1.21,0,0,0,0-.19c0-.27,0-.54,0-.82v-.22C51.59,261.28,51.58,261,51.58,260.77Z"/></g></mask><mask id="mask-4" x="36.76" y="32.57" width="234.21" height="53.59" maskUnits="userSpaceOnUse"><g transform="translate(31.1)"><path class="cls-4" d="M237.65,45.51c-21.33,5.21-101.54,24.82-107.74,26.16a25.29,25.29,0,0,1-2.65.43,20.63,20.63,0,0,1-2.49.12,9.72,9.72,0,0,1-1-.06L6.91,32.57l-.12.09a2.76,2.76,0,0,0-1.13,1.39v.31L123,74.14l.19,0,.18,0V85.87c.49.1,1,.18,1.36.23l.61.07V74.24a24.68,24.68,0,0,0,4.36-.57c6.43-1.39,93.25-22.61,110.13-26.74A5.46,5.46,0,0,0,237.65,45.51Z"/></g></mask></defs><title>poubelle_tri3_verre</title><g class="cls-10"><g id="Calque_1" data-name="Calque 1"><path class="cls-11" d="M130.68,332.43h0c-5.9,0-8.93-2.07-9.68-2.67-3.26-2-49.55-30.67-55.35-35.44-2.11-1.73-3.47-5.65-4.52-13a29.93,29.93,0,0,1-6.26-5.06c-.29.43-.57.82-.85,1.18l-.1.13c-.26.31-.54.63-.84.94l-.23.24c-.28.27-.51.49-.74.69l-.34.29c-.29.23-.59.46-.89.67l-.15.1a10.28,10.28,0,0,1-1.07.62l-.31.15a8.67,8.67,0,0,1-.88.38,3.09,3.09,0,0,1-.41.15,8.78,8.78,0,0,1-1,.29l-.21.06-5.32,1.15h0a12,12,0,0,1-6.59-.51c-9.68-3.44-17.25-17.65-17.22-32.34,0-.6,0-1.18,0-1.75l0-.46c0-.52.07-1,.12-1.57v-.12c.06-.54.13-1.08.21-1.6l.07-.43c.07-.47.15-.92.25-1.38l0-.2c.11-.49.23-1,.35-1.45l.12-.4c.11-.4.24-.8.37-1.19l.07-.24c.16-.45.33-.88.5-1.3L20,238c.17-.4.33-.75.49-1.08l.12-.25c.21-.4.42-.78.64-1.15l.15-.24c.22-.35.39-.62.58-.88l.24-.34c.23-.32.48-.63.73-.92l.27-.31c.22-.25.43-.46.64-.66l.22-.22c.29-.27.58-.53.88-.77l.22-.16c.3-.22.55-.4.81-.56l.28-.18a9.79,9.79,0,0,1,1-.54l.22-.1c.35-.16.63-.27.91-.37l.2-.07.19-.06.62-.17.24-.06h.07l5.32-1.15c.25-.05.51-.1.76-.13a1.52,1.52,0,0,1,.21,0,15.37,15.37,0,0,1-3.89-10.53l-.84-20.27a18.54,18.54,0,0,1-1.45-7.49c0-.82,0-1.44.07-1.73L25.59,88.91l-.84-.06A3.91,3.91,0,0,1,21,84.12c-.09-2-.64-14.5-.64-16.35A25.34,25.34,0,0,0,20,64.15l-7.31-18L5.81,43.54c-.38-.19-2.25-1.31-2.25-4.86V33.79l.06-.25c0-.06.06-.2.13-.38C1.3,31.73,0,28,0,25.05a6.6,6.6,0,0,1,2.15-5.36L4,18.92l18.48-2.2c1.66-1.19,3.43-2.14,5-2.14.72,0,2.87-.06,6.4-.17L38,14.28,112.67,4.1l1.26-2.25c.36-.79,1.38-1.85,4.24-1.85,2.26,0,4.88.16,5,.16l.23,0,.22.06a3.21,3.21,0,0,1,1.54,1.09,3.34,3.34,0,0,1,.67,1.76l.14,1.6c11.67,3.7,93.2,29.52,93.91,29.76l.11,0c.56.2,4.83,1.85,6.28,5.61,3.68,1.13,8.12,2.46,10.36,3a13.41,13.41,0,0,1,1.62.51c4.34,1.67,4.69,4.86,4.69,8.55v5.54a3,3,0,0,1-.24,1.86c-.78,1.68-2.9,2.88-6.68,3.8l-7.45,1.87c-2.88,4.81-5.06,8.59-5.49,9.51-.11,1.46-.43,12.82-.61,19.82,0,2-.8,4.43-3.05,4.72h0l-6.45,183.13c-.55,13.83-6.47,16.9-7.14,17.2-.34.17-41.11,20.48-58.35,28.46-6.18,2.86-11.81,4.31-16.74,4.31Zm-7.22-5.76s2.24,1.81,7.22,1.81c4.35,0,9.43-1.33,15.08-4,17.19-7.95,57.91-28.24,58.32-28.44.06,0,4.43-2.45,4.88-13.78l6.57-186.73,1.84-.07,1-.06a4,4,0,0,0,.11-.89c.23-9,.54-19.83.7-20.65.09-.44.22-1.1,6.39-11.36l.42-.7.79-.2c4.32-1.1,7.3-1.85,8.28-2.08A10.15,10.15,0,0,0,239,58V52.21c0-3.47-.3-4.15-2.16-4.86a12,12,0,0,0-1.19-.38c-2.52-.65-7.67-2.21-11.55-3.4l-1.14-.35-.22-1.17c-.49-2.51-4-3.82-4.05-3.83-1.12-.37-94.22-29.86-95.16-30.16l-1.26-.4-.32-3.6c-1,0-2.44-.11-3.76-.11a5.08,5.08,0,0,0-.94.08l-2.06,3.72L38.26,18.23,34,18.36c-3.62.12-5.75.17-6.52.17a5.09,5.09,0,0,0-2.84,1.3l-.42.32L6.49,22.57l0,.21-2,.11A3.54,3.54,0,0,0,4,25.06c0,2.32,1.08,4.32,1.82,4.7l.1,0,2.52-.52,2,.66-.51,3.85a4.24,4.24,0,0,0-2.07.53,1.53,1.53,0,0,0-.34.28v4.16a2.93,2.93,0,0,0,.25,1.38l8,3.06L23.9,63.26a29.73,29.73,0,0,1,.42,4.51c0,1.51.42,11.4.65,16.42v.31l-.08.31v.06l.24,0c.61.06,1.4.1,2.36.1l1.87,0L33.91,187.7v.15a11.57,11.57,0,0,0-.07,1.46A14.75,14.75,0,0,0,35,195.4l.17.37,0,.47.87,20.85v.11a11.42,11.42,0,0,0,3.12,8l.09.08c.22.21.45.42.7.62a8.72,8.72,0,0,0,.87.63,22.14,22.14,0,0,1,4.46,3.69l-2.47,3-1.29-.74-.54-.25-.37-.15-.35-.13a4.35,4.35,0,0,0-.47-.15c-.21-.07-.41-.12-.61-.17l-.14,0-.51-.1-.5,0-.25,0h-.39l-.38,0-.25,0-.42,0a4.21,4.21,0,0,0-.49.09l-5.52,1.2-.44.12-.07,0-.13,0-.56.22-.11.05a7.15,7.15,0,0,0-.75.4l-.19.12c-.17.11-.35.23-.52.36l-.2.15c-.2.16-.41.34-.62.53l-.15.16c-.17.16-.34.33-.5.51l-.18.2c-.19.23-.38.47-.57.73l-.14.2c-.17.25-.31.46-.44.67l-.15.25c-.18.29-.35.6-.51.91l-.11.22c-.13.26-.26.55-.38.83l-.14.31c-.14.35-.28.71-.41,1.09l-.07.2c-.11.33-.21.67-.31,1l-.1.34c-.11.41-.21.83-.31,1.26l0,.17c-.08.4-.16.8-.22,1.21l-.06.38c-.07.47-.14.94-.19,1.42V247c0,.45-.08.92-.1,1.4l0,.4c0,.51,0,1,0,1.57,0,12.69,6.66,25.8,14.59,28.62a8.06,8.06,0,0,0,4.44.36h0L46,278.26l.13,0a6.82,6.82,0,0,0,.72-.2l.2-.08a5.83,5.83,0,0,0,.59-.25l.24-.11a6.79,6.79,0,0,0,.74-.43l.09-.07c.21-.14.42-.3.62-.46l.2-.17L50,276l.22-.21c.19-.21.39-.42.57-.65l.1-.12c.23-.29.49-.64.74-1l.06-.09c.1-.16.19-.32.28-.48l.31-.53c.12-.22.22-.42.32-.62v-6.06l3.62,5.4a23.32,23.32,0,0,0,7.74,6.8l.82.49.13.94c1.16,8.61,2.53,10.88,3.25,11.46,5.68,4.67,54.54,34.9,55,35.21l.27.2Z" transform="translate(31.1)"/><path class="cls-12" d="M227.57,63.1s-6.26,10.38-6.43,11.2-.66,20.26-.66,20.26,0,2.64-1.32,2.8-3.95.17-3.95.17l.16-33.94,12.2-3.13Z" transform="translate(31.1)"/><path class="cls-13" d="M132.62,86.31a32.37,32.37,0,0,0-5.54-.08,13.43,13.43,0,0,1-2.47-.13,22.49,22.49,0,0,1-3.71-.84c-2.71-.85-63.28-24-95.09-36.16L27.48,87l4.45,100.63a17.72,17.72,0,0,0,1.32,8.63,9.23,9.23,0,0,0,3.88,4.24c6.37,3.51,18.33,17.81,21.58,35.1C60.9,247.25,61.2,267,63,280.09c.85,6.34,2,11.13,3.94,12.7,5.85,4.81,55.25,35.36,55.25,35.36s7,6.24,24.44-1.82S205,297.86,205,297.86s5.46-2.47,6-15.47l7.62-216.61c-28.17,7.16-80.85,20.64-80.85,20.64A30.63,30.63,0,0,1,132.62,86.31Z" transform="translate(31.1)"/><g class="cls-14"><path class="cls-15" d="M145.57,244.58c-45.87-19.07-87.28-68.29-117-132.23l3.33,75.27a17.72,17.72,0,0,0,1.32,8.63,9.23,9.23,0,0,0,3.88,4.24c6.37,3.51,18.33,17.81,21.58,35.1C60.9,247.25,61.2,267,63,280.09c.85,6.34,2,11.13,3.94,12.7,5.85,4.81,55.25,35.36,55.25,35.36s7,6.24,24.44-1.82S205,297.86,205,297.86s5.46-2.47,6-15.47l1.19-34C191.77,255.23,169.25,254.42,145.57,244.58Z" transform="translate(31.1)"/></g><path class="cls-16" d="M13.37,42.55,22,63.61a28.13,28.13,0,0,1,.39,4.16c0,2,.65,16.51.65,16.51a2,2,0,0,0,2,2.6c.77.07,1.68.1,2.57.11L25.69,45.65Z" transform="translate(31.1)"/><path class="cls-12" d="M119.19,83.76l.91,41.34,2.73-2.35.39-25.34a28.36,28.36,0,0,1,2-5.33c1-1.82,3.9-6.89,3.9-6.89l-9.62-3Z" transform="translate(31.1)"/><path class="cls-12" d="M149.87,81.81c0,.39.39,14.82.39,14.82l.09,0L157.78,80Z" transform="translate(31.1)"/><polygon class="cls-17" points="190.68 79.62 188.88 80.02 181.46 96.6 183.31 96.11 190.68 79.62"/><path class="cls-12" d="M178.11,74.17c0,.38.38,14.46.38,14.46l.09,0,7.25-16.18Z" transform="translate(31.1)"/><polygon class="cls-17" points="218.68 72.04 216.93 72.43 209.69 88.61 211.5 88.13 218.68 72.04"/><path class="cls-12" d="M206.61,67.61c0,.33.33,12.62.33,12.62l.09,0,6.32-14.12Z" transform="translate(31.1)"/><polygon class="cls-17" points="245.98 65.74 244.45 66.08 238.13 80.21 239.7 79.79 245.98 65.74"/><polygon class="cls-18" points="35.55 22.16 35.39 20.87 150.19 5.22 143.97 9.66 36.96 31.74 35.72 28.69 35.55 22.16"/><path class="cls-19" d="M129.79,71.66C136,70.32,216.2,50.72,237.53,45.5a11.83,11.83,0,0,0-1.41-.44c-4.44-1.16-17.39-5.22-17.39-5.22L156.1,20.32l-41.36-4.64s-100.12,16-104.37,16a6.53,6.53,0,0,0-3.58.85L123.61,72.16A19.77,19.77,0,0,0,129.79,71.66Z" transform="translate(31.1)"/><path class="cls-20" d="M241,58v-5.8c0-3.58-.31-5.51-3.43-6.71C216.2,50.72,136,70.32,129.79,71.66a22.6,22.6,0,0,1-5.14.56V86.1a13.32,13.32,0,0,0,2.46.13,32.37,32.37,0,0,1,5.54.08,30.63,30.63,0,0,0,5.09.11S229.16,63,235.54,61.49,241,58,241,58Z" transform="translate(31.1)"/><path class="cls-21" d="M123.61,72.16,6.79,32.57A2.79,2.79,0,0,0,5.54,34v4.64c0,2.51,1.16,3.09,1.16,3.09S117.25,84.1,120.93,85.26a22.35,22.35,0,0,0,3.72.84V72.22A9.72,9.72,0,0,1,123.61,72.16Z" transform="translate(31.1)"/><path class="cls-22" d="M129,78.37l7.29.75a12.63,12.63,0,0,0,3.92-.38c2.52-.56,93.39-23.44,93.39-23.44l3.08-2.8Z" transform="translate(31.1)"/><path class="cls-23" d="M224.68,41.76c-.59-3.36-4.41-5.06-5.34-5.4,2.2,2.93.7,3.59.7,3.59s-66.92,13.17-80.25,15.83-20.21,1.57-22.88,1.1-89.49-34-90.27-34.32S23.35,24,23.19,25.38c-.13,1.14-1.4,8-1.86,10.51C25.58,37.34,91.71,59,105.52,64.35c15.19,5.92,31.93,2.13,31.93,2.13s77.11-17.16,83.6-18.63c4-.91,3.91-2.21,3.91-2.21S225.33,45.52,224.68,41.76Z" transform="translate(31.1)"/><path class="cls-24" d="M7.3,23.59a4.79,4.79,0,0,0-2.21-2.52C3.37,20.36,2,22.14,2,25.05s1.37,5.85,3.09,6.56a1.78,1.78,0,0,0,2.24-.69,5.64,5.64,0,0,0,.87-3.29A9.75,9.75,0,0,0,7.3,23.59Z" transform="translate(31.1)"/><path class="cls-25" d="M20.07,21.75S9.14,23,8.07,23a.77.77,0,0,0-.78.56l9,2.56C16.67,25.58,20.07,21.75,20.07,21.75Z" transform="translate(31.1)"/><path class="cls-26" d="M219.34,36.36l-.1,0c-.74-.25-95.14-30.15-95.14-30.15s-.13-1.55-.25-2.92a1.4,1.4,0,0,0-.27-.73c-.74,1.55-1.72,3.56-2.48,5-.9,1.72,1.24,2.14,1.24,2.14l51.08,13,21,14.41s-60.06,11.45-63.26,12.16a9,9,0,0,1-3.73.19,12.66,12.66,0,0,1-1.79-.54c-1.07-.36-48.5-25.69-50.1-26-1-.23-2.24-.6-3-.84l-.73-.23-45.22.76h.06c.78.31,87.61,33.85,90.27,34.32s9.56,1.57,22.88-1.1S220,40,220,40,221.54,39.29,219.34,36.36Z" transform="translate(31.1)"/><path class="cls-27" d="M121.23,63.62c-1.55-.44-7.28-3.84-5.1-3.22s4.78,3.22,24.53-.21,78.46-18,78.46-18,4-.61,3.54,0c-.94,1.15-80,20.27-85.64,21.31C132.63,64.33,127.46,65.39,121.23,63.62Z" transform="translate(31.1)"/><path class="cls-28" d="M127.69,31.17a11.87,11.87,0,0,1-2-.27A11.87,11.87,0,0,0,127.69,31.17Z" transform="translate(31.1)"/><path class="cls-28" d="M128.18,31.18h0Z" transform="translate(31.1)"/><path class="cls-28" d="M127.71,31.17h0Z" transform="translate(31.1)"/><path class="cls-29" d="M173.42,22.68S130.7,30.87,129.63,31a9.07,9.07,0,0,1-1.45.16l-.75,18.26a9,9,0,0,0,3.73-.19c3.2-.71,63.26-12.16,63.26-12.16Z" transform="translate(31.1)"/><polygon class="cls-28" points="156.84 30.9 156.84 30.9 156.84 30.9 156.84 30.9"/><path class="cls-30" d="M125.74,30.9a35.3,35.3,0,0,1-3.93-1.11l-1-.33c-8.26-2.56-44.16-12.54-44.16-12.54s-.87-.27-2-.57L72.53,22h0l.59.18.15,0,.53.16.23.07.53.14.23.06.73.18.18.06,0,0,.32.14.07,0,.39.19.11.05.56.27.15.08L78,24l.1.05.76.38.28.14L80,25l.19.1.83.42.29.15,1,.53.33.17.89.46.31.16,1.12.58.52.27.84.44.71.37.82.42.67.36,1.22.63.48.25.9.48.63.32,1.19.63.87.46.49.25,3,1.55.64.34L99.1,35l1,.5.51.27,1.5.79.24.13c.52.27,1,.54,1.55.82l.14.07L120,46l.75.39.35.18.89.47,0,0,.93.49.07,0,.81.42h0l1.18.61.05,0,.27.13,0,0,0,0,.16.07a12.9,12.9,0,0,0,1.78.54h0l.75-18.26A11.52,11.52,0,0,1,125.74,30.9Z" transform="translate(31.1)"/><path class="cls-31" d="M122.34,9.69s-2.14-.42-1.24-2.14c.76-1.46,1.74-3.47,2.48-5a1.22,1.22,0,0,0-.54-.39S120.4,2,118.17,2s-2.47.74-2.47.74l-2.47,4.45-44.51,8s-23,.85-34.78,1.22c10.5-.05,39.47-.18,40.69,0a1,1,0,0,1,.29.08c1,.26,1.69.49,1.69.49s35.9,10,44.16,12.54l1,.33a35.3,35.3,0,0,0,3.93,1.11h0a11.87,11.87,0,0,0,2,.27h.49a9.07,9.07,0,0,0,1.45-.16c1.07-.15,43.79-8.34,43.79-8.34Z" transform="translate(31.1)"/><path class="cls-32" d="M20.07,21.75s-3.4,3.83-3.8,4.4l-9-2.56a9.75,9.75,0,0,1,.88,4,5.64,5.64,0,0,1-.87,3.29c.6.2,9.1,3,10.77,3.45a10.62,10.62,0,0,1,3,1.44l.22.08c.46-2.52,1.73-9.37,1.86-10.51.15-1.39,2.56-3.06,3.39-2.83l45.22-.76.73.23,2.1-5.67c-1.22-.14-30.19,0-40.69,0-3.26.1-5.66.17-6.46.17C23.77,16.56,20.07,21.75,20.07,21.75Z" transform="translate(31.1)"/><path class="cls-33" d="M74.92,16.43a1,1,0,0,0-.29-.08Z" transform="translate(31.1)"/><path class="cls-34" d="M37.16,200.49a9.21,9.21,0,0,1-3.87-4.24l.86,20.81s-.49,7.17,5.69,11.12,9.14,9.64,10.87,21.75c1.7,11.89-2.55,21.4,12.28,30.16-1.75-13.1-2.06-32.84-4.25-44.5C55.49,218.3,43.53,204,37.16,200.49Z" transform="translate(31.1)"/><g class="cls-35"><path class="cls-36" d="M50.71,249.93c1.7,11.89-2.55,21.4,12.28,30.16-1.45-10.8-1.91-26.1-3.25-37.67-4-7.07-9.08-12.41-14.6-14.71a13.88,13.88,0,0,0-7.25-1.07,12.38,12.38,0,0,0,2,1.54C46,232.14,49,237.82,50.71,249.93Z" transform="translate(31.1)"/></g><g class="cls-10"><g class="cls-10"><path class="cls-5" d="M30.18,230.84l5.33-1.16a10.07,10.07,0,0,1,5.51.44l-5.33,1.16A9.88,9.88,0,0,0,30.18,230.84Z" transform="translate(31.1)"/><g class="cls-37"><path class="cls-6" d="M30.18,230.84l5.33-1.16.63-.11-5.33,1.16a4.62,4.62,0,0,0-.63.11" transform="translate(31.1)"/><path class="cls-6" d="M30.81,230.73l5.33-1.16a8.91,8.91,0,0,1,1-.09l-5.33,1.15a8.9,8.9,0,0,0-1.05.1" transform="translate(31.1)"/><path class="cls-6" d="M31.86,230.63l5.33-1.15a8.68,8.68,0,0,1,.88,0l-5.33,1.15c-.29,0-.59,0-.88,0" transform="translate(31.1)"/><path class="cls-6" d="M32.74,230.65l5.33-1.15c.28,0,.56.05.83.09l-5.33,1.15c-.27,0-.55-.07-.83-.09" transform="translate(31.1)"/><path class="cls-6" d="M33.57,230.74l5.33-1.15c.27,0,.53.09.8.15l-5.33,1.15c-.27-.06-.53-.11-.8-.15" transform="translate(31.1)"/><path class="cls-6" d="M34.37,230.89l5.33-1.15c.24,0,.49.12.73.19l-5.33,1.15-.73-.19" transform="translate(31.1)"/><path class="cls-6" d="M35.1,231.08l5.33-1.15.59.19-5.33,1.16-.59-.2" transform="translate(31.1)"/></g></g><path class="cls-38" d="M34.46,235.34C41.92,238,48,249.55,47.93,261.14S41.84,280,34.39,277.35s-13.5-14.2-13.47-25.81S27,232.69,34.46,235.34Z" transform="translate(31.1)"/><path class="cls-6" d="M34.46,235.34l1.23-4.06c8.81,3.13,15.93,16.77,15.91,30.47s-7.19,22.27-16,19.14-15.93-16.77-15.9-30.48,7.18-22.26,16-19.13l-1.23,4.06c-7.45-2.65-13.52,4.6-13.54,16.2s6,23.17,13.47,25.81,13.52-4.6,13.54-16.21S41.92,238,34.46,235.34Z" transform="translate(31.1)"/><g class="cls-39"><g class="cls-10"><path class="cls-6" d="M34.46,235.34l1.23-4.06.5.19-1.3,4-.43-.16" transform="translate(31.1)"/><path class="cls-6" d="M34.89,235.5l1.3-4a14.71,14.71,0,0,1,3.15,1.76L37.55,237a12.82,12.82,0,0,0-2.66-1.49" transform="translate(31.1)"/><path class="cls-6" d="M37.55,237l1.79-3.76a20.13,20.13,0,0,1,3.31,3l-2.29,3.3A18,18,0,0,0,37.55,237" transform="translate(31.1)"/><path class="cls-6" d="M40.36,239.54l2.29-3.3A31.07,31.07,0,0,1,47.19,243l-3,2.27a26.53,26.53,0,0,0-3.84-5.73" transform="translate(31.1)"/><path class="cls-6" d="M44.2,245.27l3-2.27a40.42,40.42,0,0,1,2.94,7.77l-3.44,1.08a33.93,33.93,0,0,0-2.49-6.58" transform="translate(31.1)"/><path class="cls-6" d="M46.69,251.85l3.44-1.08a42.4,42.4,0,0,1,1.42,9l-3.66-.29a35.45,35.45,0,0,0-1.2-7.59" transform="translate(31.1)"/><path class="cls-6" d="M47.89,259.44l3.66.29c0,.67.05,1.34.05,2,0,1.2-.06,2.36-.17,3.48l-3.64-1.14c.09-.94.14-1.93.14-2.95,0-.57,0-1.13,0-1.7" transform="translate(31.1)"/><path class="cls-6" d="M47.79,264.09l3.64,1.14a31.58,31.58,0,0,1-.76,4.49l-3.53-1.82a25.62,25.62,0,0,0,.65-3.81" transform="translate(31.1)"/><path class="cls-6" d="M47.14,267.9l3.53,1.82a23.75,23.75,0,0,1-1.4,4L46,271.33a19.45,19.45,0,0,0,1.18-3.43" transform="translate(31.1)"/><path class="cls-6" d="M46,271.33l3.31,2.44a16.82,16.82,0,0,1-2.38,3.86l-2.94-3a13.94,13.94,0,0,0,2-3.26" transform="translate(31.1)"/><path class="cls-6" d="M44,274.59l2.94,3C44,281.09,40,282.45,35.6,280.89c-8.81-3.13-15.93-16.77-15.9-30.48,0-10.15,3.95-17.48,9.57-19.33l-.24,4.1c-4.76,1.56-8.1,7.77-8.11,16.36,0,11.61,6,23.16,13.47,25.81A8.24,8.24,0,0,0,44,274.59" transform="translate(31.1)"/><path class="cls-6" d="M29,235.18l.24-4.1a9.47,9.47,0,0,1,3.65-.42l-.8,4.16a7.76,7.76,0,0,0-3.09.36" transform="translate(31.1)"/><path class="cls-6" d="M32.12,234.82l.8-4.16a11,11,0,0,1,2.77.62l-1.23,4.06a8.91,8.91,0,0,0-2.34-.52" transform="translate(31.1)"/></g></g><g class="cls-10"><path class="cls-7" d="M46.44,280.17l-2.67.58-2.39.52-.27.06c6.1-1.32,10.47-8.89,10.49-19.58,0-13.7-7.1-27.34-15.91-30.47L41,230.12c8.81,3.13,15.93,16.77,15.91,30.47C56.91,271.29,52.54,278.85,46.44,280.17Z" transform="translate(31.1)"/><g class="cls-40"><g class="cls-10"><path class="cls-41" d="M35.83,231.33l5.33-1.16c.24.09.47.18.69.28l-5.32,1.16c-.23-.1-.46-.2-.7-.28" transform="translate(31.1)"/><path class="cls-42" d="M36.53,231.61l5.32-1.16.68.32-5.33,1.15c-.22-.11-.45-.22-.67-.31" transform="translate(31.1)"/><path class="cls-43" d="M37.2,231.92l5.33-1.15.66.35-5.33,1.15-.66-.35" transform="translate(31.1)"/><path class="cls-44" d="M37.86,232.27l5.33-1.15c.21.12.43.25.64.39l-5.33,1.15-.64-.39" transform="translate(31.1)"/><path class="cls-45" d="M38.5,232.66l5.33-1.15c.22.13.43.27.64.42l-5.33,1.15c-.21-.14-.42-.29-.64-.42" transform="translate(31.1)"/><path class="cls-46" d="M39.14,233.08l5.33-1.15.63.46-5.33,1.16-.63-.47" transform="translate(31.1)"/><path class="cls-47" d="M39.77,233.55l5.33-1.16.64.51-5.33,1.16c-.21-.18-.42-.35-.64-.51" transform="translate(31.1)"/><path class="cls-48" d="M40.41,234.06l5.33-1.16.64.56-5.33,1.15-.64-.55" transform="translate(31.1)"/><path class="cls-49" d="M41.05,234.61l5.33-1.15.64.61-5.33,1.15-.64-.61" transform="translate(31.1)"/><path class="cls-50" d="M41.69,235.22,47,234.07l.66.68-5.33,1.15-.66-.68" transform="translate(31.1)"/><path class="cls-51" d="M42.35,235.9l5.33-1.15.66.74L43,236.64l-.66-.74" transform="translate(31.1)"/><path class="cls-52" d="M43,236.64l5.33-1.15c.24.28.47.56.7.85l-5.32,1.16c-.24-.3-.47-.58-.71-.86" transform="translate(31.1)"/><path class="cls-53" d="M43.72,237.5,49,236.34c.25.31.49.62.72.95l-5.33,1.15c-.23-.32-.47-.64-.71-.94" transform="translate(31.1)"/><path class="cls-54" d="M44.43,238.44l5.33-1.15c.25.34.49.69.73,1.05l-5.33,1.15c-.24-.36-.48-.71-.73-1.05" transform="translate(31.1)"/><path class="cls-55" d="M45.16,239.49l5.33-1.15c.25.38.5.77.74,1.17l-5.33,1.16c-.24-.41-.49-.8-.74-1.18" transform="translate(31.1)"/><path class="cls-56" d="M45.9,240.67l5.33-1.16c.25.42.49.84.73,1.28l-5.33,1.15c-.24-.43-.48-.86-.73-1.27" transform="translate(31.1)"/><path class="cls-57" d="M46.63,241.94,52,240.79q.38.68.72,1.38l-5.33,1.15q-.35-.7-.72-1.38" transform="translate(31.1)"/><path class="cls-58" d="M47.35,243.32l5.33-1.15c.25.52.5,1.05.74,1.59l-5.33,1.15c-.24-.54-.49-1.07-.74-1.59" transform="translate(31.1)"/><path class="cls-59" d="M48.09,244.91l5.33-1.15c.34.79.67,1.6,1,2.43l-5.33,1.16c-.3-.83-.63-1.65-1-2.44" transform="translate(31.1)"/><path class="cls-60" d="M49.06,247.35l5.33-1.16c.28.79.55,1.6.79,2.42l-5.33,1.15c-.24-.82-.51-1.62-.79-2.41" transform="translate(31.1)"/><path class="cls-61" d="M49.85,249.76l5.33-1.15c.2.68.39,1.38.56,2.07l-5.33,1.16c-.17-.7-.36-1.39-.56-2.08" transform="translate(31.1)"/><path class="cls-62" d="M50.41,251.84l5.33-1.16c.1.44.2.87.29,1.31l-5.33,1.15c-.09-.44-.19-.87-.29-1.3" transform="translate(31.1)"/><path class="cls-63" d="M50.7,253.14,56,252c.08.38.16.77.23,1.15l-5.33,1.15c-.07-.38-.15-.77-.23-1.15" transform="translate(31.1)"/><path class="cls-64" d="M50.93,254.29l5.33-1.15c.06.36.12.71.17,1.07l-5.33,1.15c-.05-.36-.11-.71-.17-1.07" transform="translate(31.1)"/><path class="cls-65" d="M51.1,255.36l5.33-1.15c.06.34.1.68.15,1l-5.33,1.15q-.06-.51-.15-1" transform="translate(31.1)"/><path class="cls-66" d="M51.25,256.38l5.33-1.15.12,1-5.33,1.16-.12-1" transform="translate(31.1)"/><path class="cls-67" d="M51.37,257.4l5.33-1.16q.06.51.09,1l-5.33,1.16q0-.51-.09-1" transform="translate(31.1)"/><path class="cls-68" d="M51.46,258.42l5.33-1.16c0,.35.05.69.07,1l-5.33,1.15c0-.34,0-.68-.07-1" transform="translate(31.1)"/><path class="cls-69" d="M51.53,259.44l5.33-1.15c0,.35,0,.69,0,1l-5.33,1.15c0-.35,0-.69,0-1" transform="translate(31.1)"/><path class="cls-70" d="M51.58,260.48l5.33-1.15c0,.35,0,.69,0,1l-5.33,1.16c0-.35,0-.7,0-1" transform="translate(31.1)"/><path class="cls-71" d="M51.6,261.53l5.33-1.16v.22c0,.28,0,.55,0,.82l-5.32,1.15c0-.27,0-.54,0-.81v-.22" transform="translate(31.1)"/><path class="cls-72" d="M51.59,262.56l5.32-1.15q0,.51,0,1l-5.33,1.15c0-.33,0-.67,0-1" transform="translate(31.1)"/><path class="cls-73" d="M51.55,263.58l5.33-1.15q0,.51-.06,1l-5.33,1.16.06-1" transform="translate(31.1)"/><path class="cls-74" d="M51.49,264.58l5.33-1.16c0,.33-.06.66-.09,1l-5.33,1.16.09-1" transform="translate(31.1)"/><path class="cls-75" d="M51.4,265.55l5.33-1.16c0,.33-.08.64-.12,1l-5.33,1.15.12-.95" transform="translate(31.1)"/><path class="cls-76" d="M51.28,266.5l5.33-1.15c0,.31-.09.62-.14.93l-5.33,1.15c0-.3.1-.61.14-.93" transform="translate(31.1)"/><path class="cls-77" d="M51.14,267.43l5.33-1.15c0,.31-.11.63-.17.93L51,268.37c.06-.31.12-.62.17-.94" transform="translate(31.1)"/><path class="cls-78" d="M51,268.37l5.33-1.16c-.06.31-.13.61-.2.91l-5.32,1.15c.06-.3.13-.6.19-.9" transform="translate(31.1)"/><path class="cls-79" d="M50.78,269.27l5.32-1.15c-.07.31-.15.62-.23.93l-5.33,1.15.24-.93" transform="translate(31.1)"/><path class="cls-80" d="M50.54,270.2l5.33-1.15c-.08.31-.17.61-.26.91l-5.33,1.15c.09-.3.18-.6.26-.91" transform="translate(31.1)"/><path class="cls-81" d="M50.28,271.11,55.61,270c-.1.32-.21.63-.31.94L50,272.05c.1-.31.21-.62.31-.94" transform="translate(31.1)"/><path class="cls-82" d="M50,272.05l5.33-1.15c-.12.32-.24.64-.37,1L49.6,273c.13-.31.25-.63.37-.95" transform="translate(31.1)"/><path class="cls-83" d="M49.6,273l5.33-1.15q-.2.5-.42,1L49.19,274c.14-.31.28-.63.41-1" transform="translate(31.1)"/><path class="cls-84" d="M49.19,274l5.32-1.15c-.16.36-.34.71-.52,1.05L48.66,275c.18-.34.36-.69.53-1.05" transform="translate(31.1)"/><path class="cls-85" d="M48.66,275,54,273.86c-.22.39-.44.76-.67,1.12L48,276.13c.23-.36.45-.73.67-1.12" transform="translate(31.1)"/><path class="cls-86" d="M48,276.13,53.32,275c-.29.45-.6.88-.92,1.29l-5.33,1.15a14.13,14.13,0,0,0,.92-1.29" transform="translate(31.1)"/><path class="cls-87" d="M47.07,277.42l5.33-1.15a10.61,10.61,0,0,1-6,3.9l-5.33,1.16a10.63,10.63,0,0,0,6-3.91" transform="translate(31.1)"/></g></g></g></g><g class="cls-10"><path class="cls-88" d="M34.57,243.91c4.64,1.64,8.39,8.82,8.37,16S39.16,271.67,34.52,270s-8.38-8.82-8.36-16S29.94,242.26,34.57,243.91Z" transform="translate(31.1)"/><path class="cls-89" d="M34.57,243.91c4.64,1.64,8.39,8.82,8.37,16S39.16,271.67,34.52,270s-8.38-8.82-8.36-16S29.94,242.26,34.57,243.91Z" transform="translate(31.1)"/></g><g class="cls-90"><g class="cls-10"><path class="cls-91" d="M38,266.2c-2.46-1.25-5-7.56-5.72-14.11s.72-10.84,3.18-9.59,5,7.56,5.72,14.11S40.44,267.45,38,266.2Z" transform="translate(31.1)"/></g></g><g class="cls-10"><path class="cls-8" d="M32.63,252.57l1.56-.34a.64.64,0,0,1,.33,0L33,252.6A.62.62,0,0,0,32.63,252.57Z" transform="translate(31.1)"/><g class="cls-92"><g class="cls-10"><path class="cls-93" d="M32.63,252.57l1.56-.34h0l-1.55.33h0" transform="translate(31.1)"/><path class="cls-94" d="M32.67,252.56l1.55-.33h.07l-1.56.34h-.06" transform="translate(31.1)"/><path class="cls-95" d="M32.73,252.56l1.56-.34h.05l-1.55.34h-.06" transform="translate(31.1)"/><path class="cls-96" d="M32.79,252.56l1.55-.34h0l-1.55.33h-.05" transform="translate(31.1)"/><path class="cls-97" d="M32.84,252.56l1.55-.33h0l-1.56.33h0" transform="translate(31.1)"/><path class="cls-98" d="M32.88,252.57l1.56-.33h0l-1.55.34,0,0" transform="translate(31.1)"/><path class="cls-99" d="M32.93,252.59l1.55-.34h0L33,252.6h0" transform="translate(31.1)"/></g></g><path class="cls-100" d="M33,252.6a1.08,1.08,0,0,1,.38.24c.93.84,1.67,3.33,1.66,5.56,0,1.93-.56,3-1.31,2.77a1.22,1.22,0,0,1-.37-.24c-.92-.83-1.67-3.33-1.66-5.57C31.67,253.44,32.22,252.33,33,252.6Z" transform="translate(31.1)"/><path class="cls-9" d="M35.58,260.86l-1.56.33c.58-.12,1-1.16,1-2.79,0-2.23-.73-4.72-1.66-5.56a1.08,1.08,0,0,0-.38-.24l1.56-.34a1.05,1.05,0,0,1,.37.24c.93.84,1.67,3.33,1.66,5.57C36.55,259.69,36.15,260.73,35.58,260.86Z" transform="translate(31.1)"/><g class="cls-101"><polyline class="cls-6" points="64.07 252.6 65.62 252.26 65.63 252.26 64.08 252.6 64.07 252.6"/><path class="cls-6" d="M33,252.6l1.56-.34,0,0-1.55.34-.05,0" transform="translate(31.1)"/><path class="cls-6" d="M33,252.62l1.55-.34,0,0-1.55.34,0,0" transform="translate(31.1)"/><path class="cls-6" d="M33.06,252.64l1.55-.34,0,0-1.56.33,0,0" transform="translate(31.1)"/><path class="cls-6" d="M33.1,252.66l1.56-.33,0,0-1.55.34,0,0" transform="translate(31.1)"/><path class="cls-6" d="M33.15,252.69l1.55-.34,0,0-1.56.34,0,0" transform="translate(31.1)"/><path class="cls-6" d="M33.19,252.72l1.56-.34,0,0-1.55.33-.05,0" transform="translate(31.1)"/><path class="cls-6" d="M33.24,252.75l1.55-.33.05,0-1.55.34,0,0" transform="translate(31.1)"/><path class="cls-6" d="M33.29,252.79l1.55-.34s0,0,0,.05h0l-1.55.34h0s0,0-.05-.05" transform="translate(31.1)"/><path class="cls-6" d="M33.34,252.84l1.55-.34.06.05-1.55.34-.06,0" transform="translate(31.1)"/><path class="cls-6" d="M33.4,252.89l1.55-.34.06.06-1.56.34-.05-.06" transform="translate(31.1)"/><path class="cls-6" d="M33.45,253l1.56-.34.06.08-1.55.33-.07-.07" transform="translate(31.1)"/><path class="cls-6" d="M33.52,253l1.55-.33a.27.27,0,0,1,.07.08l-1.55.33a.27.27,0,0,1-.07-.08" transform="translate(31.1)"/><path class="cls-6" d="M33.59,253.1l1.55-.33.08.1-1.56.34-.07-.11" transform="translate(31.1)"/><path class="cls-6" d="M33.66,253.21l1.56-.34.08.12-1.56.33a.44.44,0,0,0-.08-.11" transform="translate(31.1)"/><path class="cls-6" d="M33.74,253.32,35.3,253l.09.14-1.55.34-.1-.15" transform="translate(31.1)"/><path class="cls-6" d="M33.84,253.47l1.55-.34.1.18-1.56.33-.09-.17" transform="translate(31.1)"/><path class="cls-6" d="M33.93,253.64l1.56-.33c0,.06.07.13.11.2l-1.56.34a2.12,2.12,0,0,0-.11-.21" transform="translate(31.1)"/><path class="cls-6" d="M34,253.85l1.56-.34.12.27-1.56.33-.12-.26" transform="translate(31.1)"/><path class="cls-6" d="M34.16,254.11l1.56-.33c.06.14.12.28.18.44l-1.56.33-.18-.44" transform="translate(31.1)"/><path class="cls-6" d="M34.34,254.55l1.56-.33q.09.27.18.57l-1.55.33c-.06-.19-.12-.38-.19-.57" transform="translate(31.1)"/><path class="cls-6" d="M34.53,255.12l1.55-.33c.05.17.1.35.14.53l-1.55.34c0-.19-.09-.36-.14-.54" transform="translate(31.1)"/><path class="cls-6" d="M34.67,255.66l1.55-.34.09.36-1.56.34c0-.12,0-.25-.08-.36" transform="translate(31.1)"/><path class="cls-6" d="M34.75,256l1.56-.34.06.31-1.56.34-.06-.31" transform="translate(31.1)"/><path class="cls-6" d="M34.81,256.33l1.56-.34c0,.1,0,.2.05.3l-1.56.34c0-.1,0-.2,0-.3" transform="translate(31.1)"/><path class="cls-6" d="M34.86,256.63l1.56-.34a2.89,2.89,0,0,0,0,.29l-1.56.33a2.7,2.7,0,0,0,0-.28" transform="translate(31.1)"/><path class="cls-6" d="M34.9,256.91l1.56-.33,0,.28-1.55.34c0-.09,0-.19,0-.29" transform="translate(31.1)"/><path class="cls-6" d="M34.94,257.2l1.55-.34,0,.29-1.56.34a2.83,2.83,0,0,0,0-.29" transform="translate(31.1)"/><path class="cls-6" d="M35,257.49l1.56-.34c0,.09,0,.19,0,.28l-1.56.34a2.46,2.46,0,0,0,0-.28" transform="translate(31.1)"/><path class="cls-6" d="M35,257.77l1.56-.34c0,.1,0,.19,0,.28l-1.56.34a2.53,2.53,0,0,0,0-.28" transform="translate(31.1)"/><path class="cls-6" d="M35,258.05l1.56-.34V258l-1.55.34a2.44,2.44,0,0,0,0-.27" transform="translate(31.1)"/><path class="cls-6" d="M35,258.32l1.55-.34v.28L35,258.6v-.28" transform="translate(31.1)"/><path class="cls-6" d="M35,258.6l1.55-.34a2,2,0,0,1,0,.25l-1.55.34a2.09,2.09,0,0,1,0-.25" transform="translate(31.1)"/><path class="cls-6" d="M35,258.85l1.55-.34c0,.08,0,.15,0,.22l-1.56.34c0-.07,0-.15,0-.22" transform="translate(31.1)"/><path class="cls-6" d="M35,259.07l1.56-.34c0,.07,0,.14,0,.21l-1.55.33c0-.06,0-.13,0-.2" transform="translate(31.1)"/><path class="cls-6" d="M35,259.27l1.55-.33c0,.07,0,.13,0,.19l-1.56.34,0-.2" transform="translate(31.1)"/><path class="cls-6" d="M34.93,259.47l1.56-.34,0,.17-1.55.34c0-.06,0-.11,0-.17" transform="translate(31.1)"/><path class="cls-6" d="M34.91,259.64l1.55-.34,0,.17-1.55.33,0-.16" transform="translate(31.1)"/><path class="cls-6" d="M34.88,259.8l1.55-.33,0,.15-1.56.33c0-.05,0-.1,0-.15" transform="translate(31.1)"/><path class="cls-6" d="M34.84,260l1.56-.33c0,.05,0,.09,0,.14l-1.55.34,0-.15" transform="translate(31.1)"/><path class="cls-6" d="M34.81,260.1l1.55-.34a.65.65,0,0,1,0,.13l-1.55.34c0-.05,0-.09,0-.13" transform="translate(31.1)"/><path class="cls-6" d="M34.77,260.23l1.55-.34a.65.65,0,0,1,0,.13l-1.55.33,0-.12" transform="translate(31.1)"/><path class="cls-6" d="M34.73,260.35l1.55-.33s0,.08,0,.11l-1.56.34,0-.12" transform="translate(31.1)"/><path class="cls-6" d="M34.68,260.47l1.56-.34-.05.12-1.56.33a.37.37,0,0,0,0-.11" transform="translate(31.1)"/><path class="cls-6" d="M34.63,260.58l1.56-.33-.06.11-1.55.33a.37.37,0,0,0,.05-.11" transform="translate(31.1)"/><path class="cls-6" d="M34.58,260.69l1.55-.33-.06.1-1.55.34.06-.11" transform="translate(31.1)"/><path class="cls-6" d="M34.52,260.8l1.55-.34-.08.12-1.56.34.09-.12" transform="translate(31.1)"/><path class="cls-6" d="M34.43,260.92l1.56-.34a.73.73,0,0,1-.41.28l-1.56.33a.71.71,0,0,0,.41-.27" transform="translate(31.1)"/><path class="cls-6" d="M-31.1,269.55l5.33-1.15a6.17,6.17,0,0,1,.62-.11l-5.33,1.15-.62.11" transform="translate(31.1)"/><path class="cls-6" d="M-30.48,269.44l5.33-1.15a9.3,9.3,0,0,1,1-.09l-5.33,1.15a9.3,9.3,0,0,0-1.05.09" transform="translate(31.1)"/><path class="cls-6" d="M-29.43,269.35l5.33-1.15a8.84,8.84,0,0,1,.89,0l-5.33,1.16a8.88,8.88,0,0,0-.89,0" transform="translate(31.1)"/><path class="cls-6" d="M-28.54,269.37l5.33-1.16.83.09-5.33,1.16a6,6,0,0,0-.83-.09" transform="translate(31.1)"/><path class="cls-6" d="M-27.71,269.46l5.33-1.16.8.15-5.33,1.16a8,8,0,0,0-.8-.15" transform="translate(31.1)"/><path class="cls-6" d="M-26.91,269.61l5.33-1.16c.24.06.48.12.73.2l-5.33,1.15c-.25-.07-.49-.14-.73-.19" transform="translate(31.1)"/><path class="cls-6" d="M-26.18,269.8l5.33-1.15c.19.05.39.12.59.19L-25.59,270l-.59-.19" transform="translate(31.1)"/><polyline class="cls-6" points="2.78 291.31 4.34 290.98 4.34 290.98 2.79 291.32 2.78 291.31"/><path class="cls-6" d="M-28.31,291.32l1.55-.34,0,0-1.55.33h0" transform="translate(31.1)"/><path class="cls-6" d="M-28.27,291.33l1.55-.33,0,0-1.56.33,0,0" transform="translate(31.1)"/><path class="cls-6" d="M-28.23,291.35l1.56-.33,0,0-1.55.34-.05,0" transform="translate(31.1)"/><path class="cls-6" d="M-28.18,291.38l1.55-.34.05,0-1.56.33,0,0" transform="translate(31.1)"/><path class="cls-6" d="M-28.14,291.4l1.56-.33,0,0-1.56.33,0,0" transform="translate(31.1)"/><path class="cls-6" d="M-28.1,291.43l1.56-.33.05,0-1.56.34a.1.1,0,0,0-.05,0" transform="translate(31.1)"/><path class="cls-6" d="M-28,291.47l1.56-.34,0,0-1.56.33-.05,0" transform="translate(31.1)"/><path class="cls-6" d="M-28,291.5l1.56-.33.05.05h0l-1.56.33h0l-.05-.05" transform="translate(31.1)"/><path class="cls-6" d="M-27.95,291.55l1.56-.33.06,0-1.56.34-.06-.06" transform="translate(31.1)"/><path class="cls-6" d="M-27.89,291.61l1.56-.34,0,.06-1.55.34-.06-.06" transform="translate(31.1)"/><path class="cls-6" d="M-27.83,291.67l1.55-.34.07.07-1.56.34-.06-.07" transform="translate(31.1)"/><path class="cls-6" d="M-27.77,291.74l1.56-.34a.27.27,0,0,0,.07.08l-1.56.34-.07-.08" transform="translate(31.1)"/><path class="cls-6" d="M-27.7,291.82l1.56-.34.07.11-1.55.33-.08-.1" transform="translate(31.1)"/><path class="cls-6" d="M-27.62,291.92l1.55-.33a.44.44,0,0,1,.08.11l-1.55.34-.08-.12" transform="translate(31.1)"/><path class="cls-6" d="M-27.54,292l1.55-.34.1.15-1.56.34-.09-.15" transform="translate(31.1)"/><path class="cls-6" d="M-27.45,292.19l1.56-.34.09.17-1.55.34-.1-.17" transform="translate(31.1)"/><path class="cls-6" d="M-27.35,292.36l1.55-.34a2.12,2.12,0,0,1,.11.21l-1.55.33c0-.07-.07-.14-.11-.2" transform="translate(31.1)"/><path class="cls-6" d="M-27.24,292.56l1.55-.33.12.26-1.55.34-.12-.27" transform="translate(31.1)"/><path class="cls-6" d="M-27.12,292.83l1.55-.34.18.44-1.56.34a4.49,4.49,0,0,0-.17-.44" transform="translate(31.1)"/><path class="cls-6" d="M-26.95,293.27l1.56-.34c.07.18.13.38.19.57l-1.56.34c-.06-.2-.12-.39-.19-.57" transform="translate(31.1)"/><path class="cls-6" d="M-26.76,293.84l1.56-.34c.05.17.1.35.14.53l-1.55.34-.15-.53" transform="translate(31.1)"/><path class="cls-6" d="M-26.61,294.37l1.55-.34c0,.12.06.24.08.36l-1.55.34c0-.12-.06-.24-.08-.36" transform="translate(31.1)"/><path class="cls-6" d="M-26.53,294.73l1.55-.34.06.32-1.55.33-.06-.31" transform="translate(31.1)"/><path class="cls-6" d="M-26.47,295l1.55-.33c0,.1,0,.2.05.3l-1.55.33c0-.1,0-.2,0-.3" transform="translate(31.1)"/><path class="cls-6" d="M-26.42,295.34l1.55-.33a2.7,2.7,0,0,1,0,.28l-1.55.34a2.89,2.89,0,0,1,0-.29" transform="translate(31.1)"/><path class="cls-6" d="M-26.38,295.63l1.55-.34c0,.1,0,.19,0,.29l-1.56.34,0-.29" transform="translate(31.1)"/><path class="cls-6" d="M-26.35,295.92l1.56-.34c0,.09,0,.19,0,.29l-1.55.33,0-.28" transform="translate(31.1)"/><path class="cls-6" d="M-26.32,296.2l1.55-.33a2.46,2.46,0,0,1,0,.28l-1.55.33a2.46,2.46,0,0,1,0-.28" transform="translate(31.1)"/><path class="cls-6" d="M-26.3,296.48l1.55-.33a2.62,2.62,0,0,1,0,.28l-1.55.33c0-.09,0-.18,0-.28" transform="translate(31.1)"/><path class="cls-6" d="M-26.29,296.76l1.55-.33a2.44,2.44,0,0,1,0,.27l-1.56.34v-.28" transform="translate(31.1)"/><path class="cls-6" d="M-26.29,297l1.56-.34V297l-1.56.33V297" transform="translate(31.1)"/><path class="cls-6" d="M-26.29,297.31l1.56-.33a2,2,0,0,0,0,.25l-1.56.33a2,2,0,0,0,0-.25" transform="translate(31.1)"/><path class="cls-6" d="M-26.3,297.56l1.56-.33c0,.07,0,.15,0,.22l-1.55.34c0-.08,0-.15,0-.23" transform="translate(31.1)"/><path class="cls-6" d="M-26.31,297.79l1.55-.34a1.23,1.23,0,0,1,0,.2l-1.55.34c0-.07,0-.14,0-.2" transform="translate(31.1)"/><path class="cls-6" d="M-26.33,298l1.55-.34a1.11,1.11,0,0,1,0,.19l-1.55.34a1.37,1.37,0,0,1,0-.19" transform="translate(31.1)"/><path class="cls-6" d="M-26.35,298.18l1.55-.34a1.1,1.1,0,0,0,0,.18l-1.56.34,0-.18" transform="translate(31.1)"/><path class="cls-6" d="M-26.38,298.36l1.56-.34,0,.16-1.56.34,0-.16" transform="translate(31.1)"/><path class="cls-6" d="M-26.41,298.52l1.56-.34a.83.83,0,0,0,0,.15l-1.55.34,0-.15" transform="translate(31.1)"/><path class="cls-6" d="M-26.44,298.67l1.55-.34,0,.14-1.56.34s0-.09,0-.14" transform="translate(31.1)"/><path class="cls-6" d="M-26.48,298.81l1.56-.34s0,.09,0,.14l-1.56.33a.5.5,0,0,0,0-.13" transform="translate(31.1)"/><path class="cls-6" d="M-26.52,298.94l1.56-.33,0,.12-1.56.34a.5.5,0,0,0,0-.13" transform="translate(31.1)"/><path class="cls-6" d="M-26.56,299.07l1.56-.34-.05.12-1.55.33s0-.07,0-.11" transform="translate(31.1)"/><path class="cls-6" d="M-26.6,299.18l1.55-.33a.54.54,0,0,1-.05.11l-1.55.34,0-.12" transform="translate(31.1)"/><path class="cls-6" d="M-26.65,299.3l1.55-.34a.37.37,0,0,1,0,.11l-1.56.34.06-.11" transform="translate(31.1)"/><path class="cls-6" d="M-26.71,299.41l1.56-.34a.41.41,0,0,1-.07.11l-1.55.34.06-.11" transform="translate(31.1)"/><path class="cls-6" d="M-26.77,299.52l1.55-.34a.83.83,0,0,1-.08.12l-1.55.33a1,1,0,0,0,.08-.11" transform="translate(31.1)"/><path class="cls-6" d="M-26.85,299.63l1.55-.33a.71.71,0,0,1-.41.27l-1.55.34a.73.73,0,0,0,.41-.28" transform="translate(31.1)"/></g></g><g class="cls-102"><path class="cls-103" d="M51.58,260.77a2.62,2.62,0,0,0,0-.28c0-.17,0-.34,0-.51s0-.35,0-.53c0,0,0-.06,0-.09,0-.19,0-.37,0-.55s0-.26,0-.39a2.11,2.11,0,0,1,0-.25c0-.17,0-.34,0-.5l0-.27c0-.15,0-.29,0-.44s0-.31-.05-.47,0-.07,0-.1c0-.32-.08-.63-.13-.94,0,0,0,0,0-.08h0l-.18-1.07s0-.05,0-.07l-.12-.58c0-.2-.07-.4-.12-.59v0s0-.06,0-.09l-.15-.64c0-.15-.06-.3-.1-.45a.19.19,0,0,0,0-.07c-.06-.27-.13-.53-.2-.8a1.17,1.17,0,0,1,0-.2h0a.5.5,0,0,1,0-.13c-.06-.22-.12-.44-.19-.66,0-.07,0-.14,0-.21a1,1,0,0,1-.05-.16c-.08-.24-.15-.47-.22-.71l-.12-.36c-.11-.35-.23-.69-.36-1a1,1,0,0,0-.05-.16s0-.08,0-.11-.1-.29-.16-.42a1.8,1.8,0,0,0-.08-.21c-.2-.53-.42-1.06-.64-1.57,0,0,0-.09-.05-.12l0-.09,0-.05c-.2-.45-.41-.9-.62-1.34l-.06-.11a2,2,0,0,0-.13-.25l0-.07-.07-.15c-.12-.23-.24-.46-.37-.69,0-.07-.07-.15-.11-.23l-.1-.17-.28-.49-.18-.31v0c-.06-.09-.11-.19-.16-.28l0-.07c-.22-.36-.43-.7-.66-1l0-.07-.23-.33c-.13-.19-.26-.39-.4-.57l-.09-.14-.26-.34-.25-.34-.08-.1-.13-.17-.23-.28c-.11-.13-.21-.26-.32-.38a1.46,1.46,0,0,0-.16-.19l-.25-.29,0,0-.06-.08,0,0-.12-.13-.15-.17-.31-.32c0-.05-.1-.11-.16-.16l-.06-.06a.93.93,0,0,0-.14-.14,5,5,0,0,0-.41-.39,1.59,1.59,0,0,0-.13-.13l-.1-.09c-.19-.18-.39-.35-.59-.51,0,0,0,0,0,0s0,0,0,0c-.21-.18-.42-.34-.63-.51l-.07-.05-.13-.1-.43-.31L39,233l-.18-.13-.29-.19-.27-.16-.2-.12-.18-.1-.42-.23-.15-.08-.1,0-.48-.23-.32-.14-.2-.08-.49-.2h0l-.59-.19-.14,0-.28-.07-.31-.08-.07,0-.13,0-.33-.06-.27-.06H33.4l-.36,0H33l-.14,0H31.57l-.21,0h-.07c-.1,0-.2,0-.3,0H30.8c-.2,0-.39.06-.59.11h0l-.23.06-.57.16-.11,0-.16.05a7.22,7.22,0,0,0-.72.29l-.22.09c-.29.14-.57.29-.85.46l-.22.14c-.22.14-.44.3-.66.46l-.21.16a9.3,9.3,0,0,0-.77.66l-.18.17-.6.63-.18.22c-.24.27-.46.55-.68.85l-.14.2c-.12.17-.24.35-.35.53.28,1,.58,2,.89,3a69.53,69.53,0,0,0,3.29,8.38,56.37,56.37,0,0,0,4.17,7.37c.45.67.91,1.32,1.38,1.94.62.82,1.26,1.61,1.91,2.35,0-.2,0-.4,0-.63h0c0-2.24-.73-4.73-1.66-5.57a1.22,1.22,0,0,0-.37-.24h0a.54.54,0,0,0-.28,0s0,0,0,0l1.55-.34h.34l0,0,0,0,0,0s0,0,0,0,0,0,.05,0l0,0,0,0,.06,0h0s0,.05,0,.06l.05.06.06.07.07.09.09.1h0l.06.09.09.15.1.17a.35.35,0,0,0,.05.08l0,.05,0,.08a2,2,0,0,1,.11.26l.09.18.06.16,0,.1.17.47a.29.29,0,0,0,0,.09h0c.05.17.09.35.13.53a1.8,1.8,0,0,1,0,.19s0,.05,0,.07,0,.07,0,.1,0,.22.05.32l.06.3a466455079612.2,466455079612.2,0,0,0,0,.1c0,.06,0,.12,0,.18l0,.29,0,.29a.43.43,0,0,1,0,0v0a1.21,1.21,0,0,0,0,.19,2.72,2.72,0,0,0,0,.28c0,.09,0,.18,0,.27v.08c0,.07,0,.13,0,.2a2.09,2.09,0,0,1,0,.25v.15s0,0,0,.07a1.49,1.49,0,0,1,0,.21c0,.06,0,.12,0,.18l0,.18,0,.16,0,.15v0h0s0,.08,0,.13a.93.93,0,0,1,0,.13l0,.12h0a1,1,0,0,0,0,.1l0,.11,0,.06a27.53,27.53,0,0,0,4.64,3.89c.46.3.93.58,1.39.84a21.11,21.11,0,0,0,2,1,15.47,15.47,0,0,0,3.2.95,13,13,0,0,0,3.82.16c.09-.56.17-1.14.23-1.72,0-.06,0-.11,0-.17h0s0-.07,0-.1,0-.37,0-.56,0-.09,0-.14l0-.5v-.07a1.64,1.64,0,0,0,0-.22v-.06a2.62,2.62,0,0,0,0-.28c0-.18,0-.36,0-.55a1.21,1.21,0,0,0,0-.19c0-.27,0-.54,0-.82v-.22C51.59,261.28,51.58,261,51.58,260.77Z" transform="translate(31.1)"/></g><path class="cls-104" d="M124.58,68.24h0a53.5,53.5,0,0,1-19.49-3.36C94,60.55,48.85,45.66,29.58,39.3l-8.67-2.87-.35-.15a10,10,0,0,0-2.87-1.37c-1.28-.36-6.56-2.07-9.69-3.09l-1.6.33a2.22,2.22,0,0,1-1.77,0c-1.92-.79-3.41-3.87-3.4-7,0-2.37.91-4.13,2.26-4.54h0L4,20.45l19-2.59a7.27,7.27,0,0,1,4.26-1.73c.73,0,2.9-.05,6.44-.16l4.25-.14L113.35,5.54l1.67-3c0-.17.5-1,2.9-1,2.21,0,4.87.16,4.9.16l.11,0a1.71,1.71,0,0,1,.79.57,2,2,0,0,1,.37,1l.22,2.59L198,29.19c19.3,6.12,19.67,6.23,21.19,6.74l.11,0c.5.18,5,1.9,5.65,5.78.49,2.81.45,3.8.27,4.17-.12.54-.79,1.69-4.27,2.48C214.49,49.86,138.07,66.86,137.3,67a64.3,64.3,0,0,1-12.72,1.21ZM21.08,35.44l.15.05c.83.29,4,1.33,8.66,2.87C49.16,44.72,94.31,59.62,105.45,64a52.59,52.59,0,0,0,19.13,3.29h0a62.17,62.17,0,0,0,12.5-1.19c.78-.17,77.2-17.16,83.61-18.62,3.3-.75,3.52-1.73,3.52-1.73l0-.39.13,0a15.4,15.4,0,0,0-.37-3.37c-.59-3.39-4.84-5-5-5-1.6-.54-2-.65-21.26-6.76l-74-23.42-.31-.1-.29-3.24a.84.84,0,0,0-.17-.48.65.65,0,0,0-.25-.2c-.45,0-2.79-.16-4.76-.16-1.71,0-2,.45-2,.46L114,6.45l-.25,0L38,16.81,33.7,17c-3.6.12-5.72.17-6.47.17a6.38,6.38,0,0,0-3.76,1.61l-.1.08L4.59,21.37v.05l-.54.06c-1.06,0-1.84,1.57-1.84,3.64,0,2.68,1.27,5.48,2.78,6.11a1.26,1.26,0,0,0,1,0l.11,0,1.9-.39.13,0c3.1,1,8.5,2.75,9.78,3.12a11.28,11.28,0,0,1,3.12,1.48Z" transform="translate(31.1)"/><g class="cls-105"><path class="cls-106" d="M237.65,45.51c-21.33,5.21-101.54,24.82-107.74,26.16a25.29,25.29,0,0,1-2.65.43,20.63,20.63,0,0,1-2.49.12,9.72,9.72,0,0,1-1-.06L6.91,32.57l-.12.09a2.76,2.76,0,0,0-1.13,1.39v.31L123,74.14l.19,0,.18,0V85.87c.49.1,1,.18,1.36.23l.61.07V74.24a24.68,24.68,0,0,0,4.36-.57c6.43-1.39,93.25-22.61,110.13-26.74A5.46,5.46,0,0,0,237.65,45.51Z" transform="translate(31.1)"/></g><ellipse class="cls-107" cx="155.75" cy="18.48" rx="20.38" ry="7.92"/></g></g></svg>