<svg xmlns="http://www.w3.org/2000/svg" xmlns:xlink="http://www.w3.org/1999/xlink" viewBox="0 0 285.83 346.67"><defs><style>.cls-1{fill:url(#linear-gradient);}.cls-2{fill:url(#Dégradé_radial_1);}.cls-3{fill:url(#Dégradé_radial_1-2);}.cls-4{fill:url(#Dégradé_radial_1-3);}.cls-5{fill:url(#radial-gradient);}.cls-6{fill:#0d0d07;}.cls-7{fill:url(#radial-gradient-2);}.cls-8{fill:url(#radial-gradient-3);}.cls-9{fill:url(#radial-gradient-4);}.cls-10{isolation:isolate;}.cls-11{fill:#1a171b;}.cls-12{fill:#003b1a;}.cls-13{fill:url(#linear-gradient-2);}.cls-14{mask:url(#mask);}.cls-106,.cls-15{fill:#96bd0d;}.cls-15{opacity:0.63;mix-blend-mode:screen;}.cls-16{fill:url(#linear-gradient-3);}.cls-17{fill:#00892e;}.cls-18{fill:#b6991e;}.cls-19{fill:url(#linear-gradient-4);}.cls-20{fill:#00632e;}.cls-21{fill:url(#linear-gradient-5);}.cls-22{fill:url(#linear-gradient-6);}.cls-23{fill:url(#linear-gradient-7);}.cls-24{fill:#c1b100;}.cls-25{fill:#ebd500;}.cls-26{fill:url(#linear-gradient-8);}.cls-27{fill:url(#linear-gradient-9);}.cls-28{fill:none;stroke:#e1007a;stroke-width:0.5px;}.cls-29{fill:#fbeb56;}.cls-30{fill:url(#linear-gradient-10);}.cls-31{fill:url(#linear-gradient-11);}.cls-32{fill:url(#linear-gradient-12);}.cls-33{fill:#deda00;}.cls-34{fill:url(#linear-gradient-13);}.cls-35{mask:url(#mask-2);}.cls-36{mix-blend-mode:multiply;fill:url(#Fondu_noir);}.cls-37{clip-path:url(#clip-path);}.cls-38{fill:url(#radial-gradient-6);}.cls-39{clip-path:url(#clip-path-2);}.cls-40{clip-path:url(#clip-path-3);}.cls-41{fill:url(#radial-gradient-8);}.cls-42{fill:url(#radial-gradient-9);}.cls-43{fill:url(#radial-gradient-10);}.cls-44{fill:url(#radial-gradient-11);}.cls-45{fill:url(#radial-gradient-12);}.cls-46{fill:url(#radial-gradient-13);}.cls-47{fill:url(#radial-gradient-14);}.cls-48{fill:url(#radial-gradient-15);}.cls-49{fill:url(#radial-gradient-16);}.cls-50{fill:url(#radial-gradient-17);}.cls-51{fill:url(#radial-gradient-18);}.cls-52{fill:url(#radial-gradient-19);}.cls-53{fill:url(#radial-gradient-20);}.cls-54{fill:url(#radial-gradient-21);}.cls-55{fill:url(#radial-gradient-22);}.cls-56{fill:url(#radial-gradient-23);}.cls-57{fill:url(#radial-gradient-24);}.cls-58{fill:url(#radial-gradient-25);}.cls-59{fill:url(#radial-gradient-26);}.cls-60{fill:url(#radial-gradient-27);}.cls-61{fill:url(#radial-gradient-28);}.cls-62{fill:url(#radial-gradient-29);}.cls-63{fill:url(#radial-gradient-30);}.cls-64{fill:url(#radial-gradient-31);}.cls-65{fill:url(#radial-gradient-32);}.cls-66{fill:url(#radial-gradient-33);}.cls-67{fill:url(#radial-gradient-34);}.cls-68{fill:url(#radial-gradient-35);}.cls-69{fill:url(#radial-gradient-36);}.cls-70{fill:url(#radial-gradient-37);}.cls-71{fill:url(#radial-gradient-38);}.cls-72{fill:url(#radial-gradient-39);}.cls-73{fill:url(#radial-gradient-40);}.cls-74{fill:url(#radial-gradient-41);}.cls-75{fill:url(#radial-gradient-42);}.cls-76{fill:url(#radial-gradient-43);}.cls-77{fill:url(#radial-gradient-44);}.cls-78{fill:url(#radial-gradient-45);}.cls-79{fill:url(#radial-gradient-46);}.cls-80{fill:url(#radial-gradient-47);}.cls-81{fill:url(#radial-gradient-48);}.cls-82{fill:url(#radial-gradient-49);}.cls-83{fill:url(#radial-gradient-50);}.cls-84{fill:url(#radial-gradient-51);}.cls-85{fill:url(#radial-gradient-52);}.cls-86{fill:url(#radial-gradient-53);}.cls-87{fill:url(#radial-gradient-54);}.cls-88{fill:url(#radial-gradient-55);}.cls-89{fill:url(#radial-gradient-56);}.cls-90{mix-blend-mode:darken;}.cls-91{fill:url(#radial-gradient-57);}.cls-92{clip-path:url(#clip-path-4);}.cls-93{fill:url(#radial-gradient-59);}.cls-94{fill:url(#radial-gradient-60);}.cls-95{fill:url(#radial-gradient-61);}.cls-96{fill:url(#radial-gradient-62);}.cls-97{fill:url(#radial-gradient-63);}.cls-98{fill:url(#radial-gradient-64);}.cls-99{fill:url(#radial-gradient-65);}.cls-100{fill:url(#radial-gradient-66);}.cls-101{clip-path:url(#clip-path-5);}.cls-102{mask:url(#mask-3);}.cls-103{fill:#fff;opacity:0.59;}.cls-104{fill:#f7b234;}.cls-105{mask:url(#mask-4);}.cls-106{opacity:0.67;}</style><linearGradient id="linear-gradient" x1="29.83" y1="230.88" x2="221.22" y2="230.88" gradientUnits="userSpaceOnUse"><stop offset="0" stop-color="#fff"/><stop offset="0.53" stop-color="#252427"/><stop offset="1" stop-color="#b8babb"/><stop offset="1" stop-color="#1a171b"/></linearGradient><radialGradient id="Dégradé_radial_1" cx="75.82" cy="288.63" r="64.58" gradientUnits="userSpaceOnUse"><stop offset="0" stop-color="#fff"/><stop offset="1" stop-color="#1a171b"/></radialGradient><radialGradient id="Dégradé_radial_1-2" cx="25.74" cy="248.92" r="32.71" xlink:href="#Dégradé_radial_1"/><radialGradient id="Dégradé_radial_1-3" cx="131.76" cy="76.86" r="113.01" xlink:href="#Dégradé_radial_1"/><radialGradient id="radial-gradient" cx="51.33" cy="271.64" r="31.59" gradientUnits="userSpaceOnUse"><stop offset="0.29" stop-color="#0d0d07"/><stop offset="0.69" stop-color="#3c3b3d"/><stop offset="1" stop-color="#2d2c2f"/></radialGradient><radialGradient id="radial-gradient-2" cx="51.34" cy="271.64" r="31.59" xlink:href="#radial-gradient"/><radialGradient id="radial-gradient-3" cx="37.89" cy="272.47" r="12.12" gradientUnits="userSpaceOnUse"><stop offset="0.29" stop-color="#1a171a"/><stop offset="1" stop-color="#58585a"/></radialGradient><radialGradient id="radial-gradient-4" cx="37.89" cy="272.5" r="12.17" xlink:href="#radial-gradient-3"/><linearGradient id="linear-gradient-2" x1="26.91" y1="197.9" x2="227.92" y2="197.9" gradientUnits="userSpaceOnUse"><stop offset="0" stop-color="#00892e"/><stop offset="0.48" stop-color="#00892e"/><stop offset="0.63" stop-color="#003b1a"/><stop offset="0.92" stop-color="#003b1a"/><stop offset="1" stop-color="#005f23"/></linearGradient><mask id="mask" x="62.26" y="117.16" width="191.39" height="227.44" maskUnits="userSpaceOnUse"><g transform="translate(32.43)"><path class="cls-1" d="M151.8,255.05c-47.83-19.88-91-71.21-122-137.89l3.47,78.5a18.53,18.53,0,0,0,1.38,9,9.57,9.57,0,0,0,4,4.42c6.64,3.66,19.12,18.57,22.51,36.6,2.28,12.16,2.6,32.74,4.43,46.41.88,6.61,2.12,11.61,4.11,13.24,6.1,5,57.61,36.87,57.61,36.87s7.32,6.51,25.49-1.89,60.87-29.69,60.87-29.69,5.69-2.58,6.23-16.14L221.22,259C200,266.16,176.5,265.32,151.8,255.05Z"/></g></mask><linearGradient id="linear-gradient-3" x1="21.73" y1="92.79" x2="20.7" y2="28.88" gradientUnits="userSpaceOnUse"><stop offset="0" stop-color="#006f26"/><stop offset="1" stop-color="#00632e"/></linearGradient><linearGradient id="linear-gradient-4" x1="7.08" y1="45.83" x2="247.7" y2="45.83" gradientUnits="userSpaceOnUse"><stop offset="0" stop-color="#00431f"/><stop offset="1" stop-color="#00892e"/></linearGradient><linearGradient id="linear-gradient-5" x1="5.77" y1="61.87" x2="129.98" y2="61.87" gradientUnits="userSpaceOnUse"><stop offset="0" stop-color="#00892e"/><stop offset="1" stop-color="#00632e"/></linearGradient><linearGradient id="linear-gradient-6" x1="134.53" y1="68.64" x2="246.81" y2="68.64" gradientUnits="userSpaceOnUse"><stop offset="0" stop-color="#6db022"/><stop offset="1" stop-color="#00892e"/></linearGradient><linearGradient id="linear-gradient-7" x1="22.24" y1="47.03" x2="234.7" y2="47.03" gradientUnits="userSpaceOnUse"><stop offset="0" stop-color="#fbec63"/><stop offset="1" stop-color="#fce90a"/></linearGradient><linearGradient id="linear-gradient-8" x1="27.72" y1="31.3" x2="229.99" y2="31.3" gradientUnits="userSpaceOnUse"><stop offset="0" stop-color="#faef8a"/><stop offset="0.44" stop-color="#fce90a"/><stop offset="1" stop-color="#d4c32b"/></linearGradient><linearGradient id="linear-gradient-9" x1="120.6" y1="55.54" x2="232.24" y2="55.54" gradientUnits="userSpaceOnUse"><stop offset="0" stop-color="#fbec63"/><stop offset="1" stop-color="#faee80"/></linearGradient><linearGradient id="linear-gradient-10" x1="75.64" y1="34.3" x2="133.67" y2="34.3" gradientUnits="userSpaceOnUse"><stop offset="0.28" stop-color="#e9d300"/><stop offset="1" stop-color="#eac600"/></linearGradient><linearGradient id="linear-gradient-11" x1="35.39" y1="17.29" x2="180.85" y2="17.29" xlink:href="#linear-gradient-8"/><linearGradient id="linear-gradient-12" x1="7.62" y1="27.21" x2="77.82" y2="27.21" gradientUnits="userSpaceOnUse"><stop offset="0" stop-color="#fbec63"/><stop offset="0.27" stop-color="#fce90a"/><stop offset="1" stop-color="#eac600"/></linearGradient><linearGradient id="linear-gradient-13" x1="28.81" y1="256.09" x2="60.25" y2="244.75" xlink:href="#linear-gradient-5"/><mask id="mask-2" x="71.95" y="236.23" width="26.17" height="55.86" maskUnits="userSpaceOnUse"><g transform="translate(32.43)"><path class="cls-2" d="M52.88,260.63C54.65,273,50.23,283,65.69,292.09c-1.51-11.27-2-27.22-3.39-39.29-4.18-7.37-9.47-12.94-15.23-15.33a14.56,14.56,0,0,0-7.56-1.13,12.89,12.89,0,0,0,2,1.62C48,242.08,51.08,248,52.88,260.63Z"/></g></mask><linearGradient id="Fondu_noir" x1="39.51" y1="264.16" x2="65.69" y2="264.16" gradientUnits="userSpaceOnUse"><stop offset="0" stop-color="#1a171b"/><stop offset="1" stop-color="#1a171b"/></linearGradient><clipPath id="clip-path" transform="translate(32.43)"><path class="cls-5" d="M31.48,240.72l5.55-1.2a10.37,10.37,0,0,1,5.75.46l-5.56,1.2A10.44,10.44,0,0,0,31.48,240.72Z"/></clipPath><radialGradient id="radial-gradient-6" cx="50.01" cy="271.52" r="29.2" gradientUnits="userSpaceOnUse"><stop offset="0.29" stop-color="#141210"/><stop offset="1" stop-color="#343335"/></radialGradient><clipPath id="clip-path-2" transform="translate(32.43)"><path class="cls-6" d="M35.94,245.42l1.28-4.24c9.19,3.27,16.61,17.49,16.59,31.78s-7.5,23.22-16.68,20-16.62-17.49-16.59-31.79,7.5-23.21,16.68-19.95l-1.28,4.24c-7.78-2.77-14.11,4.8-14.13,16.9s6.27,24.15,14.05,26.91S50,284.43,50,272.33,43.71,248.18,35.94,245.42Z"/></clipPath><clipPath id="clip-path-3" transform="translate(32.43)"><path class="cls-7" d="M48.43,292.17l-2.78.61-2.5.54-.28.06C49.23,292,53.79,284.11,53.81,273c0-14.29-7.4-28.51-16.59-31.78l5.56-1.2c9.18,3.27,16.61,17.49,16.58,31.77C59.34,282.91,54.79,290.8,48.43,292.17Z"/></clipPath><radialGradient id="radial-gradient-8" cx="51.33" cy="271.65" r="31.6" xlink:href="#radial-gradient"/><radialGradient id="radial-gradient-9" cx="51.34" cy="271.65" r="31.59" xlink:href="#radial-gradient"/><radialGradient id="radial-gradient-10" cx="51.34" cy="271.63" r="31.57" xlink:href="#radial-gradient"/><radialGradient id="radial-gradient-11" cx="51.34" cy="271.64" r="31.59" xlink:href="#radial-gradient"/><radialGradient id="radial-gradient-12" cx="51.33" cy="271.64" r="31.59" xlink:href="#radial-gradient"/><radialGradient id="radial-gradient-13" cx="51.33" cy="271.63" r="31.58" xlink:href="#radial-gradient"/><radialGradient id="radial-gradient-14" cx="51.34" cy="271.66" r="31.61" xlink:href="#radial-gradient"/><radialGradient id="radial-gradient-15" cx="51.33" cy="271.64" r="31.58" xlink:href="#radial-gradient"/><radialGradient id="radial-gradient-16" cx="51.34" cy="271.64" r="31.59" xlink:href="#radial-gradient"/><radialGradient id="radial-gradient-17" cx="51.34" cy="271.62" r="31.57" xlink:href="#radial-gradient"/><radialGradient id="radial-gradient-18" cx="51.33" cy="271.63" r="31.57" xlink:href="#radial-gradient"/><radialGradient id="radial-gradient-19" cx="51.33" cy="271.65" r="31.6" xlink:href="#radial-gradient"/><radialGradient id="radial-gradient-20" cx="51.34" cy="271.64" r="31.59" xlink:href="#radial-gradient"/><radialGradient id="radial-gradient-21" cx="51.34" cy="271.65" r="31.6" xlink:href="#radial-gradient"/><radialGradient id="radial-gradient-22" cx="51.33" cy="271.64" r="31.59" xlink:href="#radial-gradient"/><radialGradient id="radial-gradient-23" cx="51.34" cy="271.63" r="31.58" xlink:href="#radial-gradient"/><radialGradient id="radial-gradient-24" cx="51.34" cy="271.65" r="31.59" xlink:href="#radial-gradient"/><radialGradient id="radial-gradient-25" cx="51.34" cy="271.65" r="31.61" xlink:href="#radial-gradient"/><radialGradient id="radial-gradient-26" cx="51.34" cy="271.65" r="31.6" xlink:href="#radial-gradient"/><radialGradient id="radial-gradient-27" cx="51.33" cy="271.64" r="31.59" xlink:href="#radial-gradient"/><radialGradient id="radial-gradient-28" cx="51.34" cy="271.64" r="31.59" xlink:href="#radial-gradient"/><radialGradient id="radial-gradient-29" cx="51.34" cy="271.65" r="31.6" xlink:href="#radial-gradient"/><radialGradient id="radial-gradient-30" cx="51.33" cy="271.64" r="31.59" xlink:href="#radial-gradient"/><radialGradient id="radial-gradient-31" cx="51.33" cy="271.64" r="31.59" xlink:href="#radial-gradient"/><radialGradient id="radial-gradient-32" cx="51.34" cy="271.64" r="31.59" xlink:href="#radial-gradient"/><radialGradient id="radial-gradient-33" cx="51.34" cy="271.65" r="31.59" xlink:href="#radial-gradient"/><radialGradient id="radial-gradient-34" cx="51.34" cy="271.65" r="31.59" xlink:href="#radial-gradient"/><radialGradient id="radial-gradient-35" cx="51.34" cy="271.65" r="31.59" xlink:href="#radial-gradient"/><radialGradient id="radial-gradient-36" cx="51.34" cy="271.64" r="31.59" xlink:href="#radial-gradient"/><radialGradient id="radial-gradient-37" cx="51.33" cy="271.65" r="31.59" xlink:href="#radial-gradient"/><radialGradient id="radial-gradient-38" cx="51.34" cy="271.64" r="31.59" xlink:href="#radial-gradient"/><radialGradient id="radial-gradient-39" cx="51.34" cy="271.65" r="31.59" xlink:href="#radial-gradient"/><radialGradient id="radial-gradient-40" cx="51.34" cy="271.64" r="31.6" xlink:href="#radial-gradient"/><radialGradient id="radial-gradient-41" cx="51.34" cy="271.64" r="31.6" xlink:href="#radial-gradient"/><radialGradient id="radial-gradient-42" cx="51.34" cy="271.64" r="31.59" xlink:href="#radial-gradient"/><radialGradient id="radial-gradient-43" cx="51.33" cy="271.64" r="31.6" xlink:href="#radial-gradient"/><radialGradient id="radial-gradient-44" cx="51.34" cy="271.64" r="31.6" xlink:href="#radial-gradient"/><radialGradient id="radial-gradient-45" cx="51.34" cy="271.65" r="31.58" xlink:href="#radial-gradient"/><radialGradient id="radial-gradient-46" cx="51.33" cy="271.64" r="31.6" xlink:href="#radial-gradient"/><radialGradient id="radial-gradient-47" cx="51.34" cy="271.64" r="31.59" xlink:href="#radial-gradient"/><radialGradient id="radial-gradient-48" cx="51.33" cy="271.64" r="31.61" xlink:href="#radial-gradient"/><radialGradient id="radial-gradient-49" cx="51.33" cy="271.64" r="31.6" xlink:href="#radial-gradient"/><radialGradient id="radial-gradient-50" cx="51.33" cy="271.65" r="31.59" xlink:href="#radial-gradient"/><radialGradient id="radial-gradient-51" cx="51.34" cy="271.63" r="31.61" xlink:href="#radial-gradient"/><radialGradient id="radial-gradient-52" cx="51.34" cy="271.64" r="31.6" xlink:href="#radial-gradient"/><radialGradient id="radial-gradient-53" cx="51.34" cy="271.65" r="31.58" xlink:href="#radial-gradient"/><radialGradient id="radial-gradient-54" cx="51.33" cy="271.65" r="31.59" xlink:href="#radial-gradient"/><radialGradient id="radial-gradient-55" cx="36.03" cy="267.97" r="11.66" xlink:href="#radial-gradient-3"/><radialGradient id="radial-gradient-56" cx="22.5" cy="264.4" r="28.55" gradientUnits="userSpaceOnUse"><stop offset="0.29" stop-color="#1a171a"/><stop offset="1" stop-color="#313033"/></radialGradient><radialGradient id="radial-gradient-57" cx="400.21" cy="272.41" r="14.21" gradientTransform="matrix(-0.61, 0.07, -0.12, -1.12, 312.15, 546.52)" xlink:href="#radial-gradient-3"/><clipPath id="clip-path-4" transform="translate(32.43)"><path class="cls-8" d="M34,263.39l1.62-.35a.61.61,0,0,1,.35,0l-1.62.35A.61.61,0,0,0,34,263.39Z"/></clipPath><radialGradient id="radial-gradient-59" cx="37.89" cy="272.5" r="12.17" xlink:href="#radial-gradient-3"/><radialGradient id="radial-gradient-60" cx="37.89" cy="272.48" r="12.14" xlink:href="#radial-gradient-3"/><radialGradient id="radial-gradient-61" cx="37.89" cy="272.51" r="12.18" xlink:href="#radial-gradient-3"/><radialGradient id="radial-gradient-62" cx="37.89" cy="272.51" r="12.17" xlink:href="#radial-gradient-3"/><radialGradient id="radial-gradient-63" cx="37.89" cy="272.55" r="12.23" xlink:href="#radial-gradient-3"/><radialGradient id="radial-gradient-64" cx="37.89" cy="272.5" r="12.16" xlink:href="#radial-gradient-3"/><radialGradient id="radial-gradient-65" cx="37.89" cy="272.48" r="12.13" xlink:href="#radial-gradient-3"/><radialGradient id="radial-gradient-66" cx="40.11" cy="269.84" r="9.55" xlink:href="#radial-gradient-3"/><clipPath id="clip-path-5" transform="translate(32.43)"><path class="cls-9" d="M37.1,272l-1.62.35c.6-.13,1-1.21,1-2.91,0-2.33-.77-4.93-1.73-5.8a1.1,1.1,0,0,0-.39-.25l1.62-.35a1.21,1.21,0,0,1,.39.24c1,.88,1.74,3.48,1.73,5.81C38.12,270.82,37.7,271.9,37.1,272Z"/></clipPath><mask id="mask-3" x="56.76" y="240.52" width="29.47" height="38.12" maskUnits="userSpaceOnUse"><g transform="translate(32.43)"><path class="cls-3" d="M53.79,271.94c0-.1,0-.2,0-.3s0-.35,0-.52,0-.37,0-.56a.28.28,0,0,1,0-.09c0-.19,0-.38,0-.57l0-.41a2.28,2.28,0,0,0,0-.26c0-.18,0-.35,0-.53l0-.27c0-.16,0-.31-.05-.46l-.06-.5s0-.07,0-.1c0-.33-.09-.65-.14-1,0,0,0-.05,0-.08h0c-.06-.37-.12-.74-.19-1.11,0,0,0-.05,0-.07l-.12-.6c0-.21-.08-.42-.13-.62v0s0-.07,0-.1l-.15-.66c0-.16-.07-.32-.11-.47a.24.24,0,0,0,0-.08l-.21-.83-.06-.2h0l0-.14c-.07-.23-.13-.46-.2-.69l-.06-.23a1.42,1.42,0,0,0,0-.16c-.08-.24-.15-.49-.23-.74l-.12-.37c-.12-.37-.24-.72-.37-1.08l-.06-.17s0-.07,0-.11-.11-.3-.16-.44l-.09-.22c-.21-.55-.44-1.1-.67-1.64l0-.12a1,1,0,0,0,0-.1s0,0,0-.05c-.21-.47-.43-.93-.65-1.39l-.06-.12c0-.09-.09-.17-.13-.26a.43.43,0,0,0,0-.07l-.08-.16-.37-.72c0-.07-.08-.16-.13-.23s-.07-.12-.1-.18l-.29-.52-.19-.32v0l-.17-.29a.35.35,0,0,0,0-.08c-.22-.37-.45-.73-.68-1.08a.25.25,0,0,1,0-.07l-.25-.35c-.13-.2-.27-.4-.41-.59l-.1-.15c-.09-.12-.18-.23-.26-.35L45.8,248l-.08-.11-.14-.18-.24-.29L45,247l-.16-.2-.27-.3,0,0-.07-.08,0,0-.12-.14-.16-.18-.32-.33a1.29,1.29,0,0,1-.16-.17l-.07-.06-.14-.15-.43-.41-.14-.13-.1-.09c-.2-.19-.41-.36-.61-.54l0,0,0,0c-.21-.18-.44-.35-.66-.53l-.07-.05-.14-.1-.45-.33-.17-.11-.19-.13-.3-.2-.28-.17-.21-.12a1.18,1.18,0,0,0-.19-.11c-.14-.09-.29-.16-.44-.24l-.15-.08-.1,0-.5-.24-.34-.15-.21-.08-.51-.2h0c-.21-.08-.41-.14-.62-.2l-.14,0-.29-.08-.33-.08-.07,0-.13,0-.35-.07-.28-.05-.18,0-.37,0h-.1l-.14,0h-.7c-.1,0-.2,0-.3,0h-.3l-.21,0h-.08l-.31,0-.13,0h-.07l-.62.11h0l-.25.06c-.2.05-.4.1-.6.17l-.11,0-.16.06q-.39.13-.75.3l-.24.1a8.4,8.4,0,0,0-.88.48,1.64,1.64,0,0,0-.22.14c-.24.15-.47.31-.7.48l-.22.16c-.27.22-.54.45-.8.7l-.18.18q-.33.32-.63.66l-.2.22c-.24.28-.48.58-.7.89l-.15.21-.36.54q.44,1.59.93,3.12A71.06,71.06,0,0,0,28.69,258,58.63,58.63,0,0,0,33,265.66c.47.7,1,1.37,1.45,2,.65.85,1.31,1.67,2,2.44,0-.2,0-.42,0-.65h0c0-2.34-.76-4.93-1.73-5.81a1.22,1.22,0,0,0-.39-.25h0a.58.58,0,0,0-.29,0h0l1.62-.35H36l0,0,0,0,.05,0,0,0s0,0,0,0l.05,0,0,0,.06.05h0l0,.06.06.06.06.08.08.08.09.11a0,0,0,0,1,0,0h0l.06.1.09.15.11.18a.41.41,0,0,0,0,.09.08.08,0,0,1,0,0,.36.36,0,0,1,0,.09l.12.27.09.19.06.16a.76.76,0,0,1,0,.11c.06.16.12.32.17.49l0,.09v0c.05.17.1.36.15.55a1.05,1.05,0,0,0,0,.19s0,.05,0,.08,0,.07,0,.11l.06.32.06.31s0,0,0,.06a.43.43,0,0,0,0,.05c0,.07,0,.13,0,.19l0,.3c0,.1,0,.2,0,.3a.11.11,0,0,1,0,.05v0a1.48,1.48,0,0,1,0,.21,2.71,2.71,0,0,1,0,.29c0,.09,0,.18,0,.28v.29a2.26,2.26,0,0,0,0,.26.57.57,0,0,1,0,.13v.1l0,.22a1.23,1.23,0,0,1,0,.19l0,.19,0,.17,0,.15v0h0c0,.05,0,.09,0,.13s0,.09,0,.14l0,.13h0a.54.54,0,0,0,0,.11l-.05.12,0,.06a29.46,29.46,0,0,0,4.84,4.06c.48.31,1,.6,1.45.87a18.51,18.51,0,0,0,2,1,17.09,17.09,0,0,0,3.34,1,13.42,13.42,0,0,0,4,.16c.1-.59.18-1.18.24-1.8,0-.05,0-.11,0-.17h0a.38.38,0,0,0,0-.1c0-.19,0-.39,0-.59a.66.66,0,0,0,0-.14c0-.18,0-.35,0-.53v-.07c0-.07,0-.15,0-.23v-.06a2.81,2.81,0,0,0,0-.29c0-.19,0-.38,0-.57s0-.14,0-.2c0-.29,0-.57,0-.86v-.23C53.8,272.47,53.79,272.2,53.79,271.94Z"/></g></mask><mask id="mask-4" x="38.34" y="33.97" width="244.25" height="55.89" maskUnits="userSpaceOnUse"><g transform="translate(32.43)"><path class="cls-4" d="M247.83,47.46C225.59,52.9,141.94,73.34,135.47,74.74a27.49,27.49,0,0,1-2.76.45,22.92,22.92,0,0,1-2.6.13c-.69,0-1.08-.07-1.08-.07L7.21,34l-.12.09A2.89,2.89,0,0,0,5.9,35.5v.33L128.31,77.31l.19,0,.19,0V89.55c.51.1,1,.18,1.42.24l.64.07V77.42a26.18,26.18,0,0,0,4.55-.59c6.7-1.45,97.24-23.58,114.85-27.89A5.77,5.77,0,0,0,247.83,47.46Z"/></g></mask></defs><title>poubelle_tri3_jaune</title><g class="cls-10"><g id="Calque_1" data-name="Calque 1"><path class="cls-11" d="M136.28,346.67h0c-6.16,0-9.32-2.16-10.1-2.79-3.39-2.09-51.67-32-57.72-37-2.19-1.8-3.62-5.89-4.71-13.6a30.82,30.82,0,0,1-6.53-5.27c-.3.45-.59.86-.89,1.23l-.1.13c-.27.33-.57.67-.87,1-.08.09-.16.16-.24.24-.29.29-.53.51-.78.73l-.35.3c-.3.24-.61.48-.93.7l-.16.1a11.11,11.11,0,0,1-1.11.65l-.33.16c-.34.16-.62.28-.91.39l-.43.16a9.05,9.05,0,0,1-1,.3.79.79,0,0,1-.22.06l-5.54,1.2h0a12.47,12.47,0,0,1-6.88-.53c-10.09-3.59-18-18.4-17.95-33.73,0-.62,0-1.22.05-1.82l0-.48c0-.54.07-1.09.12-1.63l0-.13c.06-.57.13-1.12.21-1.67L19,255c.08-.49.17-1,.27-1.43l0-.21c.11-.52.24-1,.37-1.52l.12-.42c.12-.42.25-.83.38-1.23l.09-.26c.16-.46.33-.91.51-1.36l.14-.32c.18-.42.35-.78.52-1.12l.13-.26q.32-.63.66-1.2l.15-.25c.23-.37.42-.65.61-.92l.25-.36c.25-.33.5-.65.76-1l.29-.32c.23-.25.44-.48.66-.69l.23-.23c.3-.28.61-.54.93-.79l.22-.18c.31-.23.58-.41.85-.58l.29-.19c.34-.2.69-.39,1-.56a2.51,2.51,0,0,1,.23-.11c.36-.16.66-.27,1-.38l.21-.08.2-.05.64-.18.26-.06h0l.06,0h0l5.56-1.21.78-.14.22,0a16,16,0,0,1-4.05-11l-.88-21.13a19.55,19.55,0,0,1-1.51-7.81c0-.86,0-1.5.07-1.81L26.68,92.72l-.87-.07a4.09,4.09,0,0,1-3.9-4.93c-.09-2.06-.67-15.12-.67-17a27,27,0,0,0-.34-3.77L13.27,48.18,6.06,45.41c-.39-.2-2.35-1.37-2.35-5.07v-5.1L3.78,35a2.14,2.14,0,0,1,.14-.4C1.36,33.09,0,29.23,0,26.12c0-2.52.86-4.54,2.24-5.59l2-.8,19.27-2.29c1.73-1.24,3.58-2.24,5.2-2.24.75,0,3,0,6.67-.17l4.32-.14L117.5,4.28l1.3-2.36c.39-.81,1.45-1.92,4.43-1.92,2.36,0,5.09.16,5.21.17l.23,0,.23.06a3.38,3.38,0,0,1,1.61,1.14,3.48,3.48,0,0,1,.7,1.83l.14,1.67c12.17,3.86,97.2,30.79,97.94,31l.11,0c.58.21,5,1.92,6.55,5.85,3.84,1.17,8.47,2.56,10.81,3.17a16.59,16.59,0,0,1,1.68.54c4.53,1.74,4.9,5.07,4.9,8.92v5.78a3.13,3.13,0,0,1-.26,1.93c-.81,1.75-3,3-7,4-1,.23-3.73.93-7.77,2-3,5-5.28,9-5.73,9.91-.11,1.53-.45,13.37-.64,20.68,0,2-.83,4.61-3.17,4.91h-.06l-6.72,191c-.58,14.42-6.74,17.62-7.44,17.94-.36.18-42.87,21.36-60.86,29.68-6.44,3-12.31,4.49-17.45,4.49Zm-7.53-6s2.33,1.88,7.53,1.88c4.54,0,9.83-1.38,15.72-4.11,17.93-8.29,60.39-29.44,60.82-29.66.06,0,4.62-2.55,5.09-14.37l6.86-194.73,1.91-.07,1.07-.06a5.12,5.12,0,0,0,.11-.93c.24-9.38.56-20.68.73-21.53.09-.46.23-1.15,6.66-11.85l.44-.73.82-.21c4.51-1.14,7.62-1.93,8.64-2.17a10.62,10.62,0,0,0,4.06-1.59V54.45c0-3.62-.31-4.33-2.25-5.07a10.65,10.65,0,0,0-1.24-.4c-2.63-.68-8-2.31-12-3.55l-1.19-.36-.23-1.22c-.51-2.62-4.19-4-4.23-4-1.16-.39-98.25-31.14-99.23-31.45L127.48,8l-.32-3.76c-1-.05-2.55-.11-3.93-.11a4.49,4.49,0,0,0-1,.09L120.1,8.08,39.89,19l-4.43.14c-3.78.12-6,.18-6.8.18a5.27,5.27,0,0,0-3,1.35l-.44.34L6.77,23.54l0,.21-2.13.12a3.69,3.69,0,0,0-.55,2.26c0,2.42,1.12,4.51,1.9,4.91l.1-.05,2.63-.54,2.12.69-.53,4a4.6,4.6,0,0,0-2.16.54,1.82,1.82,0,0,0-.34.3v4.34a3.2,3.2,0,0,0,.25,1.44L16.42,45l8.5,21a31,31,0,0,1,.44,4.7c0,1.57.44,11.89.68,17.12v.33l-.09.32v.06a1.08,1.08,0,0,0,.26,0c.63.06,1.46.1,2.46.1l1.95,0,4.74,107.06,0,.17a12.35,12.35,0,0,0-.07,1.51,15.48,15.48,0,0,0,1.26,6.36l.18.38.05.49.91,21.75v.11a11.89,11.89,0,0,0,3.25,8.33l.09.09c.24.22.47.44.73.64a11,11,0,0,0,.91.66,22.85,22.85,0,0,1,4.65,3.86l-2.58,3.16-1.34-.77-.56-.26-.39-.16-.36-.13-.49-.17-.64-.17-.14,0c-.2,0-.37-.08-.54-.1s-.34,0-.52-.06l-.25,0h-.42l-.39,0-.26,0-.44,0-.51.1-5.75,1.25-.46.13-.08,0L31,243l-.58.23-.12.05a8.59,8.59,0,0,0-.77.41l-.21.13c-.17.12-.36.24-.54.38l-.2.15c-.21.17-.43.36-.65.56l-.16.16c-.18.18-.35.35-.51.54l-.19.21c-.2.23-.4.49-.6.75l-.15.21c-.18.26-.32.48-.46.71l-.16.25c-.18.31-.36.63-.53,1l-.11.22c-.13.28-.27.57-.4.87l-.14.32c-.14.36-.29.74-.43,1.13l-.07.22c-.11.34-.22.7-.33,1.06l-.1.36c-.11.43-.22.86-.32,1.31l0,.17c-.09.43-.17.84-.24,1.27L23,256c-.07.49-.14,1-.19,1.49v.12c-.05.47-.09,1-.11,1.46l0,.42c0,.53,0,1.08,0,1.63,0,13.24,6.94,26.91,15.22,29.85a8.34,8.34,0,0,0,4.62.38h0l5.48-1.19.13,0a6.73,6.73,0,0,0,.75-.21l.21-.08c.25-.1.43-.17.61-.26l.25-.12a6.6,6.6,0,0,0,.78-.45l.1-.07c.21-.15.43-.31.64-.49l.21-.17c.21-.18.38-.34.55-.51l.22-.22c.2-.22.41-.44.6-.68l.1-.13a11.78,11.78,0,0,0,.77-1.06l.07-.1c.1-.17.19-.34.29-.5l.32-.55c.12-.23.23-.44.33-.65v-6.32l3.78,5.63a24.27,24.27,0,0,0,8.07,7.09l.86.51.13,1c1.21,9,2.64,11.34,3.39,12,5.92,4.87,56.87,36.39,57.38,36.71l.29.21Z" transform="translate(32.43)"/><path class="cls-12" d="M237.31,65.8s-6.53,10.82-6.7,11.68-.69,21.13-.69,21.13,0,2.75-1.37,2.93-4.12.17-4.12.17l.17-35.39,12.71-3.27Z" transform="translate(32.43)"/><path class="cls-13" d="M138.3,90a35.2,35.2,0,0,0-5.78-.08,14.09,14.09,0,0,1-2.57-.14,21.9,21.9,0,0,1-3.88-.87c-2.82-.89-66-25-99.16-37.71l1.75,39.52L33.3,195.66a18.53,18.53,0,0,0,1.38,9,9.57,9.57,0,0,0,4,4.42c6.64,3.66,19.12,18.57,22.51,36.6,2.28,12.16,2.6,32.74,4.43,46.41.88,6.61,2.12,11.61,4.11,13.24,6.1,5,57.61,36.88,57.61,36.88s7.32,6.5,25.49-1.9,60.87-29.69,60.87-29.69,5.69-2.58,6.23-16.13l7.95-225.9c-29.38,7.48-84.31,21.53-84.31,21.53A31.29,31.29,0,0,1,138.3,90Z" transform="translate(32.43)"/><g class="cls-14"><path class="cls-15" d="M151.8,255.05c-47.83-19.88-91-71.21-122-137.89l3.47,78.5a18.53,18.53,0,0,0,1.38,9,9.57,9.57,0,0,0,4,4.42c6.64,3.66,19.12,18.57,22.51,36.6,2.28,12.16,2.6,32.74,4.43,46.41.88,6.61,2.12,11.61,4.11,13.24,6.1,5,57.61,36.87,57.61,36.87s7.32,6.51,25.49-1.89,60.87-29.69,60.87-29.69,5.69-2.58,6.23-16.14L221.22,259C200,266.16,176.5,265.32,151.8,255.05Z" transform="translate(32.43)"/></g><path class="cls-16" d="M14,44.37l8.94,22a29.21,29.21,0,0,1,.41,4.34c0,2,.68,17.22.68,17.22a2.08,2.08,0,0,0,2,2.71c.8.08,1.75.11,2.68.12L26.79,47.6Z" transform="translate(32.43)"/><path class="cls-12" d="M124.29,87.34l.95,43.11,2.85-2.44.41-26.43a29.11,29.11,0,0,1,2-5.56c1.08-1.9,4.06-7.19,4.06-7.19l-10-3.11Z" transform="translate(32.43)"/><path class="cls-12" d="M156.29,85.31c0,.41.4,15.45.4,15.45l.1,0,7.75-17.29Z" transform="translate(32.43)"/><polygon class="cls-17" points="198.84 83.03 196.97 83.45 189.23 100.74 191.16 100.22 198.84 83.03"/><path class="cls-12" d="M185.74,77.35c0,.4.39,15.08.39,15.08l.1,0,7.56-16.86Z" transform="translate(32.43)"/><polygon class="cls-17" points="228.05 75.12 226.22 75.53 218.67 92.4 220.55 91.9 228.05 75.12"/><path class="cls-12" d="M215.46,70.5c0,.35.34,13.17.34,13.17l.09,0,6.6-14.72Z" transform="translate(32.43)"/><polygon class="cls-17" points="256.52 68.56 254.92 68.92 248.33 83.64 249.97 83.2 256.52 68.56"/><polygon class="cls-18" points="37.08 23.11 36.91 21.77 156.62 5.45 150.14 10.07 38.54 33.1 37.24 29.92 37.08 23.11"/><path class="cls-19" d="M135.35,74.73c6.46-1.4,90.11-21.84,112.35-27.28a15,15,0,0,0-1.46-.46c-4.64-1.21-18.14-5.44-18.14-5.44L162.79,21.19l-43.13-4.84S15.25,33.08,10.81,33.08A6.9,6.9,0,0,0,7.08,34L128.9,75.25A20.81,20.81,0,0,0,135.35,74.73Z" transform="translate(32.43)"/><path class="cls-20" d="M251.28,60.49v-6c0-3.74-.32-5.75-3.58-7-22.24,5.44-105.89,25.88-112.35,27.28a23.7,23.7,0,0,1-5.37.58V89.78a14.2,14.2,0,0,0,2.58.14,35.09,35.09,0,0,1,5.77.08,31.29,31.29,0,0,0,5.31.12s95.34-24.39,102-26S251.28,60.49,251.28,60.49Z" transform="translate(32.43)"/><path class="cls-21" d="M128.9,75.25,7.08,34A3,3,0,0,0,5.77,35.5v4.84C5.77,43,7,43.56,7,43.56S122.28,87.7,126.11,88.91a21.82,21.82,0,0,0,3.87.87V75.31A10.64,10.64,0,0,1,128.9,75.25Z" transform="translate(32.43)"/><path class="cls-22" d="M134.53,81.72l7.6.78a12.79,12.79,0,0,0,4.09-.39c2.63-.58,97.38-24.44,97.38-24.44l3.21-2.92Z" transform="translate(32.43)"/><path class="cls-23" d="M234.3,43.55c-.61-3.51-4.59-5.28-5.56-5.63,2.29,3,.72,3.74.72,3.74s-69.79,13.73-83.68,16.51-21.08,1.63-23.86,1.14S28.6,23.85,27.78,23.52s-3.43,1.47-3.6,2.94c-.13,1.2-1.45,8.34-1.94,11,4.44,1.51,73.4,24.06,87.8,29.68,15.84,6.17,33.3,2.21,33.3,2.21s80.41-17.88,87.18-19.42c4.18-.95,4.07-2.3,4.07-2.3S235,47.47,234.3,43.55Z" transform="translate(32.43)"/><path class="cls-24" d="M7.62,24.6A5.06,5.06,0,0,0,5.3,22c-1.78-.74-3.23,1.12-3.24,4.16S3.5,32.23,5.29,33a1.86,1.86,0,0,0,2.33-.72,5.88,5.88,0,0,0,.91-3.44A10.37,10.37,0,0,0,7.62,24.6Z" transform="translate(32.43)"/><path class="cls-25" d="M20.93,22.68S9.53,24,8.41,24a.81.81,0,0,0-.81.59L17,27.27C17.39,26.68,20.93,22.68,20.93,22.68Z" transform="translate(32.43)"/><path class="cls-26" d="M228.74,37.92l-.11,0c-.77-.26-99.21-31.44-99.21-31.44s-.14-1.61-.27-3a1.39,1.39,0,0,0-.28-.76c-.77,1.61-1.79,3.71-2.58,5.23-.94,1.79,1.3,2.23,1.3,2.23l53.26,13.55,21.9,15s-62.63,11.94-66,12.68a9.46,9.46,0,0,1-3.89.2A12.11,12.11,0,0,1,131,51c-1.11-.37-50.58-26.78-52.25-27.15-1-.24-2.33-.62-3.13-.87l-.76-.25-47.16.8h.06c.82.33,91.36,35.3,94.14,35.79s10,1.64,23.86-1.14,83.68-16.51,83.68-16.51S231,41,228.74,37.92Z" transform="translate(32.43)"/><path class="cls-27" d="M126.42,66.35c-1.62-.46-7.59-4-5.31-3.36s5,3.36,25.57-.22S228.51,44,228.51,44s4.2-.64,3.68,0c-1,1.19-83.45,21.13-89.3,22.22C138.31,67.08,132.92,68.19,126.42,66.35Z" transform="translate(32.43)"/><path class="cls-28" d="M133.16,32.51a13.22,13.22,0,0,1-2-.29A13.22,13.22,0,0,0,133.16,32.51Z" transform="translate(32.43)"/><path class="cls-28" d="M133.67,32.52h0Z" transform="translate(32.43)"/><path class="cls-28" d="M133.18,32.51h0Z" transform="translate(32.43)"/><path class="cls-29" d="M180.85,23.65s-44.55,8.54-45.67,8.7a9.63,9.63,0,0,1-1.51.17l-.78,19a9.46,9.46,0,0,0,3.89-.2c3.34-.74,66-12.68,66-12.68Z" transform="translate(32.43)"/><polygon class="cls-28" points="163.56 32.22 163.56 32.22 163.56 32.22 163.56 32.22"/><path class="cls-30" d="M131.12,32.22A38.26,38.26,0,0,1,127,31.07l-1.09-.35c-8.61-2.67-46-13.07-46-13.07s-.9-.29-2.07-.6L75.64,23h0l.61.19.16.05.55.16.25.07.54.15.25.06.75.19a.78.78,0,0,1,.19.06l.06,0,.32.15.08,0,.41.19.11.06.58.28.16.08.64.32.11,0,.79.4.28.14.89.45.19.1.87.45.3.15,1.06.55.35.18.92.47.33.17,1.17.61.54.28.88.46.74.38.85.45.7.37,1.27.66.5.26,1,.5.65.34,1.24.65.91.48.51.26,3.07,1.62.67.35,1.29.68,1,.52.53.28,1.57.82.25.14,1.62.85.14.08L125.16,48l.79.41.36.19.92.48.06,0,1,.51.07,0,.84.44h0l1.23.63,0,0,.28.14.06,0,0,0L131,51a13.14,13.14,0,0,0,1.86.57h0l.78-19A11.52,11.52,0,0,1,131.12,32.22Z" transform="translate(32.43)"/><path class="cls-31" d="M127.59,10.1s-2.24-.44-1.3-2.23c.79-1.52,1.81-3.62,2.58-5.23a1.17,1.17,0,0,0-.56-.41s-2.76-.17-5.08-.17-2.57.77-2.57.77l-2.58,4.64L71.66,15.82s-24,.89-36.27,1.27c11-.05,41.16-.18,42.43,0a1,1,0,0,1,.31.08c1,.28,1.76.52,1.76.52s37.44,10.4,46.05,13.07l1.09.35a38.26,38.26,0,0,0,4.09,1.15h0a13.22,13.22,0,0,0,2,.29h.51a9.63,9.63,0,0,0,1.51-.17c1.12-.16,45.67-8.7,45.67-8.7Z" transform="translate(32.43)"/><path class="cls-32" d="M20.93,22.68s-3.54,4-4,4.59L7.62,24.6a10.37,10.37,0,0,1,.91,4.21,5.88,5.88,0,0,1-.91,3.44c.63.2,9.5,3.09,11.24,3.59A10.86,10.86,0,0,1,22,37.35l.23.08c.49-2.63,1.81-9.77,1.94-11,.16-1.44,2.67-3.18,3.54-2.94l47.16-.8.76.25,2.18-5.92c-1.27-.14-31.47,0-42.43,0-3.39.11-5.89.18-6.73.18C24.79,17.27,20.93,22.68,20.93,22.68Z" transform="translate(32.43)"/><path class="cls-33" d="M78.13,17.13a1,1,0,0,0-.31-.08Z" transform="translate(32.43)"/><path class="cls-34" d="M38.75,209.08a9.67,9.67,0,0,1-4-4.42l.91,21.7s-.52,7.47,5.92,11.6,9.54,10,11.34,22.67C54.65,273,50.23,283,65.69,292.09c-1.83-13.67-2.15-34.25-4.43-46.41C57.87,227.65,45.4,212.74,38.75,209.08Z" transform="translate(32.43)"/><g class="cls-35"><path class="cls-36" d="M52.88,260.63C54.65,273,50.23,283,65.69,292.09c-1.51-11.27-2-27.22-3.39-39.29-4.18-7.37-9.47-12.94-15.23-15.33a14.56,14.56,0,0,0-7.56-1.13,12.89,12.89,0,0,0,2,1.62C48,242.08,51.08,248,52.88,260.63Z" transform="translate(32.43)"/></g><g class="cls-10"><g class="cls-10"><path class="cls-5" d="M31.48,240.72l5.55-1.2a10.37,10.37,0,0,1,5.75.46l-5.56,1.2A10.44,10.44,0,0,0,31.48,240.72Z" transform="translate(32.43)"/><g class="cls-37"><path class="cls-6" d="M31.48,240.72l5.55-1.2.65-.12-5.55,1.21-.65.11" transform="translate(32.43)"/><path class="cls-6" d="M32.13,240.61l5.55-1.21a10,10,0,0,1,1.1-.09l-5.56,1.2a9.81,9.81,0,0,0-1.09.1" transform="translate(32.43)"/><path class="cls-6" d="M33.22,240.51l5.56-1.2c.3,0,.61,0,.92,0l-5.55,1.2c-.31,0-.62,0-.93,0" transform="translate(32.43)"/><path class="cls-6" d="M34.15,240.53l5.55-1.2q.44,0,.87.09L35,240.62l-.86-.09" transform="translate(32.43)"/><path class="cls-6" d="M35,240.62l5.56-1.2a8.09,8.09,0,0,1,.83.16l-5.56,1.2c-.27-.06-.55-.12-.83-.16" transform="translate(32.43)"/><path class="cls-6" d="M35.84,240.78l5.56-1.2a7.27,7.27,0,0,1,.77.2L36.61,241l-.77-.2" transform="translate(32.43)"/><path class="cls-6" d="M36.61,241l5.56-1.2.61.2-5.56,1.2-.61-.2" transform="translate(32.43)"/></g></g><path class="cls-38" d="M35.94,245.42C43.71,248.18,50,260.24,50,272.33S43.63,292,35.86,289.23s-14.07-14.81-14-26.91S28.16,242.65,35.94,245.42Z" transform="translate(32.43)"/><path class="cls-6" d="M35.94,245.42l1.28-4.24c9.19,3.27,16.61,17.49,16.59,31.78s-7.5,23.22-16.68,20-16.62-17.49-16.59-31.79,7.5-23.21,16.68-19.95l-1.28,4.24c-7.78-2.77-14.11,4.8-14.13,16.9s6.27,24.15,14.05,26.91S50,284.43,50,272.33,43.71,248.18,35.94,245.42Z" transform="translate(32.43)"/><g class="cls-39"><g class="cls-10"><path class="cls-6" d="M35.94,245.42l1.28-4.24.52.2-1.36,4.21-.44-.17" transform="translate(32.43)"/><path class="cls-6" d="M36.38,245.59l1.36-4.21A15.16,15.16,0,0,1,41,243.22l-1.87,3.92a12.79,12.79,0,0,0-2.78-1.55" transform="translate(32.43)"/><path class="cls-6" d="M39.16,247.14,41,243.22a21,21,0,0,1,3.45,3.14l-2.39,3.44a19,19,0,0,0-2.93-2.66" transform="translate(32.43)"/><path class="cls-6" d="M42.09,249.8l2.39-3.44a32,32,0,0,1,4.73,7l-3.12,2.37a27.6,27.6,0,0,0-4-6" transform="translate(32.43)"/><path class="cls-6" d="M46.09,255.78l3.12-2.37a42.29,42.29,0,0,1,3.07,8.1l-3.59,1.12a35.44,35.44,0,0,0-2.6-6.85" transform="translate(32.43)"/><path class="cls-6" d="M48.69,262.63l3.59-1.12a44.7,44.7,0,0,1,1.48,9.35l-3.82-.31a37.28,37.28,0,0,0-1.25-7.92" transform="translate(32.43)"/><path class="cls-6" d="M49.94,270.55l3.82.31c0,.7.05,1.4.05,2.1,0,1.25-.07,2.47-.18,3.63l-3.79-1.18c.09-1,.14-2,.15-3.08,0-.59,0-1.19-.05-1.78" transform="translate(32.43)"/><path class="cls-6" d="M49.84,275.41l3.79,1.18a32.74,32.74,0,0,1-.79,4.69l-3.68-1.91a27.43,27.43,0,0,0,.68-4" transform="translate(32.43)"/><path class="cls-6" d="M49.16,279.37l3.68,1.91a24.88,24.88,0,0,1-1.46,4.22L47.93,283a20.06,20.06,0,0,0,1.23-3.58" transform="translate(32.43)"/><path class="cls-6" d="M47.93,283l3.45,2.55a17.65,17.65,0,0,1-2.48,4l-3.07-3.17a15,15,0,0,0,2.1-3.4" transform="translate(32.43)"/><path class="cls-6" d="M45.83,286.35l3.07,3.17c-3,3.61-7.18,5-11.77,3.4-9.19-3.27-16.62-17.49-16.59-31.79,0-10.58,4.13-18.23,10-20.15l-.26,4.27c-5,1.63-8.44,8.1-8.46,17.07,0,12.1,6.27,24.15,14.05,26.91a8.6,8.6,0,0,0,10-2.88" transform="translate(32.43)"/><path class="cls-6" d="M30.27,245.25l.26-4.27a9.63,9.63,0,0,1,3.8-.44l-.84,4.34a8.07,8.07,0,0,0-3.22.37" transform="translate(32.43)"/><path class="cls-6" d="M33.49,244.88l.84-4.34a11.5,11.5,0,0,1,2.89.64l-1.28,4.24a9.24,9.24,0,0,0-2.45-.54" transform="translate(32.43)"/></g></g><g class="cls-10"><path class="cls-7" d="M48.43,292.17l-2.78.61-2.5.54-.28.06C49.23,292,53.79,284.11,53.81,273c0-14.29-7.4-28.51-16.59-31.78l5.56-1.2c9.18,3.27,16.61,17.49,16.58,31.77C59.34,282.91,54.79,290.8,48.43,292.17Z" transform="translate(32.43)"/><g class="cls-40"><g class="cls-10"><path class="cls-41" d="M37.37,241.24,42.93,240l.72.29-5.56,1.21a7.22,7.22,0,0,0-.72-.29" transform="translate(32.43)"/><path class="cls-42" d="M38.09,241.53l5.56-1.21.7.33-5.55,1.21c-.24-.12-.47-.23-.71-.33" transform="translate(32.43)"/><path class="cls-43" d="M38.8,241.86l5.55-1.21L45,241l-5.56,1.2-.68-.36" transform="translate(32.43)"/><path class="cls-44" d="M39.48,242.22,45,241l.67.4-5.56,1.2-.67-.4" transform="translate(32.43)"/><path class="cls-45" d="M40.15,242.62l5.56-1.2.66.44-5.55,1.21c-.22-.16-.44-.3-.67-.45" transform="translate(32.43)"/><path class="cls-46" d="M40.82,243.07l5.55-1.21c.23.16.45.32.66.49l-5.55,1.2q-.33-.26-.66-.48" transform="translate(32.43)"/><path class="cls-47" d="M41.48,243.55l5.55-1.2c.23.17.45.34.67.53l-5.56,1.2-.66-.53" transform="translate(32.43)"/><path class="cls-48" d="M42.14,244.08l5.56-1.2c.22.18.44.38.66.58l-5.56,1.2-.66-.58" transform="translate(32.43)"/><path class="cls-49" d="M42.8,244.66l5.56-1.2c.23.2.45.41.67.63l-5.56,1.21-.67-.64" transform="translate(32.43)"/><path class="cls-50" d="M43.47,245.3,49,244.09q.34.34.69.72L44.16,246c-.22-.25-.45-.48-.69-.71" transform="translate(32.43)"/><path class="cls-51" d="M44.16,246l5.56-1.2c.23.24.46.5.69.76l-5.56,1.21c-.22-.27-.45-.52-.69-.77" transform="translate(32.43)"/><path class="cls-52" d="M44.85,246.78l5.56-1.21c.25.29.49.59.74.9l-5.56,1.2c-.24-.31-.49-.6-.74-.89" transform="translate(32.43)"/><path class="cls-53" d="M45.59,247.67l5.56-1.2c.25.32.5.64.74,1l-5.56,1.2c-.24-.33-.49-.66-.74-1" transform="translate(32.43)"/><path class="cls-54" d="M46.33,248.65l5.56-1.2c.26.36.51.72.76,1.09l-5.56,1.21c-.25-.38-.5-.74-.76-1.1" transform="translate(32.43)"/><path class="cls-55" d="M47.09,249.75l5.56-1.21c.26.4.52.81.77,1.23L47.87,251c-.26-.41-.51-.82-.78-1.22" transform="translate(32.43)"/><path class="cls-56" d="M47.87,251l5.55-1.2c.27.44.52.88.77,1.33l-5.56,1.2c-.25-.45-.5-.89-.76-1.33" transform="translate(32.43)"/><path class="cls-57" d="M48.63,252.3l5.56-1.2c.25.47.5,1,.74,1.44l-5.55,1.2q-.36-.74-.75-1.44" transform="translate(32.43)"/><path class="cls-58" d="M49.38,253.74l5.55-1.2c.27.54.53,1.1.77,1.66l-5.55,1.2c-.25-.56-.51-1.11-.77-1.66" transform="translate(32.43)"/><path class="cls-59" d="M50.15,255.4l5.55-1.2c.37.82.7,1.67,1,2.54l-5.56,1.2c-.31-.87-.65-1.71-1-2.54" transform="translate(32.43)"/><path class="cls-60" d="M51.16,257.94l5.56-1.2c.3.82.57,1.66.82,2.52L52,260.46c-.26-.85-.53-1.7-.83-2.52" transform="translate(32.43)"/><path class="cls-61" d="M52,260.46l5.55-1.2c.21.71.41,1.43.58,2.16l-5.55,1.2c-.18-.73-.37-1.45-.58-2.16" transform="translate(32.43)"/><path class="cls-62" d="M52.57,262.62l5.55-1.2c.11.45.22.91.31,1.36L52.87,264c-.09-.45-.2-.91-.3-1.36" transform="translate(32.43)"/><path class="cls-63" d="M52.87,264l5.56-1.2.24,1.2-5.56,1.21c-.08-.41-.15-.81-.24-1.21" transform="translate(32.43)"/><path class="cls-64" d="M53.11,265.19,58.67,264l.18,1.12-5.56,1.2c0-.38-.12-.75-.18-1.11" transform="translate(32.43)"/><path class="cls-65" d="M53.29,266.3l5.56-1.2c.06.35.11.71.15,1.06l-5.55,1.2c-.05-.35-.1-.71-.16-1.06" transform="translate(32.43)"/><path class="cls-66" d="M53.45,267.36l5.55-1.2c0,.35.09.71.13,1.06l-5.56,1.2-.12-1.06" transform="translate(32.43)"/><path class="cls-67" d="M53.57,268.42l5.56-1.2c0,.35.07.71.1,1.06l-5.56,1.21c0-.36-.06-.71-.1-1.07" transform="translate(32.43)"/><path class="cls-68" d="M53.67,269.49l5.56-1.21c0,.36.05.72.07,1.07l-5.56,1.21c0-.36,0-.72-.07-1.07" transform="translate(32.43)"/><path class="cls-69" d="M53.74,270.56l5.56-1.21c0,.36,0,.72,0,1.09l-5.55,1.2c0-.36,0-.72,0-1.08" transform="translate(32.43)"/><path class="cls-70" d="M53.79,271.64l5.55-1.2c0,.36,0,.72,0,1.08l-5.55,1.21c0-.37,0-.73,0-1.09" transform="translate(32.43)"/><path class="cls-71" d="M53.81,272.73l5.55-1.21v.23c0,.29,0,.58,0,.86l-5.55,1.2c0-.28,0-.57,0-.85v-.23" transform="translate(32.43)"/><path class="cls-72" d="M53.8,273.81l5.55-1.2,0,1.06-5.56,1.2c0-.35,0-.7,0-1.06" transform="translate(32.43)"/><path class="cls-73" d="M53.76,274.87l5.56-1.2c0,.35,0,.69-.07,1l-5.56,1.2c0-.34.05-.69.07-1" transform="translate(32.43)"/><path class="cls-74" d="M53.69,275.91l5.56-1.2-.09,1-5.56,1.2c0-.33.07-.67.09-1" transform="translate(32.43)"/><path class="cls-75" d="M53.6,276.92l5.56-1.2-.12,1-5.56,1.21.12-1" transform="translate(32.43)"/><path class="cls-76" d="M53.48,277.92,59,276.71l-.15,1-5.56,1.21.15-1" transform="translate(32.43)"/><path class="cls-77" d="M53.33,278.89l5.56-1.21c-.06.33-.11.66-.18,1l-5.56,1.2c.07-.32.13-.64.18-1" transform="translate(32.43)"/><path class="cls-78" d="M53.15,279.86l5.56-1.2c-.06.32-.13.63-.2.94L53,280.8c.07-.3.14-.62.2-.94" transform="translate(32.43)"/><path class="cls-79" d="M53,280.8l5.56-1.2c-.08.33-.16.65-.25,1l-5.55,1.2c.08-.31.16-.64.24-1" transform="translate(32.43)"/><path class="cls-80" d="M52.71,281.77l5.55-1.2c-.08.32-.17.64-.27.95l-5.56,1.2c.1-.31.19-.62.28-1" transform="translate(32.43)"/><path class="cls-81" d="M52.43,282.72l5.56-1.2c-.1.33-.21.66-.33,1l-5.55,1.2c.11-.32.22-.64.32-1" transform="translate(32.43)"/><path class="cls-82" d="M52.11,283.7l5.55-1.2c-.12.34-.24.67-.37,1l-5.56,1.21c.13-.33.26-.66.38-1" transform="translate(32.43)"/><path class="cls-83" d="M51.73,284.7l5.56-1.21c-.14.34-.29.68-.44,1l-5.56,1.21c.15-.33.3-.66.44-1" transform="translate(32.43)"/><path class="cls-84" d="M51.29,285.7l5.56-1.21c-.18.38-.36.74-.55,1.09l-5.56,1.21c.19-.35.38-.72.55-1.09" transform="translate(32.43)"/><path class="cls-85" d="M50.74,286.79l5.56-1.21c-.22.41-.45.8-.7,1.18L50.05,288q.36-.56.69-1.17" transform="translate(32.43)"/><path class="cls-86" d="M50.05,288l5.55-1.2a14.71,14.71,0,0,1-1,1.34l-5.56,1.2c.34-.42.66-.87,1-1.34" transform="translate(32.43)"/><path class="cls-87" d="M49.08,289.3l5.56-1.2a11,11,0,0,1-6.21,4.07l-5.56,1.21a11,11,0,0,0,6.21-4.08" transform="translate(32.43)"/></g></g></g></g><g class="cls-10"><path class="cls-88" d="M36.05,254.35c4.84,1.72,8.74,9.21,8.73,16.73S40.84,283.31,36,281.59s-8.74-9.21-8.72-16.73S31.22,252.63,36.05,254.35Z" transform="translate(32.43)"/><path class="cls-89" d="M36.05,254.35c4.84,1.72,8.74,9.21,8.73,16.73S40.84,283.31,36,281.59s-8.74-9.21-8.72-16.73S31.22,252.63,36.05,254.35Z" transform="translate(32.43)"/></g><g class="cls-90"><g class="cls-10"><path class="cls-91" d="M39.61,277.6c-2.56-1.3-5.23-7.88-6-14.71s.76-11.31,3.32-10,5.23,7.88,6,14.71S42.17,278.9,39.61,277.6Z" transform="translate(32.43)"/></g></g><g class="cls-10"><path class="cls-8" d="M34,263.39l1.62-.35a.61.61,0,0,1,.35,0l-1.62.35A.61.61,0,0,0,34,263.39Z" transform="translate(32.43)"/><g class="cls-92"><g class="cls-10"><path class="cls-93" d="M34,263.39l1.62-.35h0l-1.62.35h0" transform="translate(32.43)"/><path class="cls-94" d="M34.07,263.38l1.62-.35h.07l-1.62.35h-.07" transform="translate(32.43)"/><path class="cls-95" d="M34.14,263.38l1.62-.35h.05l-1.62.35h0" transform="translate(32.43)"/><path class="cls-96" d="M34.19,263.38l1.62-.35h.06l-1.63.35h-.05" transform="translate(32.43)"/><path class="cls-97" d="M34.24,263.38l1.63-.35h0l-1.62.35h0" transform="translate(32.43)"/><path class="cls-98" d="M34.29,263.39l1.62-.35H36l-1.62.35h-.05" transform="translate(32.43)"/><path class="cls-99" d="M34.34,263.4l1.62-.35,0,0-1.62.35,0,0" transform="translate(32.43)"/></g></g><path class="cls-100" d="M34.38,263.42a1.1,1.1,0,0,1,.39.25c1,.88,1.74,3.47,1.73,5.8,0,2-.59,3.16-1.36,2.88a1,1,0,0,1-.39-.25c-1-.86-1.74-3.47-1.74-5.8C33,264.3,33.6,263.14,34.38,263.42Z" transform="translate(32.43)"/><path class="cls-9" d="M37.1,272l-1.62.35c.6-.13,1-1.21,1-2.91,0-2.33-.77-4.93-1.73-5.8a1.1,1.1,0,0,0-.39-.25l1.62-.35a1.21,1.21,0,0,1,.39.24c1,.88,1.74,3.48,1.73,5.81C38.12,270.82,37.7,271.9,37.1,272Z" transform="translate(32.43)"/><g class="cls-101"><polyline class="cls-6" points="66.81 263.42 68.43 263.07 68.44 263.07 66.82 263.42 66.81 263.42"/><path class="cls-6" d="M34.39,263.42l1.62-.35,0,0-1.62.35,0,0" transform="translate(32.43)"/><path class="cls-6" d="M34.43,263.44l1.62-.35.05,0-1.63.35,0,0" transform="translate(32.43)"/><path class="cls-6" d="M34.47,263.46l1.63-.35,0,0-1.62.35-.05,0" transform="translate(32.43)"/><path class="cls-6" d="M34.52,263.48l1.62-.35,0,0-1.62.35,0,0" transform="translate(32.43)"/><path class="cls-6" d="M34.57,263.51l1.62-.35,0,0-1.62.35,0,0" transform="translate(32.43)"/><path class="cls-6" d="M34.61,263.54l1.62-.35a.1.1,0,0,1,.05,0l-1.62.35,0,0" transform="translate(32.43)"/><path class="cls-6" d="M34.66,263.58l1.62-.35a.1.1,0,0,1,0,0l-1.62.35-.05,0" transform="translate(32.43)"/><path class="cls-6" d="M34.71,263.62l1.62-.35.06,0h0l-1.62.35h0l-.06-.05" transform="translate(32.43)"/><path class="cls-6" d="M34.77,263.67l1.62-.35.06.05-1.62.35-.06-.05" transform="translate(32.43)"/><path class="cls-6" d="M34.83,263.72l1.62-.35.06.06-1.62.36-.06-.07" transform="translate(32.43)"/><path class="cls-6" d="M34.89,263.79l1.62-.36.07.08-1.63.35-.06-.07" transform="translate(32.43)"/><path class="cls-6" d="M35,263.86l1.63-.35.07.09L35,264l-.07-.09" transform="translate(32.43)"/><path class="cls-6" d="M35,264l1.63-.35.08.1-1.63.35L35,264" transform="translate(32.43)"/><path class="cls-6" d="M35.1,264.05l1.63-.35.08.12-1.62.35-.09-.12" transform="translate(32.43)"/><path class="cls-6" d="M35.19,264.17l1.62-.35.1.16-1.62.35-.1-.16" transform="translate(32.43)"/><path class="cls-6" d="M35.29,264.33l1.62-.35a1.45,1.45,0,0,1,.1.18l-1.62.35c0-.06-.07-.13-.1-.18" transform="translate(32.43)"/><path class="cls-6" d="M35.39,264.51l1.62-.35a2.12,2.12,0,0,1,.11.21l-1.62.35-.11-.21" transform="translate(32.43)"/><path class="cls-6" d="M35.5,264.72l1.62-.35c.05.09.09.18.13.27l-1.62.36c0-.1-.09-.19-.13-.28" transform="translate(32.43)"/><path class="cls-6" d="M35.63,265l1.62-.36c.06.15.12.3.18.47l-1.62.35c-.06-.16-.12-.32-.18-.46" transform="translate(32.43)"/><path class="cls-6" d="M35.81,265.46l1.62-.35c.07.18.14.38.2.59l-1.62.35c-.06-.2-.13-.4-.2-.59" transform="translate(32.43)"/><path class="cls-6" d="M36,266.05l1.62-.35.15.55-1.62.36-.15-.56" transform="translate(32.43)"/><path class="cls-6" d="M36.16,266.61l1.62-.36c0,.13.06.25.08.38l-1.62.35c0-.12-.06-.25-.08-.37" transform="translate(32.43)"/><path class="cls-6" d="M36.24,267l1.62-.35.06.33-1.62.35-.06-.33" transform="translate(32.43)"/><path class="cls-6" d="M36.3,267.31l1.62-.35.06.31-1.62.35-.06-.31" transform="translate(32.43)"/><path class="cls-6" d="M36.36,267.62l1.62-.35c0,.1,0,.2,0,.3l-1.62.35c0-.1,0-.2,0-.3" transform="translate(32.43)"/><path class="cls-6" d="M36.4,267.92l1.62-.35,0,.3-1.62.35,0-.3" transform="translate(32.43)"/><path class="cls-6" d="M36.43,268.22l1.62-.35,0,.29-1.62.35,0-.29" transform="translate(32.43)"/><path class="cls-6" d="M36.46,268.51l1.62-.35c0,.1,0,.2,0,.3l-1.62.35c0-.1,0-.2,0-.3" transform="translate(32.43)"/><path class="cls-6" d="M36.48,268.81l1.62-.35a2.81,2.81,0,0,1,0,.29l-1.62.35a2.81,2.81,0,0,0,0-.29" transform="translate(32.43)"/><path class="cls-6" d="M36.49,269.1l1.62-.35a2.62,2.62,0,0,1,0,.28l-1.62.35a2.72,2.72,0,0,0,0-.28" transform="translate(32.43)"/><path class="cls-6" d="M36.5,269.38l1.62-.35v.29l-1.62.35v-.29" transform="translate(32.43)"/><path class="cls-6" d="M36.5,269.67l1.62-.35a2.35,2.35,0,0,0,0,.26l-1.62.35a2.35,2.35,0,0,1,0-.26" transform="translate(32.43)"/><path class="cls-6" d="M36.49,269.93l1.62-.35c0,.08,0,.16,0,.23l-1.62.36c0-.08,0-.16,0-.24" transform="translate(32.43)"/><path class="cls-6" d="M36.47,270.17l1.62-.36a1.5,1.5,0,0,1,0,.22l-1.62.35a1.49,1.49,0,0,0,0-.21" transform="translate(32.43)"/><path class="cls-6" d="M36.45,270.38l1.62-.35a1.36,1.36,0,0,1,0,.2l-1.62.35c0-.06,0-.13,0-.2" transform="translate(32.43)"/><path class="cls-6" d="M36.43,270.58l1.62-.35,0,.18-1.62.35,0-.18" transform="translate(32.43)"/><path class="cls-6" d="M36.4,270.76l1.62-.35,0,.17-1.62.35,0-.17" transform="translate(32.43)"/><path class="cls-6" d="M36.37,270.93l1.62-.35,0,.16-1.62.35,0-.16" transform="translate(32.43)"/><path class="cls-6" d="M36.34,271.09l1.62-.35c0,.05,0,.1,0,.15l-1.62.35a.83.83,0,0,1,0-.15" transform="translate(32.43)"/><path class="cls-6" d="M36.3,271.24l1.62-.35,0,.13-1.62.35,0-.13" transform="translate(32.43)"/><path class="cls-6" d="M36.26,271.37l1.62-.35c0,.05,0,.09,0,.13l-1.62.35s0-.08,0-.13" transform="translate(32.43)"/><path class="cls-6" d="M36.22,271.5l1.62-.35a.73.73,0,0,1-.05.12l-1.62.36a1.12,1.12,0,0,1,0-.13" transform="translate(32.43)"/><path class="cls-6" d="M36.17,271.63l1.62-.36,0,.12-1.62.35a1.17,1.17,0,0,0,.05-.11" transform="translate(32.43)"/><path class="cls-6" d="M36.12,271.74l1.62-.35-.06.12-1.62.35.06-.12" transform="translate(32.43)"/><path class="cls-6" d="M36.06,271.86l1.62-.35-.07.11L36,272a.41.41,0,0,0,.07-.11" transform="translate(32.43)"/><path class="cls-6" d="M36,272l1.62-.35a.83.83,0,0,1-.08.12l-1.62.35A.5.5,0,0,0,36,272" transform="translate(32.43)"/><path class="cls-6" d="M35.91,272.09l1.62-.35a.74.74,0,0,1-.43.29l-1.62.35a.74.74,0,0,0,.43-.29" transform="translate(32.43)"/><path class="cls-6" d="M-32.43,281.1l5.55-1.2.65-.12-5.55,1.2c-.22,0-.44.07-.65.12" transform="translate(32.43)"/><path class="cls-6" d="M-31.78,281l5.55-1.2a10,10,0,0,1,1.1-.1l-5.56,1.21a9.81,9.81,0,0,0-1.09.09" transform="translate(32.43)"/><path class="cls-6" d="M-30.69,280.89l5.56-1.21c.3,0,.61,0,.92,0l-5.55,1.2c-.32,0-.62,0-.93,0" transform="translate(32.43)"/><path class="cls-6" d="M-29.76,280.9l5.55-1.2.87.09L-28.9,281c-.29-.05-.58-.08-.86-.1" transform="translate(32.43)"/><path class="cls-6" d="M-28.9,281l5.56-1.21c.28,0,.55.1.83.16l-5.56,1.2c-.27-.06-.55-.11-.83-.15" transform="translate(32.43)"/><path class="cls-6" d="M-28.07,281.15l5.56-1.2.76.2-5.55,1.2-.77-.2" transform="translate(32.43)"/><path class="cls-6" d="M-27.3,281.35l5.55-1.2.62.2-5.56,1.21c-.2-.08-.41-.14-.61-.21" transform="translate(32.43)"/><polyline class="cls-6" points="2.9 303.79 4.52 303.44 4.53 303.44 2.91 303.79 2.9 303.79"/><path class="cls-6" d="M-29.53,303.79l1.63-.35,0,0-1.62.35-.05,0" transform="translate(32.43)"/><path class="cls-6" d="M-29.48,303.81l1.62-.35.05,0-1.63.35,0,0" transform="translate(32.43)"/><path class="cls-6" d="M-29.44,303.83l1.63-.35,0,0-1.62.36-.05,0" transform="translate(32.43)"/><path class="cls-6" d="M-29.39,303.86l1.62-.36.05,0-1.62.35-.05,0" transform="translate(32.43)"/><path class="cls-6" d="M-29.34,303.88l1.62-.35,0,0-1.62.36s0,0,0,0" transform="translate(32.43)"/><path class="cls-6" d="M-29.3,303.92l1.62-.36.05,0-1.62.35-.05,0" transform="translate(32.43)"/><path class="cls-6" d="M-29.25,304l1.62-.35.05,0-1.62.35-.05,0" transform="translate(32.43)"/><path class="cls-6" d="M-29.2,304l1.62-.35.06.05h0l-1.62.35h0l-.06-.05" transform="translate(32.43)"/><path class="cls-6" d="M-29.14,304l1.62-.35.06.06-1.62.35-.06-.06" transform="translate(32.43)"/><path class="cls-6" d="M-29.08,304.1l1.62-.35.06.06-1.62.35-.06-.06" transform="translate(32.43)"/><path class="cls-6" d="M-29,304.16l1.62-.35.07.07-1.63.35-.06-.07" transform="translate(32.43)"/><path class="cls-6" d="M-29,304.23l1.63-.35.07.09-1.63.35-.07-.09" transform="translate(32.43)"/><path class="cls-6" d="M-28.89,304.32l1.63-.35.08.11-1.63.34-.08-.1" transform="translate(32.43)"/><path class="cls-6" d="M-28.81,304.42l1.63-.34.08.12-1.62.35-.09-.13" transform="translate(32.43)"/><path class="cls-6" d="M-28.72,304.55l1.62-.35.1.15-1.62.35-.1-.15" transform="translate(32.43)"/><path class="cls-6" d="M-28.62,304.7l1.62-.35.1.18-1.62.35a1.62,1.62,0,0,1-.1-.18" transform="translate(32.43)"/><path class="cls-6" d="M-28.52,304.88l1.62-.35.11.21-1.62.36-.11-.22" transform="translate(32.43)"/><path class="cls-6" d="M-28.41,305.1l1.62-.36c0,.09.09.18.13.28l-1.62.35-.13-.27" transform="translate(32.43)"/><path class="cls-6" d="M-28.28,305.37l1.62-.35c.06.14.12.3.18.46l-1.62.35-.18-.46" transform="translate(32.43)"/><path class="cls-6" d="M-28.1,305.83l1.62-.35c.07.19.14.39.2.59l-1.62.35c-.06-.2-.13-.4-.2-.59" transform="translate(32.43)"/><path class="cls-6" d="M-27.9,306.42l1.62-.35.15.56-1.62.35-.15-.56" transform="translate(32.43)"/><path class="cls-6" d="M-27.75,307l1.62-.35c0,.12.05.25.08.37l-1.62.35c0-.12-.06-.25-.08-.37" transform="translate(32.43)"/><path class="cls-6" d="M-27.67,307.35-26,307l.06.33-1.62.35-.06-.33" transform="translate(32.43)"/><path class="cls-6" d="M-27.61,307.68l1.62-.35.06.31-1.62.35-.06-.31" transform="translate(32.43)"/><path class="cls-6" d="M-27.55,308l1.62-.35c0,.1,0,.2,0,.3l-1.62.35c0-.1,0-.2,0-.3" transform="translate(32.43)"/><path class="cls-6" d="M-27.51,308.29l1.62-.35,0,.3-1.62.35,0-.3" transform="translate(32.43)"/><path class="cls-6" d="M-27.48,308.59l1.62-.35,0,.3-1.62.35,0-.3" transform="translate(32.43)"/><path class="cls-6" d="M-27.45,308.89l1.62-.35a2.64,2.64,0,0,1,0,.29l-1.62.35c0-.09,0-.19,0-.29" transform="translate(32.43)"/><path class="cls-6" d="M-27.43,309.18l1.62-.35c0,.1,0,.2,0,.29l-1.62.35c0-.09,0-.19,0-.29" transform="translate(32.43)"/><path class="cls-6" d="M-27.42,309.47l1.62-.35a2.81,2.81,0,0,1,0,.29l-1.62.35a2.81,2.81,0,0,0,0-.29" transform="translate(32.43)"/><path class="cls-6" d="M-27.41,309.76l1.62-.35v.29l-1.62.35v-.29" transform="translate(32.43)"/><path class="cls-6" d="M-27.41,310.05l1.62-.35a2.17,2.17,0,0,0,0,.26l-1.62.35a2.26,2.26,0,0,1,0-.26" transform="translate(32.43)"/><path class="cls-6" d="M-27.42,310.31l1.62-.35c0,.08,0,.15,0,.23l-1.62.35c0-.08,0-.15,0-.23" transform="translate(32.43)"/><path class="cls-6" d="M-27.44,310.54l1.62-.35a1.49,1.49,0,0,1,0,.21l-1.62.35a1.49,1.49,0,0,0,0-.21" transform="translate(32.43)"/><path class="cls-6" d="M-27.46,310.75l1.62-.35a1.23,1.23,0,0,1,0,.2l-1.62.35c0-.06,0-.13,0-.2" transform="translate(32.43)"/><path class="cls-6" d="M-27.48,311l1.62-.35,0,.19-1.62.35,0-.19" transform="translate(32.43)"/><path class="cls-6" d="M-27.51,311.14l1.62-.35,0,.16-1.62.35,0-.16" transform="translate(32.43)"/><path class="cls-6" d="M-27.54,311.3l1.62-.35,0,.16-1.62.35,0-.16" transform="translate(32.43)"/><path class="cls-6" d="M-27.57,311.46l1.62-.35c0,.05,0,.1,0,.15l-1.62.35a.83.83,0,0,1,0-.15" transform="translate(32.43)"/><path class="cls-6" d="M-27.61,311.61l1.62-.35c0,.05,0,.09,0,.14l-1.62.35c0-.05,0-.09,0-.14" transform="translate(32.43)"/><path class="cls-6" d="M-27.65,311.75l1.62-.35s0,.08,0,.13l-1.62.35c0-.05,0-.09,0-.13" transform="translate(32.43)"/><path class="cls-6" d="M-27.69,311.88l1.62-.35-.05.12-1.62.35a.61.61,0,0,1,0-.12" transform="translate(32.43)"/><path class="cls-6" d="M-27.74,312l1.62-.35-.05.12-1.62.35.05-.12" transform="translate(32.43)"/><path class="cls-6" d="M-27.79,312.12l1.62-.35-.06.11-1.62.35.06-.11" transform="translate(32.43)"/><path class="cls-6" d="M-27.85,312.23l1.62-.35a.75.75,0,0,1-.07.12l-1.62.35a.75.75,0,0,0,.07-.12" transform="translate(32.43)"/><path class="cls-6" d="M-27.92,312.35l1.62-.35a.44.44,0,0,1-.08.11l-1.62.35a.44.44,0,0,0,.08-.11" transform="translate(32.43)"/><path class="cls-6" d="M-28,312.46l1.62-.35a.74.74,0,0,1-.43.29l-1.62.35a.74.74,0,0,0,.43-.29" transform="translate(32.43)"/></g></g><g class="cls-102"><path class="cls-103" d="M53.79,271.94c0-.1,0-.2,0-.3s0-.35,0-.52,0-.37,0-.56a.28.28,0,0,1,0-.09c0-.19,0-.38,0-.57l0-.41a2.28,2.28,0,0,0,0-.26c0-.18,0-.35,0-.53l0-.27c0-.16,0-.31-.05-.46l-.06-.5s0-.07,0-.1c0-.33-.09-.65-.14-1,0,0,0-.05,0-.08h0c-.06-.37-.12-.74-.19-1.11,0,0,0-.05,0-.07l-.12-.6c0-.21-.08-.42-.13-.62v0s0-.07,0-.1l-.15-.66c0-.16-.07-.32-.11-.47a.24.24,0,0,0,0-.08l-.21-.83-.06-.2h0l0-.14c-.07-.23-.13-.46-.2-.69l-.06-.23a1.42,1.42,0,0,0,0-.16c-.08-.24-.15-.49-.23-.74l-.12-.37c-.12-.37-.24-.72-.37-1.08l-.06-.17s0-.07,0-.11-.11-.3-.16-.44l-.09-.22c-.21-.55-.44-1.1-.67-1.64l0-.12a1,1,0,0,0,0-.1s0,0,0-.05c-.21-.47-.43-.93-.65-1.39l-.06-.12c0-.09-.09-.17-.13-.26a.43.43,0,0,0,0-.07l-.08-.16-.37-.72c0-.07-.08-.16-.13-.23s-.07-.12-.1-.18l-.29-.52-.19-.32v0l-.17-.29a.35.35,0,0,0,0-.08c-.22-.37-.45-.73-.68-1.08a.25.25,0,0,1,0-.07l-.25-.35c-.13-.2-.27-.4-.41-.59l-.1-.15c-.09-.12-.18-.23-.26-.35L45.8,248l-.08-.11-.14-.18-.24-.29L45,247l-.16-.2-.27-.3,0,0-.07-.08,0,0-.12-.14-.16-.18-.32-.33a1.29,1.29,0,0,1-.16-.17l-.07-.06-.14-.15-.43-.41-.14-.13-.1-.09c-.2-.19-.41-.36-.61-.54l0,0,0,0c-.21-.18-.44-.35-.66-.53l-.07-.05-.14-.1-.45-.33-.17-.11-.19-.13-.3-.2-.28-.17-.21-.12a1.18,1.18,0,0,0-.19-.11c-.14-.09-.29-.16-.44-.24l-.15-.08-.1,0-.5-.24-.34-.15-.21-.08-.51-.2h0c-.21-.08-.41-.14-.62-.2l-.14,0-.29-.08-.33-.08-.07,0-.13,0-.35-.07-.28-.05-.18,0-.37,0h-.1l-.14,0h-.7c-.1,0-.2,0-.3,0h-.3l-.21,0h-.08l-.31,0-.13,0h-.07l-.62.11h0l-.25.06c-.2.05-.4.1-.6.17l-.11,0-.16.06q-.39.13-.75.3l-.24.1a8.4,8.4,0,0,0-.88.48,1.64,1.64,0,0,0-.22.14c-.24.15-.47.31-.7.48l-.22.16c-.27.22-.54.45-.8.7l-.18.18q-.33.32-.63.66l-.2.22c-.24.28-.48.58-.7.89l-.15.21-.36.54q.44,1.59.93,3.12A71.06,71.06,0,0,0,28.69,258,58.63,58.63,0,0,0,33,265.66c.47.7,1,1.37,1.45,2,.65.85,1.31,1.67,2,2.44,0-.2,0-.42,0-.65h0c0-2.34-.76-4.93-1.73-5.81a1.22,1.22,0,0,0-.39-.25h0a.58.58,0,0,0-.29,0h0l1.62-.35H36l0,0,0,0,.05,0,0,0s0,0,0,0l.05,0,0,0,.06.05h0l0,.06.06.06.06.08.08.08.09.11a0,0,0,0,1,0,0h0l.06.1.09.15.11.18a.41.41,0,0,0,0,.09.08.08,0,0,1,0,0,.36.36,0,0,1,0,.09l.12.27.09.19.06.16a.76.76,0,0,1,0,.11c.06.16.12.32.17.49l0,.09v0c.05.17.1.36.15.55a1.05,1.05,0,0,0,0,.19s0,.05,0,.08,0,.07,0,.11l.06.32.06.31s0,0,0,.06a.43.43,0,0,0,0,.05c0,.07,0,.13,0,.19l0,.3c0,.1,0,.2,0,.3a.11.11,0,0,1,0,.05v0a1.48,1.48,0,0,1,0,.21,2.71,2.71,0,0,1,0,.29c0,.09,0,.18,0,.28v.29a2.26,2.26,0,0,0,0,.26.57.57,0,0,1,0,.13v.1l0,.22a1.23,1.23,0,0,1,0,.19l0,.19,0,.17,0,.15v0h0c0,.05,0,.09,0,.13s0,.09,0,.14l0,.13h0a.54.54,0,0,0,0,.11l-.05.12,0,.06a29.46,29.46,0,0,0,4.84,4.06c.48.31,1,.6,1.45.87a18.51,18.51,0,0,0,2,1,17.09,17.09,0,0,0,3.34,1,13.42,13.42,0,0,0,4,.16c.1-.59.18-1.18.24-1.8,0-.05,0-.11,0-.17h0a.38.38,0,0,0,0-.1c0-.19,0-.39,0-.59a.66.66,0,0,0,0-.14c0-.18,0-.35,0-.53v-.07c0-.07,0-.15,0-.23v-.06a2.81,2.81,0,0,0,0-.29c0-.19,0-.38,0-.57s0-.14,0-.2c0-.29,0-.57,0-.86v-.23C53.8,272.47,53.79,272.2,53.79,271.94Z" transform="translate(32.43)"/></g><path class="cls-104" d="M129.92,71.16h0a55.88,55.88,0,0,1-20.33-3.5C98,63.15,50.94,47.61,30.84,41l-9-3-.37-.15a10.41,10.41,0,0,0-3-1.43C17.11,36,11.6,34.24,8.34,33.18l-1.66.35a2.36,2.36,0,0,1-1.86,0c-2-.83-3.54-4-3.54-7.32,0-2.47,1-4.31,2.36-4.74h0l.5-.12L24,18.63a7.5,7.5,0,0,1,4.43-1.81c.77,0,3-.06,6.72-.17l4.43-.14L118.21,5.78l1.73-3.12c0-.18.53-1,3-1,2.31,0,5.08.17,5.11.17l.12,0a1.74,1.74,0,0,1,.82.59,1.93,1.93,0,0,1,.38,1l.24,2.7,76.8,24.32c20.13,6.37,20.51,6.49,22.09,7l.12,0c.53.19,5.19,2,5.9,6,.51,2.93.46,4,.27,4.35-.12.56-.82,1.76-4.45,2.58C223.68,52,144,69.72,143.18,69.9a67.11,67.11,0,0,1-13.26,1.26ZM22,37l.16,0c.86.3,4.16,1.39,9,3C51.27,46.64,98.35,62.17,110,66.7a54.78,54.78,0,0,0,20,3.43h0a65.09,65.09,0,0,0,13-1.24c.8-.18,80.49-17.9,87.18-19.42,3.44-.78,3.67-1.8,3.67-1.81l0-.4.14,0a16.93,16.93,0,0,0-.39-3.52c-.61-3.53-5.05-5.17-5.23-5.23-1.67-.56-2.05-.68-22.18-7L129,7l-.33-.11-.29-3.38A.93.93,0,0,0,128.2,3a.77.77,0,0,0-.26-.22c-.48,0-2.92-.16-5-.16-1.78,0-2.11.47-2.11.48l-2,3.6-.26,0-79,10.77-4.49.15c-3.75.12-6,.17-6.75.17a6.66,6.66,0,0,0-3.91,1.68l-.11.08L4.78,22.28v.06l-.56.06c-1.11,0-1.91,1.64-1.92,3.8,0,2.8,1.33,5.71,2.91,6.37a1.35,1.35,0,0,0,1.08,0l.11,0,2-.41.13,0c3.23,1.05,8.86,2.87,10.2,3.26A11.37,11.37,0,0,1,22,37Z" transform="translate(32.43)"/><g class="cls-105"><path class="cls-106" d="M247.83,47.46C225.59,52.9,141.94,73.34,135.47,74.74a27.49,27.49,0,0,1-2.76.45,22.92,22.92,0,0,1-2.6.13c-.69,0-1.08-.07-1.08-.07L7.21,34l-.12.09A2.89,2.89,0,0,0,5.9,35.5v.33L128.31,77.31l.19,0,.19,0V89.55c.51.1,1,.18,1.42.24l.64.07V77.42a26.18,26.18,0,0,0,4.55-.59c6.7-1.45,97.24-23.58,114.85-27.89A5.77,5.77,0,0,0,247.83,47.46Z" transform="translate(32.43)"/></g></g></g></svg>