<svg xmlns="http://www.w3.org/2000/svg" xmlns:xlink="http://www.w3.org/1999/xlink" viewBox="0 0 195.92 290.09"><defs><style>.cls-1{isolation:isolate;}.cls-2{fill:#4b4b4b;}.cls-3,.cls-4{fill-rule:evenodd;}.cls-3{fill:url(#linear-gradient);}.cls-4{fill:url(#linear-gradient-2);}.cls-5{opacity:0.24;}.cls-5,.cls-7{mix-blend-mode:multiply;}.cls-6{fill:#404040;}.cls-7{opacity:0.28;}.cls-8{fill:#353535;}.cls-9{fill:url(#linear-gradient-3);}</style><linearGradient id="linear-gradient" x1="189.05" y1="144.99" x2="-1.82" y2="144.99" gradientUnits="userSpaceOnUse"><stop offset="0.17" stop-color="#8c8c8c"/><stop offset="0.72" stop-color="#9f9f9f"/><stop offset="1" stop-color="#4b4b4b"/></linearGradient><linearGradient id="linear-gradient-2" x1="182.15" y1="141.09" x2="5.84" y2="148.22" gradientUnits="userSpaceOnUse"><stop offset="0" stop-color="#9f9f9f"/><stop offset="0.87" stop-color="#4b4b4b"/><stop offset="1" stop-color="#4b4b4b"/></linearGradient><linearGradient id="linear-gradient-3" x1="109.47" y1="28.59" x2="75.36" y2="46.26" gradientUnits="userSpaceOnUse"><stop offset="0" stop-color="#404040"/><stop offset="0.07" stop-color="#414141"/><stop offset="0.45" stop-color="#252525"/><stop offset="1" stop-color="#404040"/></linearGradient></defs><title>poubelle_tri3_sac</title><g class="cls-1"><g id="Calque_1" data-name="Calque 1"><path class="cls-2" d="M101.16,290.09l-.55-.49a15.32,15.32,0,0,0-5.26-2.49,20,20,0,0,1-5.62-2.55,32.25,32.25,0,0,1-6.16-6.85c-3-4.1-5.93-8-10.7-8.87a5.15,5.15,0,0,1-3.72,1.52c-4.08,0-8.6-4.16-11-6.4a77.8,77.8,0,0,1-6.31-6.8c-3.11-3.61-6.33-7.35-10.32-9.88a57.28,57.28,0,0,0-7.11-3.45c-6.22-2.71-13.26-5.77-15.39-11.06a9.24,9.24,0,0,1-.68-4.87,13.28,13.28,0,0,0-.16-3.48c-.65-2.79-1.18-5.58-1.7-8.27a113.31,113.31,0,0,0-3.39-14.31c-.62-1.89-1.3-3.89-2-6-1.9-5.61-3.87-11.41-5.34-16.82-2.07-7.59-1.36-16.69,0-22.67.3-1.34,0-4.05-.34-6.44a40.21,40.21,0,0,1-.43-5c0-1.69-1-4.5-1.82-6.76-.42-1.13-.8-2.19-1.05-3.06a64,64,0,0,1,0-32.28c.82-2.9,1.38-6.09,2-9.46,1.49-8.39,3-17.06,8.82-21.34,3.23-2.37,6.48-4.55,9.62-6.66s6.27-4.21,9.42-6.52c1.35-1,2.72-2.16,4.17-3.4,3.1-2.66,6.31-5.41,10-7,4.62-2,12.27-2,22.09-.09a31.63,31.63,0,0,0,4.79.26c2.19,0,4-.09,5-.16a6.88,6.88,0,0,0,.2-1.68A24.73,24.73,0,0,1,70.52,48c-11.17,0-22.35-6.6-29.78-11.56a22.32,22.32,0,0,0-5.25-2.47c-3.58-1.28-7-2.5-7.84-9.55l-.07-.6.36-.47a3.18,3.18,0,0,0,.47-1.5,7.79,7.79,0,0,1,.9-2.74l.15-.27L34.74,15C42.91,6.94,49.4,5.4,58.5,5.4c2.36,0,5,.1,7.69.22,2.54.1,5.38.22,8.48.27L75.39.1l1.25,0c.81,0,1.6,0,2.38,0,5,0,8.16.8,10.32,2.58,3.27,2.72,4.53,6.53,5.54,9.59a17.38,17.38,0,0,0,1.83,4.33,1.75,1.75,0,0,0,.76.14c1.8.06,2.64.95,3.33,3.53l.3,1.09-1,.56-.55.3a.52.52,0,0,1,0,.11c2,1.94,3.95,5.17,6,8.57,2.51,4.11,5.36,8.77,7.54,9.61l.24.12a5.63,5.63,0,0,0,2.64.31h.78a12.37,12.37,0,0,1,2.66.24l36.09,5.15.23.14c4.31,2.39,5.46,6.6,6.68,11.06.39,1.42.8,2.89,1.31,4.37.35,1,.76,2.14,1.21,3.38,1.68,4.65,3.77,10.45,4.69,14.34a14.21,14.21,0,0,1-.34,5.57,15.75,15.75,0,0,0-.38,6.16c.4,1.76.82,3.87,1.27,6.11.54,2.76,1.11,5.61,1.65,7.77l0,.28.72,14.41a13.18,13.18,0,0,0,2.67,3.21,14.1,14.1,0,0,1,3.08,3.83A4.73,4.73,0,0,1,178,131c.31.36.74.8,1.09,1.16a10.09,10.09,0,0,1,2.23,2.82l.11.26v8.68a12.58,12.58,0,0,0,1.42,1.46,10.64,10.64,0,0,1,2.86,3.49,16.85,16.85,0,0,1,1,6.77,21.6,21.6,0,0,0,.56,5.86c4.2,15.57,10.83,44,8.09,59.21l-.12.65-.56.34a38.85,38.85,0,0,1-6.6,2.91,34.35,34.35,0,0,0-6.55,2.93,65.71,65.71,0,0,0-9.47,8.15,78,78,0,0,1-8,7.17c-4.37,3.22-8.67,6.43-12.82,9.53-6.71,5-13.64,10.19-20.87,15.38-3.61,2.59-7.34,5.47-10.93,8.26-2.41,1.86-4.89,3.78-7.35,5.63a13.48,13.48,0,0,0-2.8,3.1c-1.51,2-3.22,4.38-7.3,5.21l-.72.15ZM71.64,265.73l.83.09c6.47.75,10.18,5.73,13.45,10.14a29.61,29.61,0,0,0,5.56,6.25,17.73,17.73,0,0,0,4.8,2.12,20.15,20.15,0,0,1,5.67,2.59c2.49-.69,3.55-2.14,4.87-3.93a16.73,16.73,0,0,1,3.4-3.71c2.44-1.82,4.92-3.74,7.31-5.6,3.62-2.8,7.37-5.7,11-8.32,7.21-5.17,14.13-10.34,20.82-15.34,4.16-3.11,8.46-6.33,12.85-9.55a76.36,76.36,0,0,0,7.72-6.9,66.94,66.94,0,0,1,9.92-8.52,36.75,36.75,0,0,1,7.13-3.22,41.48,41.48,0,0,0,5.52-2.33c2.34-14.84-4.07-42.16-8.14-57.27a24.36,24.36,0,0,1-.67-6.62A14.14,14.14,0,0,0,183,150a8.88,8.88,0,0,0-2.13-2.46,9.06,9.06,0,0,1-2.23-2.61l-.14-.29v-8.75a15.65,15.65,0,0,0-1.5-1.67,11.71,11.71,0,0,1-2-2.42l-.28-.57.22-.59a6.09,6.09,0,0,1,.34-.74c.39-.75.65-1.32.42-1.83a12.22,12.22,0,0,0-2.46-2.94,13.28,13.28,0,0,1-3.43-4.49l-.07-.2L169,105.69c-.54-2.21-1.1-5-1.65-7.77-.44-2.21-.86-4.31-1.25-6-.56-2.45-.07-5.06.36-7.35a12.61,12.61,0,0,0,.37-4.35c-.88-3.74-2.94-9.44-4.59-14-.45-1.25-.87-2.41-1.22-3.4-.55-1.57-1-3.09-1.37-4.57-1.12-4.08-2-7.32-5.06-9.14l-35.7-5.11a9.54,9.54,0,0,0-2.08-.18H115.3a6.72,6.72,0,0,1-3.38-.68c-3.06-1.28-5.87-5.89-8.86-10.77-2.08-3.42-4.24-7-6.07-8.46l-.73-.6.25-.91a4.34,4.34,0,0,0,.2-1.09,1.64,1.64,0,0,1,.89-1.48,1.47,1.47,0,0,0-.11-.22h-.11a4.42,4.42,0,0,1-2.44-.72l-.2-.13-.15-.18a17.13,17.13,0,0,1-2.49-5.45c-1-3-2-6.07-4.63-8.26-1.57-1.3-4.26-1.9-8.45-1.9H78l-.74,5.91-1.3,0c-3.67,0-7-.17-9.88-.29s-5.27-.22-7.57-.22C50,8.32,44.25,9.7,36.73,17.19l-.19.16L31.7,20.81a6,6,0,0,0-.4,1.51,6.73,6.73,0,0,1-.67,2.23c.71,4.79,2.57,5.46,5.85,6.64A25.25,25.25,0,0,1,42.36,34C49.48,38.72,60.14,45,70.52,45a21.5,21.5,0,0,0,8.53-1.68l1.81-.77.2,1.75.28.66a1.63,1.63,0,0,1-.19,1.44l-.08.13c-.07,1.77-.14,2.86-1,4.08l-.12.19L79.8,51c-.29.23-.77.61-6.82.61a34,34,0,0,1-5.35-.32c-9.17-1.79-16.36-1.82-20.38-.09-3.3,1.42-6.34,4-9.28,6.54-1.49,1.27-2.9,2.48-4.34,3.54-3.19,2.35-6.41,4.51-9.52,6.6s-6.34,4.24-9.51,6.58C9.74,78,8.31,86.1,6.93,93.93c-.58,3.29-1.18,6.7-2,9.75a61.77,61.77,0,0,0,0,30.68c.21.77.58,1.78,1,2.85,1,2.62,2.05,5.59,2,7.83a37.69,37.69,0,0,0,.41,4.56c.35,2.75.71,5.6.29,7.45-1.21,5.38-1.94,14.17,0,21.25C10,183.62,12,189.38,13.85,195c.69,2.07,1.38,4.08,2,6a117.14,117.14,0,0,1,3.49,14.67c.51,2.66,1,5.42,1.67,8.15a15.85,15.85,0,0,1,.24,4.25,7.23,7.23,0,0,0,.33,3.39l.1.21c1.65,4.22,8.14,7.05,13.88,9.54a59.11,59.11,0,0,1,7.5,3.67c4.37,2.75,7.73,6.66,11,10.44a77,77,0,0,0,6.07,6.56c1.83,1.68,6.1,5.62,9,5.62a2.32,2.32,0,0,0,2-1l.51-.67Z"/><path class="cls-3" d="M76.6,1.51c4.86-.18,9.16.09,11.72,2.2,4.86,4,4.8,10.8,7.32,13.91,2,1.25,2.65-.83,3.66,2.93-1.86,1.06-.83-.16-1.47,2.19,4.56,3.75,9.92,17.21,14.65,19,1.6,1,4.12.18,6.59.73l35.87,5.13c5,2.79,5.18,8.52,7.32,14.64,1.6,4.56,4.71,12.7,5.86,17.57.68,2.88-1.65,7.71-.73,11.72s2,10,2.92,13.91c.25,4.87.49,9.76.74,14.64.88,2.52,4.84,5,5.86,7.32.67,1.53-.47,2.93-.74,3.66.6,1.18,3.18,3.19,3.66,4.39v8.79c.71,1.51,3.56,3.1,4.4,5.12,1.6,3.88.17,7.65,1.46,12.45,3.52,13.07,10.88,42.91,8.05,58.57-3.75,2.3-9.41,3.42-13.17,5.86-6.35,4.11-11.59,11-17.58,15.37-11.47,8.44-22,16.53-33.67,24.9-6,4.33-12.16,9.3-18.31,13.9-3.65,2.74-3.92,6.92-9.52,8.06-2.83-2.55-7.9-2.84-11-5.13-6.07-4.5-9.13-15.05-18.3-16.1C68.78,271.82,62,265.65,59,262.89c-5.75-5.3-10.07-12.57-16.84-16.84-6.15-3.89-19.24-6.94-22-13.92-1.15-1.93-.07-5.21-.73-8-1.8-7.71-2.67-15.23-5.13-22.7-2.29-6.95-5.31-15.32-7.32-22.69s-1.32-16.12,0-22c.61-2.7-.79-8.66-.73-11.72,0-2.85-2.19-7.62-2.93-10.25a62.73,62.73,0,0,1,0-31.48C6.28,93,6.14,78.79,13.64,73.26c6.37-4.69,12.66-8.49,19-13.18,4.29-3.15,8.7-8,13.91-10.25,6.22-2.67,16.91-.84,21.24,0a52.29,52.29,0,0,0,11,0c.64-.95.65-1.8.73-3.66.69-1.29.16,0,0-1.46-13,5.58-28.36-3-38.07-9.52C35.19,31,30.14,33.27,29,24.21c1-1.26.53-2.8,1.47-4.39,1.71-1.22,3.41-2.45,5.12-3.66C47.78,4,55.93,7.18,75.87,7.37,76.11,5.42,76.36,3.46,76.6,1.51Z"/><path class="cls-4" d="M162.26,209.65c1.9-4.53,1.52-9.77,4.39-13.18V195h.73c-.47,1.26-.14.71-.73,1.46v2.93h.73a16.08,16.08,0,0,1,2.93-3.66c.81-2.28-2-2.43-1.46-5.86.42-2.92,2.45-5.43,2.92-8.78-3.31-.83-3.44-2.12-8.05-2.2a63.68,63.68,0,0,1,6.59-9.52v-1.46a30,30,0,0,0-8.05,8.79h-.73c.93-2.29.29-4.59,1.46-6.6v-2.19h-.73c-.58,2.2-1.13,2.57-1.47,5.12h-.73c1-11.56,8.93-20.64,11.71-30.75,2.2-8-3-14.57-4.39-19.77q-.36-4-.73-8c-1.32-2.84-5.38-5.77-6.59-8.79a20.8,20.8,0,0,1-1.3-6.2c0-.13-.12-.25-.16-.38a.68.68,0,0,1,.09-.56c-.22-2.79-.44-5.44-2.29-8.23V88.85h-.73v16.83a10.12,10.12,0,0,1-1.47-5.12h-.73a25.7,25.7,0,0,0-2.19,11h-.74v-.73c-.12-.23,1.32-13.94,2.93-15.37-.5-2.81-1-3.17-2.93-4.4V89.58c.59.75.27.18.74,1.46h2.19c-.52-1.64-1.34-9.41.73-12.44.48-1.27.15-.72.73-1.47,1.38,5,2.89,13.16,4.4,19a3,3,0,0,1-.64,2.37c0,.31.05.62.07.94,1,2.28,3.06,4.13,3.5,7.67h2.19a15,15,0,0,1-.73-5.12h.73c.25,1,.49,2,.74,2.92h1.46c-.48-10.42-5.34-21.51-5.12-27.82l-.74-.73c2,.68,1.91.73,2.93,2.2h.73c-3.11-11.19-17.26-14.85-16.84-26.36-1.65-.57-4.12-.25-6.58-.73-2.93-.57-21.24-7.94-28.56-2.93H111v-.73c1-.38,3.52-.87,4.39-1.47.56-.78.46-.67.73-2.19-7.25,0-29.15,5.3-31.48,7.32-1.85-.08-2.71-.09-3.66-.73h-.73c3.62-9.63,9.2-17.92,19-21.24-1.31-7.23-7-10.92-8.05-19a31.74,31.74,0,0,0-2.93,3.66H84.65c3.15-4.6-.12-6.2,1.47-9.52-1.27-.47-.72-.14-1.47-.73-2.46.42-3.06.81-4.39,2.2H78.79V5.38A8.27,8.27,0,0,0,81,3.92h1.47V3.19H77.33C77.25,5,77.24,5.9,76.6,6.85c-.25.73-.49,1.46-.73,2.2-4-.13-4.83-.46-5.13,1.46-4.38-.47-5.48-2-10.25-2.2,2.56,2.45,8.42,5.28,12.45,5.86-1.46,1.06-4.37,1.18-5.86,2.2-1.94-.69-1.91-.73-2.93-2.2h-.73c-1.44-.41,1.46-.73,1.46-.73-3.39-2.23-10.7-.6-13.91-2.93H49.51C48.11,9.92,51,9.78,51,9.78V9.05a18.79,18.79,0,0,0-10.85,5.12h.6v1.46H40V14.29c-2.44,2.26-4.52,4.88-7.32,7.2a21.57,21.57,0,0,0,1.46,10.25c4.12,1.38,12,4.94,16.11,8.79,2.61-.25,2.44-.05,3.66-1.47h1.47V42h-2.2c1.09,1.5,16.42,7.11,19,6.59,1.85-.37,5.39-2.07,7.33-2.93.16,1.46.69.17,0,1.47-.08,1.85-.09,2.71-.74,3.66C72.84,53.1,59.89,49,51,52.24c-1,.36-11,6.48-11.71,7.32-3.07,3.82-5.47,9.49-8.79,11v.73H29c1.74-3.42,4.91-7.47,8.05-9.52V60.29c-3.1,1-4.18,3.72-6.59,5.13-2,1.2-1.91-.78-3.66,0C16.7,70,10,79.69,6.31,91c-1.76,5.45-2,20.17-4.39,24.16v4.4H3.38a29.49,29.49,0,0,1,5.86-10.25v-.74H10c-.54,6.94-8.2,12.71-7.32,18.31.94,6,8.63,29.1,7.32,31.48,5.51,3.7,9.2,2.06,13.18,8a55.45,55.45,0,0,1-6.59-3.66c-5.18,0-3.89.22-3.66,5.13l-.73.73c-2.36-.64-1.13.4-2.2-1.46-.62-1.62-.57-.83.74-2.2v-2.2H9.24C8.15,165.14,9,165,7,165v5.86c1.51.29,1.42.18,2.2.73,2.75,2.1-1.26,1.83.73,5.13.15.24,2.58,1.85,2.93,2.19v.73c-1.26-.47-.72-.14-1.46-.73H9.24c2.4,6.51,9.55,9.37,13.18,14.64a40.55,40.55,0,0,1-12.45-11H9.24c2,7.43,8.12,11.82,11.72,17.57,11.26,18,28.56,27.08,46.12,38.81,6.81,4.54,13.37,11.15,20.5,15.37-.24,1.22-.49,2.44-.73,3.66l5.12-.73c.48,3.09,1.75,5.6,4.39,6.59,1.75.67,1.25.69,2.2-1.47H100c-.25,2.69-.49,5.37-.74,8.06,11.8-.88,23.12-15.66,31.48-21.23v-1.47c-11.29,2.07-21.13,9.83-37.33,9.52,6.77-5.42,19.78-3.89,26.35-9.52h.73v-1.46c-10.11,0-19.13,2.17-24.16,7.32h-.73c4-8.32,14.19-11.44,14.65-23.43,5,.33,10,3,14.64,2.93,7.17-.1,20.6-.3,26.36,3.66,3.22-2,3-8.64,4.39-12.45C157.45,219.49,160.41,214.07,162.26,209.65Zm-1.47-134c-2.58-1.66-6.55-5.4-6.59-7.32A18.72,18.72,0,0,1,160.79,75.67Zm-46.85-30c-1.27-.47-.72-.14-1.47-.73C113.74,45.39,113.19,45.06,113.94,45.65ZM81,9.78c1.27.47.72.14,1.47.73h-.74l-.73.73ZM61.22,14.17l1.47.73v.73H56.1C57.12,15,60.19,14.82,61.22,14.17ZM48.78,17.1c1.26-.47.71-.14,1.46-.73l1.47.73v-.73c2.49.61,1.86.36,2.92,2.19a17.41,17.41,0,0,0-5.85-.73Zm-2.2,17.57H45.12V33.21l1.46.73Zm2.2-10.25c1.26.47.71.14,1.46.73C49,24.68,49.52,25,48.78,24.42Zm3.66,8c-1.27-.47-.72-.14-1.47-.73C52.24,32.21,51.69,31.88,52.44,32.47Zm1.46,4.4H52.44V35.4H53.9Zm.73-11v.74H53.9c.25-.74.49-1.47.73-2.2h.74C55.69,25.85,55.05,25.36,54.63,25.88Zm0-3.66H56.1C55.42,23.52,55.85,23,54.63,22.22Zm2.2,15.38H56.1V36.13h.73Zm.73-7.32h-.73V28.81h.73Zm.73,6.59h2.2C59.23,37.52,59.55,37.51,58.29,36.87Zm-.73-18.31h2.93C59.23,19.32,58.83,19.35,57.56,18.56Zm5.13,11a5.07,5.07,0,0,1,1.46,2.93h-.73C63.17,31.5,62.93,30.52,62.69,29.54Zm2.19,5.86h-.73V33.94h.73Zm6.59-16.11c-1.26.66-.94.65-2.19,0ZM68.55,39.8h-.74c-.58-2.2-1.13-2.58-1.46-5.13l2.2,2.2Zm0-9.52,2.19.73v.73C69,31.1,69.53,31.46,68.55,30.28Zm2.19,3.66V32.47c1.52.83,1.33,1.1,3.66,1.47v2.19C72.43,35.46,72.26,34.88,70.74,33.94Zm2.89,12c-1-.73-.45-1-1.43-1.7V42c1,.73,2,1.46,2.93,2.2C75.13,44.92,73.63,45.16,73.63,45.89Zm4.43-21.47h-.73c.24-1.71.49-3.42.73-5.13C79.15,21.07,78.32,22,78.06,24.42Zm0-11.71c-.24.24-.49.48-.73.73V12c1.26.48.72.15,1.46.74ZM13.63,102.76H12.9V101.3h.73Zm.73-3.66v1.46h-.73c.25-1,.49-2,.73-2.93C14.84,98.72,15.28,98,14.36,99.1ZM18,113.74v.73h-.74l.74-2.19C18.5,113.37,18.94,112.59,18,113.74Zm.73-27.09h.73v1.47h-.73Zm1.46,23.43v.73h-.73A16.21,16.21,0,0,1,21,105,4.33,4.33,0,0,1,20.22,110.08Zm140.57,83.46,1.47.74V195h-1.47Zm-8-5.85.73.73h-.73c-.47,1.26-.14.71-.73,1.46v.73h-.73C151.76,189.64,152.25,188.66,152.74,187.69Zm-5.86-94.45c2.13,1.27,2.67,2.81,3.66,5.12l-3.66-2.92Zm-3.66-26.36v.74c-2.15-.5-3.21-.78-4.39-2.2ZM144,97.63c.44.58.32,4.05,1.47,5.86v4.39H144c-1.55-5.69-5.65-9.23-6.58-14.64C139.8,94.34,142.86,95,144,97.63Zm-4.39,8.05a20,20,0,0,0,5.13,4.4c0,5.26-.57,10.22-2.93,13.18v1.46h-1.47C140.9,117.19,139.65,110.46,139.56,105.68Zm-2.93-2.92h-.73c-.24-1-.49-2-.73-2.93A5,5,0,0,1,136.63,102.76Zm2.2,8.78v9.52C137,120,133.1,104.59,133,101.3,136.16,104.49,136.38,107.77,138.83,111.54Zm-11-8.78h.73c.24,1.22.49,2.44.73,3.66h2.2l.73.73,3.66,11.72v9.51h-.73c-2.75-6.69-3.18-16.43-7.32-22Zm0,7.32c-.25.24-.49.49-.73.73l-.74.73c-.24-.73-.49-1.46-.73-2.19,1.26.47.72.14,1.47.73ZM124.92,105h1.46c.1,2.21.55,2,0,2.93v.73c-1.26-1.35-2.51-3-3.66-4.39C124.23,104.51,124.13,104.4,124.92,105Zm2.2,10.25c.62,3.34,1,7.43,2.92,9.52a12.88,12.88,0,0,1-2.92,1.47c-.72-2.33.56-4-.74-6.59s-4.1-4.2-5.12-7.32Zm1.46,26.36c-.68,2-1.26,2.15-2.2,3.66h-.73c.95-1.51,1.56-1.67,2.2-3.66Zm-38.8,50.52c2.69-2.29,10.36-4.73,11.71-3.66,1.82-1.08.86.18,1.47-2.2h2.19c-.75.59-.18.27-1.46.74v1.46c2.28-.44,1.78-.13,2.92-1.46,5.24.67,8.54,3.71,14.65,4.39-4.74,2.93-17.33-2.17-24.16,2.19-.75-1.25,0,0,0-1.46A43.5,43.5,0,0,0,89.78,192.08Zm-5.13-17.57c1.17,1,.85.45,1.47,2.2a60.41,60.41,0,0,1,7.32,0c-2.56,1.73-4.72-.07-7.32,1.46C85.38,177.6,84.73,175.6,84.65,174.51Zm.73,18.3c-1.26.65-.94.65-2.19,0Zm13.91-42.46c.17-1.7.15-2.07.74-2.93,1.33-3.19,4.24-2.43,5.85-5.13h2.2V143c-2.86,1.36-5.14,4.17-8,5.85v1.47Zm10.25-10.25h2.2C110.48,140.75,110.8,140.74,109.54,140.1Zm11-27.82v2.19h-1.46c-.24-1-.49-2-.73-2.93Zm-2.92,7.32h2.19c-.73,1.94-1,1.24-1.46,3.66h-1.46C117.11,122,117.35,120.82,117.6,119.6Zm-1.47-57.84c-1.26-.47-.71-.15-1.46-.73C115.93,61.5,115.38,61.17,116.13,61.76ZM91.24,69.81v.74c-1.7-.82-1.33-.69-2.2-2.2C90.62,69,90.11,69,91.24,69.81ZM86.85,52.24c-1.27-.47-.72-.14-1.47-.73C86.65,52,86.1,51.65,86.85,52.24Zm-4.39,2.2h.73V55.9h-.73Zm-2.93,51.24c5.2-.77,2.59-4.39,5.12-7.32v-.73h1.47c-3.34,5.92-2.13,19.6-5.86,24.16v1.47h-.73Zm0,18.31a25.18,25.18,0,0,1,3.66,2.2c5.76-.61,3.26-4,5.85-7.32,1.18-.71.07-.05,2.2,0l.73-.74c-.81-1.42-.11-.68-1.46-.73-.56-.79-.46-.67-.73-2.2H92c.53-1.85,1-8.29,2.2-10.25l.73-.73c2.69,11.69,9,13.15,16.11,19.77h1.46c0-3.1-.16-6.2-1.46-8v-.74c2.13,1.12,3.38,6.24,1.46,8.79-.47,1.26-.14.72-.73,1.46-3.77,3-9.53,1.83-14.64,3.67-2,.73-4.16,3.46-5.86,4.39-2.17,1.19-4.21.26-5.86,1.46-3.3-.19-3.51-.78-5.85-1.46Zm2.19,31.48v.73H80.26v-1.46Zm1.47,19c-2.26,1.53-6.3.69-8.06-.73ZM73.67,60.29c1.26.48.72.15,1.46.74C73.87,60.55,74.42,60.88,73.67,60.29Zm2.2-6.58v1.46a5.19,5.19,0,0,1-2.93-1.46Zm-2.93,38.8H74.4c-.29,1.5-.18,1.41-.73,2.2l-.73.73v-.73C72.23,93.53,72.89,94.64,72.94,92.51ZM71.47,72h.73v1.46h-.73ZM66.35,59.56h.73V61h-.73Zm-1.47,71.75c5.56.36,4.72,3.6,7.32,6.59v2.2c-2.92-1.65-7.78-3.19-11-.73h-.73c.69-3,.08-1.27,2.2-2.2.24-1.22.48-2.44.73-3.66-1.45.08-14.24,2-14.64,2.19-3.92-.46-1.15-.61-3.66-1.46v-1.46C50.54,132.84,63.56,132,64.88,131.31ZM55.37,73.47c1.51,1.89,1.33,1.35,0,2.93v1.47h-.74C54.88,76.4,55.12,74.94,55.37,73.47Zm-1.47,11h1.47c-.39,3-1.07,3.85.73,5.85-.78,4.2-3.2,5.87-5.13,8.79-2.49.19-4.74,0-6.59,2.2-1.26-.48-.71-.15-1.46-.74C41.23,97.65,51.91,87.64,53.9,84.46ZM42.19,102c3.57.11,4.17.75,6.59,1.46.24-.73.48-1.46.73-2.19h2.93c-.67,1.88-1.94,7-3.66,8,.75.59.18.27,1.46.73-1.11,3.92-2.61,5.51-2.2,9.52-1.5-.29-1.41-.18-2.19-.73-1.32-2.18.38-8.22,0-11l2.19.73c-.78-2.85-.79-1.58-.73-4.39a14.71,14.71,0,0,0-5.12-.73Zm0,21.23a13.76,13.76,0,0,0,3.66-2.2h1.46c-.24.73-.49,1.46-.73,2.2-1.26.47-.72.14-1.46.73H42.19Zm6.59,42.46c3.95.12,4.82.46,5.12-1.46,1.57-.3,4.67-.67,5.86-1.47,5.05.29,6.45,2,11.71,2.2-4.63,3-28.23,3.07-35.87,2.93C38.82,165.87,45.51,167.69,48.78,165.72Zm-8.06,8.06c-2.35,1.67-8,.78-9.52-.74A51,51,0,0,1,40.72,173.78Zm-18.3-70.29q1.47-7,2.93-13.91c1.92,2.93-.49,10.41-2.2,12.45v1.46Zm-8.06,79.8c1.54-2.47,4.27-2.26,5.86-5.12,11.31,4,34.85,14.94,40.27,24.16C47.45,196,30.05,181.64,14.36,183.29Zm54.19,25.63v.73c-7.19-1.7-23.3-4.89-28.56-8.79C50.28,201.73,60.6,205.3,68.55,208.92Zm-29.29-8.79c-1.64.92-2.3.49-3.66-.73Zm22,23.43a8.46,8.46,0,0,1,2.2,1.47C61.69,224.38,62.21,224.75,61.22,223.56Zm22,3.66H80.26V225c1.7-.17,2.06-.15,2.93-.74h2.19C84.63,226,84.13,225.88,83.19,227.22Zm-9.52-11v2.2c2.16,1.44,3.38,3.14,5.86,4.39v1.46c-3.75-2.18-10.64-3.63-13.91-6.59H64.15c.42,6.57,6.34,5.85,9.52,9.52-5.12-2.13-13.47-4.74-16.84-8.78h-2.2l2.93,3.66c-3.5-1.72-6.8-4.36-10.25-5.86-6-2.6-13.08-3.28-17.57-7.32H29c2.7-2.14,10-1.36,13.91,0,14.11,4.91,37.57,3.19,44.66,13.18C83.25,220.06,79.24,216.68,73.67,216.24Zm13.91,16.84h2.2C88.51,233.73,88.84,233.72,87.58,233.08Zm3.66-2.93c-1.73-.64-1.21-.27-2.2-1.46l2.2.73Zm-2.93-7.32c1.27.47.72.14,1.47.73C88.51,223.09,89.06,223.42,88.31,222.83Zm8.79,8a13.7,13.7,0,0,0-4.4.73A10.71,10.71,0,0,1,92,228c1.7.65,3.27,1.48,5.13,2.2ZM92,224.29c1.27.47.72.15,1.47.74C92.17,224.55,92.72,224.88,92,224.29Zm6.59-2.92c-5.61-2.38-9.1-3.79-16.1-4.4,1-.67,4.09-.82,5.12-1.46,2.56,1,7.59,1.71,10.25,4.39h.73Zm-11-11c.24-.73.49-1.46.73-2.19.56.78.46.67.73,2.19Zm13.91-3.66c1.26.47.72.14,1.47.73C101.69,207,102.24,207.31,101.49,206.72Zm3.66,23.43c1.26.47.72.14,1.46.73C105.35,230.41,105.9,230.74,105.15,230.15Zm2.2-9.52h-1.47v-1.46a19.84,19.84,0,0,0,4.4-5.86h1.46C110.85,217.23,109.54,218.28,107.35,220.63Zm17.57-11c-2.26,1.08-2.58,2.95-4.4,4.39v1.47h-.73c1-3.44,2.64-4.59,2.93-8.79,3.67,1,8.53,2.76,11,5.13C131.4,211.4,126.56,209.4,124.92,209.65Zm13.18,8.79-.73.73V217.7c1.26.48.71.15,1.46.74Zm3.66,0v.73h-1.47c.25-.73.49-1.47.74-2.2h1.46C142,218.23,142.35,217.69,141.76,218.44ZM144,205.26c-1.9,3.35-8.14,1.87-12.44.73-9-2.39-17.95-5-25.63.73h-2.19c3.5-2.84,9.38-2.43,13.18-5.12,1.68-1.2,1.83-3.83,3.65-5.13v-.66h-.2c-5.95,1.56-12.59,4.16-18.83,5.8-4.39,1.15-10.26-.33-12.45,2.92-1.81-1.08-1.15-.3-1.46-2.92h-.73c-2.82,5-9.5,2.53-11.72,4.39-5.43-1.14-8.93-5.67-13.91-7.32-.47-1.27-.14-.72-.73-1.47v-.73c3.72.55,6.85,3.63,10.25,3.66,10.1.1,27.48-.57,41.73-5.12.16,0,5.11.67,7.85.79l.2-.06v.07a5.46,5.46,0,0,0,1.47-.07l2.2-2.93c3.51-2.22,11.08-2.78,16.1-2.93-2.66,2.17-9.93,3.31-13.91,3.66v2.2l15.38-2.2v.74a28,28,0,0,0-5.13,2.19c-.47,1.26-.14.72-.73,1.47v2.19c3.06-1.17,6.64-5,8.79-7.32h.73c-1.07,2.51-2.8,3.78-3.66,6.59.59.75.27.18.73,1.46H144c1.23-2.3,3-5.79,5.13-7.32.5-.31,3,.15,4.39-.73h1.46v.73C146.62,197.45,147.64,200.75,144,205.26Zm6.59,2.19c1.27.48.72.15,1.47.74C150.74,207.71,151.29,208,150.54,207.45Zm0-2.19c3.74-2.94,8.08-3.59,11-7.32h.73c-1.66,4-6.24,4.86-9.52,7.32Zm5.86,1.46h2.2c-1,1.17-.45.85-2.2,1.47.79.55.68.46,2.2.73v2.2l-2.93,1.46-1.47-2.93A6.72,6.72,0,0,0,156.4,206.72ZM88.31,6.12H86.85c.75.59.18.27,1.46.73ZM52.44,8.31H51c.76.59.18.27,1.47.74ZM40,14.17v.12l.13-.12Zm60.77,19.77h1.46c-.47-1.27-.14-.72-.73-1.47-.85-2.07-.09-1.37-2.2-2.19C98,33.51,98.23,31.59,100.76,33.94Zm2.93,5.12c1.26-.47.71-.14,1.46-.73A50.11,50.11,0,0,0,93.44,35.4a11.86,11.86,0,0,1-3.66,5.86c.5,2-.46,1.18,1.46,1.46L89,44.92v1.46l13.18-2.19C101.11,42.3,98.46,42,95.63,42,97,39.86,101.78,40.6,103.69,39.06Zm22,7.32c-1.12-.76-3-.77-5.13-.73C121.65,46.42,123.52,46.43,125.65,46.38Zm14.64,2.93c.79.56.68.46,2.2.73C141.7,49.49,141.81,49.58,140.29,49.31Zm7.32,0v1.47h2.2C148.73,49,150,49.92,147.61,49.31Zm5.86,1.47c-1.08-1.83.18-.86-2.19-1.47l1.46,1.47Zm-100.3.73c-.94-.64-1.81-.68-3.66-.73-.86.59-1.23.58-2.93.73C48.56,52.8,50.75,51.86,53.17,51.51Zm99.57,3.66c1.69-1.26,0-2.39-2.2-3.66-.75.59-.18.27-1.46.73C150.26,53.4,151.69,53.84,152.74,55.17ZM36.33,58.83H35.6v.73c3.49-.62,9.67-3.45,11.71-5.85H48a5,5,0,0,0-2.92-1.47C42.51,54.79,38.86,56.22,36.33,58.83ZM154.2,57.37l2.93,2.92C156.33,58.1,156.48,58.09,154.2,57.37ZM35.6,60.29v-.73H34.13C34.89,60.15,34.31,59.83,35.6,60.29Zm123.73,2.2h.73v-2.2l-2.19-.73a8.19,8.19,0,0,0,1.46,2.2ZM160.79,64c-.47-1.26-.14-.71-.73-1.46V64Zm4.4,24.17V82.26c-1-1-2-2-2.93-2.93.47,2.4.92,5.67,2.19,7.32v1.47Zm11.71,54.17v5.13A5,5,0,0,0,176.9,142.29ZM7,152.54h.74c-.47-1.26-.15-.71-.74-1.46Zm2.2,2.93a5.25,5.25,0,0,0-1.46-2.93v2.93ZM171,167.92v.73c1.37-1.54.65-2,2.93-2.93-.29-1.5-.18-1.41-.73-2.19C172.05,165.3,170.06,166.07,171,167.92Zm13.18-.73v2.19H185C184.66,167.88,184.77,168,184.22,167.19Zm-19,49.05c6.34-12.33,14.54-29.24,15.37-46.13H179.1c-2.43,5.62-9.11,21-7.33,26.36v1.47l-1.46-1.47a7,7,0,0,1-2.2,2.93v.73c1.73-.64,1.21-.27,2.2-1.46H171c-2.13,5.79-7.66,10.83-10.25,16.84-2.74,6.37-3,15-7.32,19.77v1.46c2.18-.33,2.47-.37,3.66-1.46,1.8-1.14,6.54-15.07,9.52-18.31C166,215.48,166.81,216.48,165.19,216.24Zm22-38.07c-.44-2.28-.13-1.78-1.46-2.93v-1.46h-1.47c.24,1.46.49,2.93.73,4.39Zm.73,4.39c-.67,6.17-3.91,32.32-6.59,35.14v.74c6.26-2.1,5.46-11.85,5.13-20.5,1.74,2.14,2.65,7.72,2.93,11h1.46C189.87,203.56,191.08,187.67,187.88,182.56Zm-2.19,2.93h-2.93c-2.41,6-2.26,15.93-5.86,21.23v1.47l.73-.74c5.15-4.39,4-15.69,8.06-21.23Zm-148.63,2.2c-.79-.56-.67-.46-2.19-.73C35.66,187.51,35.54,187.41,37.06,187.69Zm-22.7,8.78h.74c-.47-1.26-.14-.71-.74-1.46Zm5.13,13.18.73-1.46c1.07-1.9-3.26-9.84-5.12-11.72.28,5.1,1.87,7.74,2.19,12.45Zm84.2-10.25c-.79-.55-.68-.46-2.2-.73C102.28,199.22,102.17,199.13,103.69,199.4Zm70.28.73v2.2h.73C174.41,200.82,174.52,200.92,174,200.13Zm0,3.66c-1-1.78.34-.51-1.46-1.46-.29,1.5-.18,1.41-.74,2.19V206h.74A8.43,8.43,0,0,1,174,203.79Zm0,.73a9.27,9.27,0,0,0-.73,2.93H174C174.41,205.85,174.79,206,174,204.52Zm-2.2,3.67c.74-1.09-.47-1.25-.73-1.47C169.5,206.89,171,207.83,171.77,208.19Zm2.93-1.47c-.47,1.27-.14.72-.73,1.47v1.46h.73C175.14,208.05,175.52,208.17,174.7,206.72Zm-1.39,5-.07.14-.05,0c-1.72,1.7-3.7,3-5.08,5.14-3.22,5-4.79,11.8-8.78,16.11v1.46c4.68-1.64,15.26-20.46,17.57-25.62h-1.46A11.63,11.63,0,0,1,173.31,211.71Zm13.84-2.79c.08,3.9-.13,7.72-2.2,9.52l.74.73.73.73v-.73c2.36-2,2.4-5.72,2.19-10.25Zm-169.86.73c.7,1.59,1.46,3,2.2,4.39,1.26-.47.72-.14,1.47-.73.24-.24.48-.49.73-.73H21C19.87,210.94,19.44,210.34,17.29,209.65Zm155.22.73c-1.52.16-.14,1.07.68,1.45l.12-.12C173.84,210.76,172.75,210.59,172.51,210.38ZM100,285.06c-1.77-1.34-4.08-1.62-5.86-2.93L81.72,269.69c-2.31-1.73-6.16-3-8-5.13-.73-.82.15-2.25-.73-2.93L62.69,258.7c-4.54-2.73-9.2-7.17-14.65-8.78,4.84,7.18,14.28,11.23,19,18.3,3-.42,3.8-1,5.12-2.93,9.15,3.16,12.46,13.37,19.77,18.31,1.62,1.09,3.7,1,5.13,2.19,1.5-.29,1.41-.18,2.19-.73Zm.73,1.46v-.73H99.29C100.05,286.38,99.48,286.06,100.76,286.52Z"/><g class="cls-5"><path class="cls-6" d="M102,74.39a1.93,1.93,0,0,1-.48,0A3.79,3.79,0,0,1,99,72.73c-2-2.74-2.41-8.69-2.07-11,.53-3.57,2.62-7,4.48-10l.84-1.39c1.6-2.61,3.59-5.86,3.42-8.57-.08-1.34-.37-2.27-.81-2.55-.6-.39-2.06-.1-4.32.86a1.66,1.66,0,0,1-2.19-.92,1.72,1.72,0,0,1,.89-2.24c2.6-1.11,5.29-1.95,7.38-.6,1.46.93,2.24,2.65,2.39,5.27.23,3.8-2.07,7.56-3.92,10.59l-.85,1.38c-1.67,2.75-3.58,5.85-4,8.73S100.93,70.6,102,71a1.72,1.72,0,0,1,1.42,1.94A1.69,1.69,0,0,1,102,74.39Z"/></g><g class="cls-7"><path class="cls-6" d="M106.69,39.31a4.44,4.44,0,0,1-.27.38c.52-.07,1-.12,1.57-.18a1.84,1.84,0,0,1,1.23,3.33l-1,.68c-8.18,5.74-18.37,12.89-28.36,14.55a1.53,1.53,0,0,1-.3,0h0a1.84,1.84,0,0,1-1.74-1.27,1.55,1.55,0,0,1-.06-.23,1.77,1.77,0,0,1-.78-.88,1.85,1.85,0,0,1,.8-2.33A1.37,1.37,0,0,1,78,53.2l0,0a1.84,1.84,0,0,1-1.14-3.11c1.43-1.45,2.67-2.94,4-4.52a70.45,70.45,0,0,1,6.16-6.74c5.19-4.83,11.86-5.62,17.71-5.75a1.68,1.68,0,0,1,.7.13c.86.15,1.93,3.28,1.76,3.52ZM87.3,48.67c-.64.6-1.27,1.2-1.88,1.8.91-.65,1.8-1.31,2.68-2l2.11-1.56a22.78,22.78,0,0,0-2.91,1.73Zm7.21-10.28a15.55,15.55,0,0,0-5,3.1Q88.2,42.75,87.06,44a75.71,75.71,0,0,1,7.45-5.62Zm9-.92a56.38,56.38,0,0,0-7,4q1.6-.34,3.21-.66a16,16,0,0,0,3.76-3.3Z"/></g><path class="cls-8" d="M103.6,72.92a1.86,1.86,0,0,1-.52-.07,4.12,4.12,0,0,1-2.45-2.14c-1.73-3.19-1.25-9.55-.53-11.92,1.14-3.7,4-7,6.43-9.9l1.13-1.34c2.14-2.51,4.8-5.64,5-8.53.12-1.43,0-2.45-.48-2.81-.6-.51-2.22-.42-4.82.25a1.83,1.83,0,1,1-.91-3.54c3-.78,6-1.25,8.09.49,1.43,1.21,2,3.14,1.76,5.93-.34,4-3.43,7.67-5.9,10.58l-1.14,1.34c-2.25,2.64-4.8,5.63-5.71,8.61s-.55,8.89.52,9.47a1.83,1.83,0,0,1-.52,3.58Z"/><path class="cls-9" d="M80.31,53.19a1.83,1.83,0,0,1-1.74-1.27l-.06-.22a1.91,1.91,0,0,1-.78-.88,1.85,1.85,0,0,1,.8-2.34,2.11,2.11,0,0,1,.23-.19l0,0a1.83,1.83,0,0,1-1.14-3.1c1.43-1.46,2.67-3,4-4.53a69,69,0,0,1,6.16-6.73c5.18-4.84,11.85-5.62,17.7-5.75a1.67,1.67,0,0,1,.7.12,21,21,0,0,1,2-4.46,42.74,42.74,0,0,1,8.18-8.93,39.46,39.46,0,0,1,21.68-10,1.83,1.83,0,0,1,.5,3.63,35.58,35.58,0,0,0-19.77,9.14,39.69,39.69,0,0,0-7.52,8.17,20.1,20.1,0,0,0-1.74,4,19.71,19.71,0,0,1-2.12,4.64c-.08.12-.18.25-.27.37l1.57-.17a1.83,1.83,0,0,1,1.22,3.32l-1,.68c-8.19,5.75-18.37,12.9-28.36,14.56l-.3,0ZM88,43.77c-.64.59-1.27,1.19-1.88,1.8.9-.65,1.8-1.32,2.68-2,.7-.51,1.4-1,2.11-1.55A21.67,21.67,0,0,0,88,43.77Zm7.21-10.29a15.76,15.76,0,0,0-5,3.11c-.9.84-1.72,1.68-2.49,2.51a79,79,0,0,1,7.45-5.62Zm9-.92a56.38,56.38,0,0,0-7,4c1.07-.23,2.14-.45,3.22-.66a15.71,15.71,0,0,0,3.75-3.3Z"/></g></g></svg>