<svg id="Calque_2" data-name="Calque 2" xmlns="http://www.w3.org/2000/svg" viewBox="0 0 470.41 470.38"><defs><style>.cls-1,.cls-3{fill:#07b184;}.cls-1,.cls-2,.cls-3{stroke:#000;stroke-width:0.9px;}.cls-1,.cls-2{stroke-linejoin:round;}.cls-2{fill:#fff;}.cls-3{stroke-miterlimit:10;}</style></defs><title>star-green</title><polygon class="cls-1" points="382.48 467.63 236.79 392.5 92.31 469.93 118.73 308.16 0.45 194.67 162.47 169.81 233.85 22.25 307.56 168.66 469.96 190.95 353.49 306.29 382.48 467.63"/><polygon class="cls-2" points="138.03 301.72 39.23 206.93 174.56 186.17 234.17 62.92 295.74 185.21 431.38 203.82 334.1 300.16 358.31 434.92 236.63 372.17 115.95 436.84 138.03 301.72"/><path class="cls-3" d="M133.7,43.65a36,36,0,0,1-36-36,7.2,7.2,0,0,0-14.4,0,36,36,0,0,1-36,36,7.2,7.2,0,0,0,0,14.4,36,36,0,0,1,36,36,7.2,7.2,0,0,0,14.4,0,36,36,0,0,1,36-36,7.2,7.2,0,1,0,0-14.4ZM90.5,68.2A50.4,50.4,0,0,0,73.15,50.85,50.4,50.4,0,0,0,90.5,33.5a50.4,50.4,0,0,0,17.35,17.35A50.4,50.4,0,0,0,90.5,68.2Z"/><path class="cls-3" d="M460.1,356.35a21.6,21.6,0,0,1-21.6-21.22,7.49,7.49,0,0,0-6.87-7.57,7.2,7.2,0,0,0-7.54,7.19,21.6,21.6,0,0,1-21.22,21.6,7.49,7.49,0,0,0-7.57,6.87,7.2,7.2,0,0,0,7.19,7.54A21.6,21.6,0,0,1,424.1,392a7.49,7.49,0,0,0,6.87,7.57,7.2,7.2,0,0,0,7.54-7.19,21.6,21.6,0,0,1,21.22-21.6,7.49,7.49,0,0,0,7.57-6.87A7.2,7.2,0,0,0,460.1,356.35Zm-29.13,14a36,36,0,0,0-6.45-6.45.41.41,0,0,1,0-.65,36,36,0,0,0,6.45-6.45.41.41,0,0,1,.65,0,36,36,0,0,0,6.45,6.45.41.41,0,0,1,0,.65,36,36,0,0,0-6.45,6.45A.41.41,0,0,1,431,370.32Z"/></svg>